codicon.ufo
<glyph name="add" format="2">
  <advance width="1200"/>
  <unicode hex="EA60"/>
  <note>
add
</note>
  <outline>
    <contour>
      <point x="643" y="755" type="line"/>
      <point x="643" y="1288" type="line"/>
      <point x="552" y="1288" type="line"/>
      <point x="552" y="755" type="line"/>
      <point x="20" y="755" type="line"/>
      <point x="20" y="665" type="line"/>
      <point x="552" y="665" type="line"/>
      <point x="552" y="132" type="line"/>
      <point x="643" y="132" type="line"/>
      <point x="643" y="665" type="line"/>
      <point x="1180" y="665" type="line"/>
      <point x="1180" y="755" type="line"/>
    </contour>
  </outline>
</glyph>
<glyph name="lightbulb" format="2">
  <advance width="1200"/>
  <unicode hex="EA61"/>
  <note>
lightbulb
</note>
  <outline>
    <contour>
      <point x="1017" y="650"/>
      <point x="1093" y="825"/>
      <point x="1093" y="930" type="qcurve" smooth="yes"/>
      <point x="1093" y="1064"/>
      <point x="965" y="1292"/>
      <point x="737" y="1420"/>
      <point x="603" y="1420" type="qcurve" smooth="yes"/>
      <point x="533" y="1420"/>
      <point x="405" y="1385"/>
      <point x="294" y="1321"/>
      <point x="206" y="1233"/>
      <point x="177" y="1175" type="qcurve" smooth="yes"/>
      <point x="107" y="1064"/>
      <point x="107" y="930" type="qcurve" smooth="yes"/>
      <point x="107" y="831"/>
      <point x="189" y="650"/>
      <point x="259" y="586" type="qcurve" smooth="yes"/>
      <point x="311" y="533"/>
      <point x="369" y="393"/>
      <point x="369" y="317" type="qcurve" smooth="yes"/>
      <point x="369" y="142" type="line" smooth="yes"/>
      <point x="369" y="84"/>
      <point x="451" y="-4"/>
      <point x="515" y="2" type="qcurve" smooth="yes"/>
      <point x="690" y="2" type="line"/>
      <point x="720" y="-4"/>
      <point x="743" y="8" type="qcurve" smooth="yes"/>
      <point x="784" y="25"/>
      <point x="831" y="101"/>
      <point x="831" y="142" type="qcurve" smooth="yes"/>
      <point x="831" y="317" type="line" smooth="yes"/>
      <point x="831" y="393"/>
      <point x="895" y="533"/>
      <point x="947" y="586" type="qcurve" smooth="yes"/>
    </contour>
    <contour>
      <point x="720" y="142" type="line" smooth="yes"/>
      <point x="720" y="124"/>
      <point x="702" y="107"/>
      <point x="690" y="107" type="qcurve" smooth="yes"/>
      <point x="515" y="107" type="line" smooth="yes"/>
      <point x="498" y="107"/>
      <point x="480" y="130"/>
      <point x="480" y="142" type="qcurve" smooth="yes"/>
      <point x="480" y="381" type="line"/>
      <point x="720" y="381" type="line"/>
    </contour>
  </outline>
</glyph>
<glyph name="repo" format="2">
  <advance width="1200"/>
  <unicode hex="EA62"/>
  <note>
repo
</note>
  <outline>
    <contour>
      <point x="1180" y="181" type="line"/>
      <point x="1180" y="520" type="line"/>
      <point x="1180" y="1336" type="line"/>
      <point x="1129" y="1382" type="line"/>
      <point x="189" y="1382" type="line" smooth="yes"/>
      <point x="159" y="1382"/>
      <point x="128" y="1372" type="qcurve" smooth="yes"/>
      <point x="61" y="1341"/>
      <point x="35" y="1275" type="qcurve" smooth="yes"/>
      <point x="25" y="1244"/>
      <point x="20" y="1213" type="qcurve"/>
      <point x="20" y="299" type="line" smooth="yes"/>
      <point x="20" y="269"/>
      <point x="35" y="238" type="qcurve" smooth="yes"/>
      <point x="61" y="171"/>
      <point x="128" y="145" type="qcurve" smooth="yes"/>
      <point x="159" y="135"/>
      <point x="189" y="135" type="qcurve" smooth="yes"/>
      <point x="215" y="135" type="line"/>
      <point x="215" y="228" type="line"/>
      <point x="189" y="228" type="line" smooth="yes"/>
      <point x="174" y="228"/>
      <point x="164" y="233" type="qcurve" smooth="yes"/>
      <point x="133" y="248"/>
      <point x="123" y="274" type="qcurve" smooth="yes"/>
      <point x="118" y="289"/>
      <point x="118" y="299" type="qcurve" smooth="yes"/>
      <point x="118" y="351" type="line" smooth="yes"/>
      <point x="118" y="361"/>
      <point x="123" y="376" type="qcurve" smooth="yes"/>
      <point x="133" y="402"/>
      <point x="164" y="417" type="qcurve" smooth="yes"/>
      <point x="174" y="423"/>
      <point x="189" y="423" type="qcurve" smooth="yes"/>
      <point x="1082" y="423" type="line"/>
      <point x="1082" y="228" type="line"/>
      <point x="698" y="228" type="line"/>
      <point x="698" y="135" type="line"/>
      <point x="1129" y="135" type="line"/>
    </contour>
    <contour>
      <point x="1082" y="520" type="line"/>
      <point x="215" y="520" type="line"/>
      <point x="215" y="1290" type="line"/>
      <point x="1082" y="1290" type="line"/>
    </contour>
    <contour>
      <point x="313" y="1095" type="line"/>
      <point x="410" y="1095" type="line"/>
      <point x="410" y="1192" type="line"/>
      <point x="313" y="1192" type="line"/>
    </contour>
    <contour>
      <point x="313" y="905" type="line"/>
      <point x="410" y="905" type="line"/>
      <point x="410" y="997" type="line"/>
      <point x="313" y="997" type="line"/>
    </contour>
    <contour>
      <point x="410" y="710" type="line"/>
      <point x="410" y="808" type="line"/>
      <point x="313" y="808" type="line"/>
      <point x="313" y="710" type="line"/>
    </contour>
    <contour>
      <point x="574" y="38" type="line"/>
      <point x="600" y="38" type="line"/>
      <point x="600" y="325" type="line"/>
      <point x="313" y="325" type="line"/>
      <point x="313" y="38" type="line"/>
      <point x="338" y="38" type="line"/>
      <point x="456" y="181" type="line"/>
    </contour>
  </outline>
</glyph>
<glyph name="repo-forked" format="2">
  <advance width="1200"/>
  <unicode hex="EA63"/>
  <note>
repo-forked
</note>
  <outline>
    <contour>
      <point x="1174" y="1108"/>
      <point x="1180" y="1181" type="qcurve" smooth="yes"/>
      <point x="1180" y="1265"/>
      <point x="1068" y="1382"/>
      <point x="900" y="1399"/>
      <point x="772" y="1293"/>
      <point x="749" y="1136"/>
      <point x="839" y="996"/>
      <point x="917" y="979" type="qcurve"/>
      <point x="917" y="867" type="line" smooth="yes"/>
      <point x="917" y="834"/>
      <point x="889" y="817" type="qcurve" smooth="yes"/>
      <point x="598" y="672" type="line"/>
      <point x="307" y="817" type="line" smooth="yes"/>
      <point x="280" y="834"/>
      <point x="280" y="867" type="qcurve" smooth="yes"/>
      <point x="280" y="979" type="line"/>
      <point x="358" y="996"/>
      <point x="447" y="1130"/>
      <point x="425" y="1287"/>
      <point x="307" y="1388"/>
      <point x="151" y="1388"/>
      <point x="33" y="1287"/>
      <point x="11" y="1130"/>
      <point x="101" y="996"/>
      <point x="179" y="979" type="qcurve"/>
      <point x="179" y="867" type="line" smooth="yes"/>
      <point x="179" y="823"/>
      <point x="224" y="744"/>
      <point x="263" y="728" type="qcurve" smooth="yes"/>
      <point x="548" y="577" type="line"/>
      <point x="548" y="442" type="line"/>
      <point x="470" y="420"/>
      <point x="380" y="291"/>
      <point x="403" y="135"/>
      <point x="520" y="28"/>
      <point x="682" y="28"/>
      <point x="800" y="135"/>
      <point x="816" y="291"/>
      <point x="727" y="420"/>
      <point x="654" y="442" type="qcurve"/>
      <point x="654" y="577" type="line"/>
      <point x="934" y="722" type="line" smooth="yes"/>
      <point x="979" y="744"/>
      <point x="1023" y="823"/>
      <point x="1023" y="867" type="qcurve" smooth="yes"/>
      <point x="1023" y="979" type="line"/>
      <point x="1091" y="996"/>
    </contour>
    <contour>
      <point x="129" y="1136"/>
      <point x="129" y="1181" type="qcurve" smooth="yes"/>
      <point x="129" y="1225"/>
      <point x="190" y="1287"/>
      <point x="280" y="1287"/>
      <point x="335" y="1225"/>
      <point x="335" y="1136"/>
      <point x="280" y="1074"/>
      <point x="190" y="1074"/>
    </contour>
    <contour>
      <point x="705" y="280"/>
      <point x="705" y="235" type="qcurve" smooth="yes"/>
      <point x="705" y="191"/>
      <point x="643" y="135"/>
      <point x="554" y="135"/>
      <point x="492" y="191"/>
      <point x="492" y="280"/>
      <point x="554" y="342"/>
      <point x="643" y="342"/>
    </contour>
    <contour>
      <point x="1012" y="1074"/>
      <point x="967" y="1074" type="qcurve" smooth="yes"/>
      <point x="923" y="1074"/>
      <point x="861" y="1136"/>
      <point x="861" y="1225"/>
      <point x="923" y="1287"/>
      <point x="1012" y="1287"/>
      <point x="1074" y="1225"/>
      <point x="1074" y="1136"/>
    </contour>
  </outline>
</glyph>
<glyph name="git-pull-request" format="2">
  <advance width="1200"/>
  <unicode hex="EA64"/>
  <note>
git-pull-request
</note>
  <outline>
    <contour>
      <point x="435" y="1056"/>
      <point x="435" y="1122" type="qcurve" smooth="yes"/>
      <point x="440" y="1210"/>
      <point x="312" y="1333"/>
      <point x="228" y="1329" type="qcurve" smooth="yes"/>
      <point x="162" y="1329"/>
      <point x="61" y="1259"/>
      <point x="12" y="1144"/>
      <point x="34" y="1021"/>
      <point x="123" y="932"/>
      <point x="184" y="919" type="qcurve"/>
      <point x="184" y="501" type="line"/>
      <point x="123" y="487"/>
      <point x="34" y="399"/>
      <point x="12" y="276"/>
      <point x="61" y="161"/>
      <point x="162" y="91"/>
      <point x="290" y="91"/>
      <point x="396" y="161"/>
      <point x="422" y="219" type="qcurve" smooth="yes"/>
      <point x="435" y="258"/>
      <point x="435" y="302" type="qcurve" smooth="yes"/>
      <point x="435" y="364"/>
      <point x="400" y="417" type="qcurve" smooth="yes"/>
      <point x="356" y="487"/>
      <point x="272" y="505" type="qcurve"/>
      <point x="272" y="919" type="line"/>
      <point x="308" y="928" type="line"/>
      <point x="365" y="955"/>
      <point x="400" y="1007" type="qcurve" smooth="yes"/>
    </contour>
    <contour>
      <point x="356" y="324"/>
      <point x="352" y="258"/>
      <point x="312" y="197"/>
      <point x="242" y="170"/>
      <point x="171" y="183"/>
      <point x="114" y="236"/>
      <point x="109" y="272" type="qcurve" smooth="yes"/>
      <point x="96" y="329"/>
      <point x="171" y="421"/>
      <point x="228" y="421" type="qcurve" smooth="yes"/>
      <point x="264" y="421"/>
      <point x="321" y="386"/>
      <point x="338" y="355" type="qcurve" smooth="yes"/>
    </contour>
    <contour>
      <point x="131" y="1043"/>
      <point x="101" y="1113"/>
      <point x="114" y="1184"/>
      <point x="167" y="1236"/>
      <point x="242" y="1254"/>
      <point x="312" y="1223"/>
      <point x="352" y="1166"/>
      <point x="356" y="1096"/>
      <point x="321" y="1034"/>
      <point x="264" y="999"/>
      <point x="193" y="999"/>
      <point x="162" y="1021" type="qcurve" smooth="yes"/>
    </contour>
    <contour>
      <point x="1013" y="959" type="line"/>
      <point x="1017" y="999"/>
      <point x="999" y="1038" type="qcurve" smooth="yes"/>
      <point x="977" y="1096"/>
      <point x="872" y="1166"/>
      <point x="810" y="1166" type="qcurve" smooth="yes"/>
      <point x="656" y="1166" type="line"/>
      <point x="761" y="1272" type="line"/>
      <point x="700" y="1329" type="line"/>
      <point x="524" y="1153" type="line"/>
      <point x="524" y="1096" type="line"/>
      <point x="700" y="919" type="line"/>
      <point x="761" y="977" type="line"/>
      <point x="656" y="1082" type="line"/>
      <point x="810" y="1082" type="line" smooth="yes"/>
      <point x="858" y="1082"/>
      <point x="933" y="1012"/>
      <point x="933" y="959" type="qcurve" smooth="yes"/>
      <point x="933" y="501" type="line"/>
      <point x="894" y="492"/>
      <point x="858" y="470" type="qcurve" smooth="yes"/>
      <point x="805" y="435"/>
      <point x="757" y="320"/>
      <point x="783" y="197"/>
      <point x="872" y="109"/>
      <point x="995" y="82"/>
      <point x="1110" y="131"/>
      <point x="1180" y="236"/>
      <point x="1180" y="298" type="qcurve" smooth="yes"/>
      <point x="1180" y="382"/>
      <point x="1118" y="443" type="qcurve" smooth="yes"/>
      <point x="1074" y="487"/>
      <point x="1013" y="501" type="qcurve"/>
    </contour>
    <contour>
      <point x="1039" y="188"/>
      <point x="977" y="170"/>
      <point x="920" y="183"/>
      <point x="872" y="223"/>
      <point x="845" y="285"/>
      <point x="858" y="360"/>
      <point x="911" y="413"/>
      <point x="986" y="426"/>
      <point x="1057" y="399"/>
      <point x="1101" y="329"/>
      <point x="1092" y="241"/>
      <point x="1061" y="210" type="qcurve" smooth="yes"/>
    </contour>
  </outline>
</glyph>
<glyph name="record-keys" format="2">
  <advance width="1200"/>
  <unicode hex="EA65"/>
  <note>
record-keys
</note>
  <outline>
    <contour>
      <point x="1127" y="1113"/>
      <point x="1094" y="1113" type="qcurve" smooth="yes"/>
      <point x="106" y="1113" type="line" smooth="yes"/>
      <point x="68" y="1113"/>
      <point x="20" y="1061"/>
      <point x="20" y="1023" type="qcurve" smooth="yes"/>
      <point x="20" y="397" type="line" smooth="yes"/>
      <point x="20" y="359"/>
      <point x="68" y="307"/>
      <point x="106" y="307" type="qcurve" smooth="yes"/>
      <point x="1094" y="307" type="line" smooth="yes"/>
      <point x="1127" y="307"/>
      <point x="1180" y="359"/>
      <point x="1180" y="397" type="qcurve" smooth="yes"/>
      <point x="1180" y="1023" type="line" smooth="yes"/>
      <point x="1180" y="1061"/>
    </contour>
    <contour>
      <point x="1094" y="1023" type="line"/>
      <point x="1094" y="397" type="line"/>
      <point x="106" y="397" type="line"/>
      <point x="106" y="1023" type="line"/>
    </contour>
    <contour>
      <point x="822" y="846" type="line"/>
      <point x="822" y="932" type="line"/>
      <point x="736" y="932" type="line"/>
      <point x="736" y="846" type="line"/>
    </contour>
    <contour>
      <point x="736" y="665" type="line"/>
      <point x="736" y="755" type="line"/>
      <point x="645" y="755" type="line"/>
      <point x="645" y="665" type="line"/>
    </contour>
    <contour>
      <point x="913" y="846" type="line"/>
      <point x="1003" y="846" type="line"/>
      <point x="1003" y="932" type="line"/>
      <point x="913" y="932" type="line"/>
    </contour>
    <contour>
      <point x="1003" y="488" type="line"/>
      <point x="1003" y="574" type="line"/>
      <point x="913" y="574" type="line"/>
      <point x="913" y="488" type="line"/>
    </contour>
    <contour>
      <point x="378" y="488" type="line"/>
      <point x="822" y="488" type="line"/>
      <point x="822" y="574" type="line"/>
      <point x="378" y="574" type="line"/>
    </contour>
    <contour>
      <point x="1003" y="665" type="line"/>
      <point x="1003" y="755" type="line"/>
      <point x="822" y="755" type="line"/>
      <point x="822" y="665" type="line"/>
    </contour>
    <contour>
      <point x="555" y="846" type="line"/>
      <point x="645" y="846" type="line"/>
      <point x="645" y="932" type="line"/>
      <point x="555" y="932" type="line"/>
    </contour>
    <contour>
      <point x="555" y="665" type="line"/>
      <point x="555" y="755" type="line"/>
      <point x="464" y="755" type="line"/>
      <point x="464" y="665" type="line"/>
    </contour>
    <contour>
      <point x="197" y="488" type="line"/>
      <point x="287" y="488" type="line"/>
      <point x="287" y="574" type="line"/>
      <point x="197" y="574" type="line"/>
    </contour>
    <contour>
      <point x="197" y="846" type="line"/>
      <point x="287" y="846" type="line"/>
      <point x="287" y="932" type="line"/>
      <point x="197" y="932" type="line"/>
    </contour>
    <contour>
      <point x="464" y="846" type="line"/>
      <point x="464" y="932" type="line"/>
      <point x="378" y="932" type="line"/>
      <point x="378" y="846" type="line"/>
    </contour>
    <contour>
      <point x="197" y="665" type="line"/>
      <point x="378" y="665" type="line"/>
      <point x="378" y="755" type="line"/>
      <point x="197" y="755" type="line"/>
    </contour>
  </outline>
</glyph>
<glyph name="tag" format="2">
  <advance width="1200"/>
  <unicode hex="EA66"/>
  <note>
tag
</note>
  <outline>
    <contour>
      <point x="1024" y="1172" type="line"/>
      <point x="986" y="1214" type="line"/>
      <point x="573" y="1214" type="line"/>
      <point x="547" y="1201" type="line"/>
      <point x="20" y="674" type="line"/>
      <point x="20" y="619" type="line"/>
      <point x="429" y="206" type="line"/>
      <point x="484" y="206" type="line"/>
      <point x="661" y="383" type="line"/>
      <point x="737" y="341"/>
      <point x="914" y="341"/>
      <point x="1070" y="425"/>
      <point x="1167" y="569"/>
      <point x="1176" y="657" type="qcurve" smooth="yes"/>
      <point x="1180" y="699" type="line" smooth="yes"/>
      <point x="1180" y="788"/>
      <point x="1096" y="944"/>
      <point x="1024" y="995" type="qcurve"/>
    </contour>
    <contour>
      <point x="944" y="1134" type="line"/>
      <point x="944" y="1033" type="line"/>
      <point x="885" y="1054"/>
      <point x="826" y="1054" type="qcurve" smooth="yes"/>
      <point x="809" y="1054"/>
      <point x="788" y="1033"/>
      <point x="788" y="999"/>
      <point x="809" y="974"/>
      <point x="826" y="974" type="qcurve" smooth="yes"/>
      <point x="889" y="974"/>
      <point x="944" y="948" type="qcurve"/>
      <point x="944" y="780" type="line"/>
      <point x="636" y="467" type="line"/>
      <point x="623" y="463"/>
      <point x="615" y="451" type="qcurve"/>
      <point x="459" y="290" type="line"/>
      <point x="104" y="645" type="line"/>
      <point x="589" y="1134" type="line"/>
    </contour>
    <contour>
      <point x="1024" y="763" type="line"/>
      <point x="1024" y="893" type="line"/>
      <point x="1062" y="851"/>
      <point x="1104" y="754"/>
      <point x="1104" y="699" type="qcurve"/>
      <point x="1100" y="678"/>
      <point x="1100" y="657" type="qcurve" smooth="yes"/>
      <point x="1091" y="594"/>
      <point x="1020" y="489"/>
      <point x="906" y="425"/>
      <point x="779" y="417"/>
      <point x="720" y="442" type="qcurve"/>
      <point x="1011" y="733" type="line"/>
    </contour>
  </outline>
</glyph>
<glyph name="person" format="2">
  <advance width="1200"/>
  <unicode hex="EA67"/>
  <note>
person
</note>
  <outline>
    <contour>
      <point x="555" y="1319"/>
      <point x="600" y="1319" type="qcurve" smooth="yes"/>
      <point x="645" y="1319"/>
      <point x="707" y="1257"/>
      <point x="707" y="1167"/>
      <point x="645" y="1106"/>
      <point x="555" y="1106"/>
      <point x="493" y="1167"/>
      <point x="493" y="1257"/>
    </contour>
    <contour>
      <point x="690" y="1420"/>
      <point x="600" y="1420" type="qcurve" smooth="yes"/>
      <point x="510" y="1420"/>
      <point x="387" y="1297"/>
      <point x="392" y="1123"/>
      <point x="510" y="999"/>
      <point x="690" y="999"/>
      <point x="813" y="1123"/>
      <point x="813" y="1297"/>
    </contour>
    <contour>
      <point x="808" y="949"/>
      <point x="729" y="949" type="qcurve" smooth="yes"/>
      <point x="471" y="949" type="line" smooth="yes"/>
      <point x="392" y="949"/>
      <point x="286" y="842"/>
      <point x="286" y="763" type="qcurve" smooth="yes"/>
      <point x="286" y="483" type="line"/>
      <point x="280" y="438"/>
      <point x="342" y="370"/>
      <point x="392" y="370" type="qcurve"/>
      <point x="392" y="123" type="line"/>
      <point x="387" y="73"/>
      <point x="465" y="0"/>
      <point x="516" y="0" type="qcurve" smooth="yes"/>
      <point x="684" y="0" type="line" smooth="yes"/>
      <point x="740" y="0"/>
      <point x="813" y="73"/>
      <point x="813" y="129" type="qcurve" smooth="yes"/>
      <point x="813" y="370" type="line"/>
      <point x="858" y="370"/>
      <point x="920" y="438"/>
      <point x="914" y="483" type="qcurve"/>
      <point x="914" y="763" type="line" smooth="yes"/>
      <point x="914" y="842"/>
    </contour>
    <contour>
      <point x="493" y="477" type="line"/>
      <point x="392" y="477" type="line"/>
      <point x="392" y="763" type="line"/>
      <point x="387" y="797"/>
      <point x="437" y="842"/>
      <point x="471" y="842" type="qcurve" smooth="yes"/>
      <point x="729" y="842" type="line" smooth="yes"/>
      <point x="763" y="842"/>
      <point x="813" y="797"/>
      <point x="808" y="763" type="qcurve"/>
      <point x="808" y="477" type="line"/>
      <point x="707" y="477" type="line"/>
      <point x="707" y="123" type="line" smooth="yes"/>
      <point x="707" y="118"/>
      <point x="695" y="107"/>
      <point x="684" y="107" type="qcurve" smooth="yes"/>
      <point x="516" y="107" type="line" smooth="yes"/>
      <point x="505" y="107"/>
      <point x="493" y="118"/>
      <point x="493" y="123" type="qcurve" smooth="yes"/>
    </contour>
  </outline>
</glyph>
<glyph name="source-control" format="2">
  <advance width="1200"/>
  <unicode hex="EA68"/>
  <note>
source-control
</note>
  <outline>
    <contour>
      <point x="1134" y="852"/>
      <point x="1134" y="933" type="qcurve" smooth="yes"/>
      <point x="1134" y="994"/>
      <point x="1068" y="1103"/>
      <point x="954" y="1160"/>
      <point x="831" y="1150"/>
      <point x="727" y="1075"/>
      <point x="684" y="956"/>
      <point x="703" y="833"/>
      <point x="789" y="743"/>
      <point x="850" y="724" type="qcurve"/>
      <point x="826" y="677"/>
      <point x="741" y="625"/>
      <point x="689" y="625" type="qcurve" smooth="yes"/>
      <point x="514" y="625" type="line" smooth="yes"/>
      <point x="410" y="625"/>
      <point x="334" y="554" type="qcurve"/>
      <point x="334" y="985" type="line"/>
      <point x="419" y="999"/>
      <point x="519" y="1136"/>
      <point x="505" y="1306"/>
      <point x="377" y="1420"/>
      <point x="206" y="1420"/>
      <point x="79" y="1306"/>
      <point x="65" y="1136"/>
      <point x="164" y="999"/>
      <point x="249" y="985" type="qcurve"/>
      <point x="249" y="445" type="line"/>
      <point x="164" y="426"/>
      <point x="60" y="294"/>
      <point x="74" y="123"/>
      <point x="192" y="5"/>
      <point x="363" y="-4"/>
      <point x="495" y="100"/>
      <point x="524" y="270"/>
      <point x="438" y="412"/>
      <point x="353" y="436" type="qcurve"/>
      <point x="377" y="483"/>
      <point x="462" y="535"/>
      <point x="514" y="535" type="qcurve" smooth="yes"/>
      <point x="689" y="535" type="line" smooth="yes"/>
      <point x="774" y="535"/>
      <point x="912" y="634"/>
      <point x="940" y="715" type="qcurve"/>
      <point x="1020" y="724"/>
    </contour>
    <contour>
      <point x="159" y="1146"/>
      <point x="159" y="1198" type="qcurve" smooth="yes"/>
      <point x="159" y="1254"/>
      <point x="235" y="1330"/>
      <point x="348" y="1330"/>
      <point x="424" y="1254"/>
      <point x="424" y="1146"/>
      <point x="348" y="1065"/>
      <point x="235" y="1065"/>
    </contour>
    <contour>
      <point x="424" y="280"/>
      <point x="424" y="228" type="qcurve" smooth="yes"/>
      <point x="424" y="171"/>
      <point x="348" y="95"/>
      <point x="235" y="95"/>
      <point x="159" y="171"/>
      <point x="159" y="280"/>
      <point x="235" y="360"/>
      <point x="348" y="360"/>
    </contour>
    <contour>
      <point x="964" y="800"/>
      <point x="912" y="800" type="qcurve" smooth="yes"/>
      <point x="855" y="800"/>
      <point x="779" y="881"/>
      <point x="779" y="989"/>
      <point x="855" y="1065"/>
      <point x="964" y="1065"/>
      <point x="1044" y="989"/>
      <point x="1044" y="881"/>
    </contour>
  </outline>
</glyph>
<glyph name="mirror" format="2">
  <advance width="1200"/>
  <unicode hex="EA69"/>
  <note>
mirror
</note>
  <outline>
    <contour>
      <point x="551" y="1290" type="line"/>
      <point x="38" y="958" type="line"/>
      <point x="20" y="927" type="line"/>
      <point x="20" y="165" type="line"/>
      <point x="82" y="130" type="line"/>
      <point x="600" y="462" type="line"/>
      <point x="1118" y="130" type="line"/>
      <point x="1180" y="165" type="line"/>
      <point x="1180" y="927" type="line"/>
      <point x="1162" y="958" type="line"/>
      <point x="649" y="1290" type="line"/>
    </contour>
    <contour>
      <point x="560" y="533" type="line"/>
      <point x="560" y="533" type="line"/>
      <point x="104" y="241" type="line"/>
      <point x="104" y="905" type="line"/>
      <point x="560" y="1197" type="line"/>
      <point x="560" y="958" type="line"/>
      <point x="644" y="958" type="line"/>
      <point x="644" y="1197" type="line"/>
      <point x="1100" y="905" type="line"/>
      <point x="1100" y="241" type="line"/>
      <point x="644" y="533" type="line"/>
    </contour>
    <contour>
      <point x="852" y="794" type="line"/>
      <point x="348" y="794" type="line"/>
      <point x="485" y="931" type="line"/>
      <point x="427" y="989" type="line"/>
      <point x="224" y="781" type="line"/>
      <point x="224" y="723" type="line"/>
      <point x="427" y="520" type="line"/>
      <point x="485" y="577" type="line"/>
      <point x="352" y="710" type="line"/>
      <point x="852" y="710" type="line"/>
      <point x="720" y="577" type="line"/>
      <point x="777" y="520" type="line"/>
      <point x="981" y="723" type="line"/>
      <point x="981" y="781" type="line"/>
      <point x="777" y="989" type="line"/>
      <point x="715" y="931" type="line"/>
    </contour>
  </outline>
</glyph>
<glyph name="star-empty" format="2">
  <advance width="1200"/>
  <unicode hex="EA6A"/>
  <note>
star-empty
</note>
  <outline>
    <contour>
      <point x="1180" y="856" type="line"/>
      <point x="733" y="856" type="line"/>
      <point x="600" y="1290" type="line"/>
      <point x="467" y="856" type="line"/>
      <point x="20" y="856" type="line"/>
      <point x="383" y="573" type="line"/>
      <point x="246" y="130" type="line"/>
      <point x="600" y="405" type="line"/>
      <point x="954" y="130" type="line"/>
      <point x="817" y="573" type="line"/>
    </contour>
    <contour>
      <point x="494" y="816" type="line"/>
      <point x="131" y="816" type="line"/>
      <point x="494" y="816" type="line"/>
      <point x="600" y="1166" type="line"/>
    </contour>
    <contour>
      <point x="317" y="232" type="line"/>
      <point x="423" y="586" type="line"/>
    </contour>
    <contour>
      <point x="706" y="816" type="line"/>
      <point x="1069" y="816" type="line"/>
    </contour>
    <contour>
      <point x="503" y="617" type="line"/>
      <point x="343" y="741" type="line"/>
      <point x="538" y="741" type="line"/>
      <point x="600" y="940" type="line"/>
      <point x="662" y="741" type="line"/>
      <point x="857" y="741" type="line"/>
      <point x="697" y="617" type="line"/>
      <point x="759" y="418" type="line"/>
      <point x="600" y="542" type="line"/>
      <point x="441" y="418" type="line"/>
    </contour>
  </outline>
</glyph>
<glyph name="comment" format="2">
  <advance width="1200"/>
  <unicode hex="EA6B"/>
  <note>
comment
</note>
  <outline>
    <contour>
      <point x="1180" y="1201" type="line"/>
      <point x="1140" y="1246" type="line"/>
      <point x="60" y="1246" type="line"/>
      <point x="20" y="1201" type="line"/>
      <point x="20" y="453" type="line"/>
      <point x="60" y="413" type="line"/>
      <point x="268" y="413" type="line"/>
      <point x="268" y="205" type="line"/>
      <point x="339" y="174" type="line"/>
      <point x="578" y="413" type="line"/>
      <point x="1140" y="413" type="line"/>
      <point x="1180" y="453" type="line"/>
    </contour>
    <contour>
      <point x="1100" y="1162" type="line"/>
      <point x="1100" y="497" type="line"/>
      <point x="560" y="497" type="line"/>
      <point x="529" y="484" type="line"/>
      <point x="352" y="307" type="line"/>
      <point x="352" y="453" type="line"/>
      <point x="308" y="497" type="line"/>
      <point x="104" y="497" type="line"/>
      <point x="104" y="1162" type="line"/>
    </contour>
  </outline>
</glyph>
<glyph name="warning" format="2">
  <advance width="1200"/>
  <unicode hex="EA6C"/>
  <note>
warning
</note>
  <outline>
    <contour>
      <point x="20" y="230" type="line"/>
      <point x="55" y="172" type="line"/>
      <point x="1145" y="172" type="line"/>
      <point x="1180" y="230" type="line"/>
      <point x="635" y="1248" type="line"/>
      <point x="565" y="1248" type="line"/>
    </contour>
    <contour>
      <point x="1074" y="252" type="line"/>
      <point x="126" y="252" type="line"/>
      <point x="600" y="1142" type="line"/>
    </contour>
    <contour>
      <point x="547" y="336" type="line"/>
      <point x="653" y="336" type="line"/>
      <point x="653" y="420" type="line"/>
      <point x="547" y="420" type="line"/>
    </contour>
    <contour>
      <point x="653" y="504" type="line"/>
      <point x="653" y="836" type="line"/>
      <point x="547" y="836" type="line"/>
      <point x="547" y="504" type="line"/>
    </contour>
  </outline>
</glyph>
<glyph name="search" format="2">
  <advance width="1200"/>
  <unicode hex="EA6D"/>
  <note>
search
</note>
  <outline>
    <contour>
      <point x="755" y="1326" type="qcurve"/>
      <point x="755" y="1326" type="line"/>
      <point x="627" y="1326"/>
      <point x="417" y="1189"/>
      <point x="313" y="958"/>
      <point x="351" y="710"/>
      <point x="433" y="619" type="qcurve"/>
      <point x="20" y="144" type="line"/>
      <point x="78" y="94" type="line"/>
      <point x="491" y="565" type="line"/>
      <point x="603" y="479"/>
      <point x="879" y="470"/>
      <point x="1111" y="627"/>
      <point x="1202" y="892"/>
      <point x="1119" y="1160"/>
      <point x="892" y="1326"/>
    </contour>
    <contour>
      <point x="755" y="549" type="qcurve"/>
      <point x="755" y="553" type="line"/>
      <point x="660" y="553"/>
      <point x="499" y="644"/>
      <point x="404" y="805"/>
      <point x="404" y="995"/>
      <point x="499" y="1156"/>
      <point x="660" y="1247"/>
      <point x="850" y="1247"/>
      <point x="1007" y="1156"/>
      <point x="1102" y="995"/>
      <point x="1102" y="805"/>
      <point x="1007" y="644"/>
      <point x="850" y="549"/>
    </contour>
  </outline>
</glyph>
<glyph name="sign-out" format="2">
  <advance width="1200"/>
  <unicode hex="EA6E"/>
  <note>
sign-out
</note>
  <outline>
    <contour>
      <point x="823" y="1221" type="line"/>
      <point x="823" y="1150" type="line"/>
      <point x="823" y="1012" type="line"/>
      <point x="909" y="1102" type="line"/>
      <point x="909" y="1264" type="line"/>
      <point x="866" y="1311" type="line"/>
      <point x="63" y="1311" type="line"/>
      <point x="20" y="1264" type="line"/>
      <point x="20" y="1221" type="line"/>
      <point x="20" y="1221" type="line"/>
      <point x="20" y="304" type="line"/>
      <point x="49" y="261" type="line"/>
      <point x="495" y="109" type="line"/>
      <point x="552" y="151" type="line"/>
      <point x="552" y="242" type="line"/>
      <point x="866" y="242" type="line"/>
      <point x="909" y="285" type="line"/>
      <point x="909" y="446" type="line"/>
      <point x="823" y="536" type="line"/>
      <point x="823" y="327" type="line"/>
      <point x="552" y="327" type="line"/>
      <point x="552" y="1069" type="line"/>
      <point x="524" y="1107" type="line"/>
      <point x="201" y="1221" type="line"/>
    </contour>
    <contour>
      <point x="462" y="1036" type="line"/>
      <point x="462" y="213" type="line"/>
      <point x="106" y="332" type="line"/>
      <point x="106" y="1155" type="line"/>
    </contour>
    <contour>
      <point x="900" y="584" type="line"/>
      <point x="961" y="522" type="line"/>
      <point x="1180" y="741" type="line"/>
      <point x="1180" y="807" type="line"/>
      <point x="961" y="1026" type="line"/>
      <point x="900" y="964" type="line"/>
      <point x="1042" y="822" type="line"/>
      <point x="600" y="822" type="line"/>
      <point x="600" y="731" type="line"/>
      <point x="1047" y="731" type="line"/>
    </contour>
  </outline>
</glyph>
<glyph name="sign-in" format="2">
  <advance width="1200"/>
  <unicode hex="EA6F"/>
  <note>
sign-in
</note>
  <outline>
    <contour>
      <point x="823" y="1221" type="line"/>
      <point x="823" y="1150" type="line"/>
      <point x="823" y="1155" type="line"/>
      <point x="909" y="1064" type="line"/>
      <point x="909" y="1264" type="line"/>
      <point x="866" y="1311" type="line"/>
      <point x="63" y="1311" type="line"/>
      <point x="20" y="1264" type="line"/>
      <point x="20" y="304" type="line"/>
      <point x="49" y="261" type="line"/>
      <point x="495" y="109" type="line"/>
      <point x="552" y="151" type="line"/>
      <point x="552" y="242" type="line"/>
      <point x="866" y="242" type="line"/>
      <point x="909" y="285" type="line"/>
      <point x="909" y="484" type="line"/>
      <point x="823" y="394" type="line"/>
      <point x="823" y="327" type="line"/>
      <point x="552" y="327" type="line"/>
      <point x="552" y="1069" type="line"/>
      <point x="524" y="1107" type="line"/>
      <point x="201" y="1221" type="line"/>
    </contour>
    <contour>
      <point x="462" y="1036" type="line"/>
      <point x="462" y="213" type="line"/>
      <point x="106" y="332" type="line"/>
      <point x="106" y="1155" type="line"/>
    </contour>
    <contour>
      <point x="885" y="964" type="line"/>
      <point x="823" y="1026" type="line"/>
      <point x="600" y="803" type="line"/>
      <point x="600" y="741" type="line"/>
      <point x="819" y="522" type="line"/>
      <point x="885" y="584" type="line"/>
      <point x="743" y="727" type="line"/>
      <point x="1180" y="727" type="line"/>
      <point x="1180" y="817" type="line"/>
      <point x="738" y="817" type="line"/>
    </contour>
  </outline>
</glyph>
<glyph name="eye" format="2">
  <advance width="1200"/>
  <unicode hex="EA70"/>
  <note>
eye
</note>
  <outline>
    <contour>
      <point x="104" y="546" type="line"/>
      <point x="104" y="679"/>
      <point x="237" y="909"/>
      <point x="467" y="1042"/>
      <point x="733" y="1042"/>
      <point x="963" y="909"/>
      <point x="1100" y="679"/>
      <point x="1100" y="546" type="qcurve"/>
      <point x="1180" y="546" type="line"/>
      <point x="1180" y="701"/>
      <point x="1025" y="971"/>
      <point x="759" y="1126"/>
      <point x="441" y="1126"/>
      <point x="175" y="971"/>
      <point x="20" y="701"/>
      <point x="20" y="546" type="qcurve"/>
    </contour>
    <contour>
      <point x="352" y="440"/>
      <point x="494" y="294"/>
      <point x="706" y="294"/>
      <point x="848" y="440"/>
      <point x="848" y="648"/>
      <point x="706" y="794"/>
      <point x="494" y="794"/>
      <point x="352" y="648"/>
      <point x="352" y="546" type="qcurve" smooth="yes"/>
    </contour>
    <contour>
      <point x="436" y="613"/>
      <point x="436" y="546" type="qcurve" smooth="yes"/>
      <point x="436" y="475"/>
      <point x="534" y="378"/>
      <point x="666" y="378"/>
      <point x="768" y="475"/>
      <point x="768" y="613"/>
      <point x="666" y="710"/>
      <point x="534" y="710"/>
    </contour>
  </outline>
</glyph>
<glyph name="circle-filled" format="2">
  <advance width="1200"/>
  <unicode hex="EA71"/>
  <note>
circle-filled
</note>
  <outline>
    <contour>
      <point x="523" y="1290"/>
      <point x="376" y="1251"/>
      <point x="306" y="1213" type="qcurve" smooth="yes"/>
      <point x="175" y="1135"/>
      <point x="97" y="1004" type="qcurve" smooth="yes"/>
      <point x="59" y="934"/>
      <point x="20" y="787"/>
      <point x="20" y="633"/>
      <point x="43" y="555" type="qcurve" smooth="yes"/>
      <point x="82" y="408"/>
      <point x="298" y="192"/>
      <point x="445" y="153" type="qcurve" smooth="yes"/>
      <point x="523" y="130"/>
      <point x="677" y="130"/>
      <point x="755" y="153" type="qcurve" smooth="yes"/>
      <point x="902" y="192"/>
      <point x="1118" y="408"/>
      <point x="1157" y="555" type="qcurve" smooth="yes"/>
      <point x="1180" y="633"/>
      <point x="1180" y="787"/>
      <point x="1157" y="865" type="qcurve" smooth="yes"/>
      <point x="1118" y="1012"/>
      <point x="902" y="1228"/>
      <point x="755" y="1267" type="qcurve" smooth="yes"/>
      <point x="677" y="1290"/>
      <point x="600" y="1290" type="qcurve" smooth="yes"/>
    </contour>
  </outline>
</glyph>
<glyph name="primitive-square" format="2">
  <advance width="1200"/>
  <unicode hex="EA72"/>
  <note>
primitive-square
</note>
  <outline>
    <contour>
      <point x="20" y="192" type="line"/>
      <point x="82" y="130" type="line"/>
      <point x="1118" y="130" type="line"/>
      <point x="1180" y="192" type="line"/>
      <point x="1180" y="1228" type="line"/>
      <point x="1118" y="1290" type="line"/>
      <point x="82" y="1290" type="line"/>
      <point x="20" y="1228" type="line"/>
    </contour>
    <contour>
      <point x="1056" y="1166" type="line"/>
      <point x="1056" y="254" type="line"/>
      <point x="144" y="254" type="line"/>
      <point x="144" y="1166" type="line"/>
    </contour>
  </outline>
</glyph>
<glyph name="edit" format="2">
  <advance width="1200"/>
  <unicode hex="EA73"/>
  <note>
edit
</note>
  <outline>
    <contour>
      <point x="1180" y="1144" type="line"/>
      <point x="1034" y="1290" type="line"/>
      <point x="914" y="1290" type="line"/>
      <point x="228" y="608" type="line"/>
      <point x="215" y="586" type="line"/>
      <point x="20" y="245" type="line"/>
      <point x="135" y="130" type="line"/>
      <point x="476" y="325" type="line"/>
      <point x="498" y="338" type="line"/>
      <point x="1180" y="1024" type="line"/>
    </contour>
    <contour>
      <point x="383" y="374" type="line"/>
      <point x="135" y="245" type="line"/>
      <point x="264" y="493" type="line"/>
    </contour>
    <contour>
      <point x="1118" y="1082" type="line"/>
      <point x="454" y="418" type="line"/>
      <point x="308" y="564" type="line"/>
      <point x="972" y="1228" type="line"/>
    </contour>
  </outline>
</glyph>
<glyph name="info" format="2">
  <advance width="1200"/>
  <unicode hex="EA74"/>
  <note>
info
</note>
  <outline>
    <contour>
      <point x="555" y="1306"/>
      <point x="362" y="1256"/>
      <point x="191" y="1140"/>
      <point x="74" y="978"/>
      <point x="16" y="781"/>
      <point x="25" y="579"/>
      <point x="101" y="390"/>
      <point x="236" y="238"/>
      <point x="326" y="188" type="qcurve" smooth="yes"/>
      <point x="447" y="126"/>
      <point x="716" y="117"/>
      <point x="963" y="229"/>
      <point x="1048" y="337" type="qcurve" smooth="yes"/>
      <point x="1142" y="453"/>
      <point x="1196" y="740"/>
      <point x="1115" y="1019"/>
      <point x="1008" y="1126" type="qcurve" smooth="yes"/>
      <point x="940" y="1198"/>
      <point x="756" y="1283"/>
      <point x="658" y="1297" type="qcurve" smooth="yes"/>
    </contour>
    <contour>
      <point x="694" y="215" type="line" smooth="yes"/>
      <point x="613" y="197"/>
      <point x="442" y="224"/>
      <point x="366" y="265" type="qcurve" smooth="yes"/>
      <point x="249" y="328"/>
      <point x="110" y="552"/>
      <point x="97" y="817"/>
      <point x="214" y="1054"/>
      <point x="326" y="1131" type="qcurve" smooth="yes"/>
      <point x="420" y="1194"/>
      <point x="649" y="1225"/>
      <point x="869" y="1149"/>
      <point x="949" y="1068" type="qcurve" smooth="yes"/>
      <point x="1039" y="974"/>
      <point x="1111" y="736"/>
      <point x="1062" y="489"/>
      <point x="981" y="390" type="qcurve" smooth="yes"/>
      <point x="927" y="323"/>
      <point x="779" y="233"/>
      <point x="698" y="215" type="qcurve" smooth="yes"/>
    </contour>
    <contour>
      <point x="555" y="960" type="line"/>
      <point x="555" y="879" type="line"/>
      <point x="662" y="879" type="line"/>
      <point x="662" y="960" type="line"/>
    </contour>
    <contour>
      <point x="555" y="794" type="line"/>
      <point x="555" y="458" type="line"/>
      <point x="662" y="458" type="line"/>
      <point x="662" y="794" type="line"/>
    </contour>
  </outline>
</glyph>
<glyph name="lock" format="2">
  <advance width="1200"/>
  <unicode hex="EA75"/>
  <note>
lock
</note>
  <outline>
    <contour>
      <point x="1180" y="710" type="line"/>
      <point x="1082" y="808" type="line"/>
      <point x="984" y="808" type="line"/>
      <point x="984" y="999" type="line" smooth="yes"/>
      <point x="984" y="1107"/>
      <point x="881" y="1282"/>
      <point x="701" y="1385"/>
      <point x="494" y="1385"/>
      <point x="314" y="1282"/>
      <point x="211" y="1107"/>
      <point x="211" y="999" type="qcurve" smooth="yes"/>
      <point x="211" y="808" type="line"/>
      <point x="113" y="808" type="line"/>
      <point x="20" y="710" type="line"/>
      <point x="20" y="133" type="line"/>
      <point x="113" y="35" type="line"/>
      <point x="1082" y="35" type="line"/>
      <point x="1180" y="133" type="line"/>
    </contour>
    <contour>
      <point x="309" y="808" type="line"/>
      <point x="309" y="999" type="line" smooth="yes"/>
      <point x="309" y="1122"/>
      <point x="479" y="1287"/>
      <point x="716" y="1293"/>
      <point x="886" y="1122"/>
      <point x="886" y="999" type="qcurve" smooth="yes"/>
      <point x="886" y="808" type="line"/>
    </contour>
    <contour>
      <point x="1082" y="710" type="line"/>
      <point x="1082" y="133" type="line"/>
      <point x="113" y="133" type="line"/>
      <point x="113" y="710" type="line"/>
    </contour>
  </outline>
</glyph>
<glyph name="close" format="2">
  <advance width="1200"/>
  <unicode hex="EA76"/>
  <note>
close
</note>
  <outline>
    <contour>
      <point x="119" y="130" type="line"/>
      <point x="600" y="618" type="line"/>
      <point x="1081" y="130" type="line"/>
      <point x="1180" y="229" type="line"/>
      <point x="692" y="710" type="line"/>
      <point x="1180" y="1191" type="line"/>
      <point x="1081" y="1290" type="line"/>
      <point x="600" y="802" type="line"/>
      <point x="119" y="1290" type="line"/>
      <point x="20" y="1191" type="line"/>
      <point x="508" y="710" type="line"/>
      <point x="20" y="229" type="line"/>
    </contour>
  </outline>
</glyph>
<glyph name="sync" format="2">
  <advance width="1200"/>
  <unicode hex="EA77"/>
  <note>
sync
</note>
  <outline>
    <contour>
      <point x="171" y="543"/>
      <point x="358" y="318"/>
      <point x="641" y="252"/>
      <point x="908" y="369"/>
      <point x="982" y="497" type="qcurve"/>
      <point x="924" y="540" type="line"/>
      <point x="866" y="431"/>
      <point x="645" y="330"/>
      <point x="408" y="381"/>
      <point x="249" y="563"/>
      <point x="237" y="683" type="qcurve"/>
      <point x="323" y="598" type="line"/>
      <point x="381" y="652" type="line"/>
      <point x="226" y="807" type="line"/>
      <point x="171" y="807" type="line"/>
      <point x="20" y="656" type="line"/>
      <point x="78" y="602" type="line"/>
      <point x="167" y="691" type="line"/>
    </contour>
    <contour>
      <point x="959" y="846"/>
      <point x="967" y="726" type="qcurve"/>
      <point x="877" y="815" type="line"/>
      <point x="819" y="761" type="line"/>
      <point x="971" y="606" type="line"/>
      <point x="1029" y="606" type="line"/>
      <point x="1180" y="757" type="line"/>
      <point x="1126" y="811" type="line"/>
      <point x="1036" y="726" type="line"/>
      <point x="1033" y="869"/>
      <point x="854" y="1094"/>
      <point x="575" y="1168"/>
      <point x="307" y="1063"/>
      <point x="229" y="939" type="qcurve"/>
      <point x="288" y="897" type="line"/>
      <point x="350" y="1001"/>
      <point x="575" y="1094"/>
      <point x="808" y="1032"/>
    </contour>
  </outline>
</glyph>
<glyph name="desktop-download" format="2">
  <advance width="1200"/>
  <unicode hex="EA78"/>
  <note>
desktop-download
</note>
  <outline>
    <contour>
      <point x="742" y="170" type="line"/>
      <point x="538" y="378" type="line"/>
      <point x="578" y="418" type="line"/>
      <point x="104" y="418" type="line"/>
      <point x="104" y="1166" type="line"/>
      <point x="1100" y="1166" type="line"/>
      <point x="1100" y="524" type="line"/>
      <point x="1180" y="440" type="line"/>
      <point x="1180" y="1206" type="line"/>
      <point x="1140" y="1250" type="line"/>
      <point x="60" y="1250" type="line"/>
      <point x="20" y="1206" type="line"/>
      <point x="20" y="378" type="line"/>
      <point x="60" y="334" type="line"/>
      <point x="436" y="334" type="line"/>
      <point x="436" y="312"/>
      <point x="427" y="298" type="qcurve" smooth="yes"/>
      <point x="418" y="276"/>
      <point x="343" y="254"/>
      <point x="268" y="254" type="qcurve"/>
      <point x="268" y="170" type="line"/>
    </contour>
    <contour>
      <point x="861" y="170" type="line"/>
      <point x="919" y="170" type="line"/>
      <point x="1127" y="378" type="line"/>
      <point x="1069" y="435" type="line"/>
      <point x="932" y="298" type="line"/>
      <point x="932" y="834" type="line"/>
      <point x="848" y="834" type="line"/>
      <point x="848" y="298" type="line"/>
      <point x="715" y="435" type="line"/>
      <point x="653" y="378" type="line"/>
    </contour>
  </outline>
</glyph>
<glyph name="beaker" format="2">
  <advance width="1200"/>
  <unicode hex="EA79"/>
  <note>
beaker
</note>
  <outline>
    <contour>
      <point x="1193" y="122"/>
      <point x="1168" y="174" type="qcurve" smooth="yes"/>
      <point x="797" y="901" type="line"/>
      <point x="797" y="1287" type="line"/>
      <point x="889" y="1287" type="line"/>
      <point x="889" y="1385" type="line"/>
      <point x="312" y="1385" type="line"/>
      <point x="312" y="1292" type="line"/>
      <point x="410" y="1292" type="line"/>
      <point x="410" y="906" type="line"/>
      <point x="29" y="174" type="line"/>
      <point x="8" y="122"/>
      <point x="65" y="35"/>
      <point x="116" y="35" type="qcurve" smooth="yes"/>
      <point x="1085" y="35" type="line" smooth="yes"/>
      <point x="1137" y="35"/>
    </contour>
    <contour>
      <point x="317" y="514" type="line"/>
      <point x="493" y="865" type="line"/>
      <point x="503" y="885" type="line"/>
      <point x="503" y="1287" type="line"/>
      <point x="699" y="1287" type="line"/>
      <point x="699" y="880" type="line"/>
      <point x="884" y="514" type="line"/>
    </contour>
    <contour>
      <point x="1085" y="128" type="line"/>
      <point x="116" y="128" type="line"/>
      <point x="266" y="421" type="line"/>
      <point x="936" y="421" type="line"/>
    </contour>
  </outline>
</glyph>
<glyph name="vm" format="2">
  <advance width="1200"/>
  <unicode hex="EA7A"/>
  <note>
vm
</note>
  <outline>
    <contour>
      <point x="1180" y="1206" type="line"/>
      <point x="1140" y="1250" type="line"/>
      <point x="60" y="1250" type="line"/>
      <point x="20" y="1206" type="line"/>
      <point x="20" y="378" type="line"/>
      <point x="60" y="334" type="line"/>
      <point x="516" y="334" type="line"/>
      <point x="516" y="254" type="line"/>
      <point x="268" y="254" type="line"/>
      <point x="268" y="170" type="line"/>
      <point x="932" y="170" type="line"/>
      <point x="932" y="254" type="line"/>
      <point x="684" y="254" type="line"/>
      <point x="684" y="334" type="line"/>
      <point x="1140" y="334" type="line"/>
      <point x="1180" y="378" type="line"/>
    </contour>
    <contour>
      <point x="1100" y="1166" type="line"/>
      <point x="1100" y="418" type="line"/>
      <point x="104" y="418" type="line"/>
      <point x="104" y="1166" type="line"/>
    </contour>
  </outline>
</glyph>
<glyph name="file" format="2">
  <advance width="1200"/>
  <unicode hex="EA7B"/>
  <note>
file
</note>
  <outline>
    <contour>
      <point x="1161" y="1014" type="line"/>
      <point x="1128" y="1089" type="line"/>
      <point x="825" y="1393" type="line"/>
      <point x="754" y="1420" type="line"/>
      <point x="142" y="1420" type="line"/>
      <point x="39" y="1322" type="line"/>
      <point x="39" y="103" type="line"/>
      <point x="142" y="0" type="line"/>
      <point x="1058" y="0" type="line"/>
      <point x="1161" y="103" type="line"/>
    </contour>
    <contour>
      <point x="1058" y="916" type="line"/>
      <point x="1058" y="103" type="line"/>
      <point x="142" y="103" type="line"/>
      <point x="142" y="1322" type="line"/>
      <point x="651" y="1322" type="line"/>
      <point x="651" y="916" type="line"/>
    </contour>
    <contour>
      <point x="1058" y="1014" type="line"/>
      <point x="754" y="1014" type="line"/>
      <point x="754" y="1322" type="line"/>
    </contour>
  </outline>
</glyph>
<glyph name="ellipsis" format="2">
  <advance width="1200"/>
  <unicode hex="EA7C"/>
  <note>
ellipsis
</note>
  <outline>
    <contour>
      <point x="211" y="751"/>
      <point x="154" y="808"/>
      <point x="72" y="808"/>
      <point x="20" y="751"/>
      <point x="20" y="669"/>
      <point x="72" y="612"/>
      <point x="154" y="612"/>
      <point x="211" y="669"/>
      <point x="211" y="710" type="qcurve" smooth="yes"/>
    </contour>
    <contour>
      <point x="695" y="751"/>
      <point x="639" y="808"/>
      <point x="556" y="808"/>
      <point x="499" y="751"/>
      <point x="499" y="669"/>
      <point x="556" y="612"/>
      <point x="639" y="612"/>
      <point x="695" y="669"/>
      <point x="695" y="710" type="qcurve" smooth="yes"/>
    </contour>
    <contour>
      <point x="1180" y="751"/>
      <point x="1123" y="808"/>
      <point x="1041" y="808"/>
      <point x="984" y="751"/>
      <point x="984" y="669"/>
      <point x="1041" y="612"/>
      <point x="1123" y="612"/>
      <point x="1180" y="669"/>
      <point x="1180" y="710" type="qcurve" smooth="yes"/>
    </contour>
  </outline>
</glyph>
<glyph name="reply" format="2">
  <advance width="1200"/>
  <unicode hex="EA7D"/>
  <note>
reply
</note>
  <outline>
    <contour>
      <point x="489" y="1245" type="line"/>
      <point x="415" y="1319" type="line"/>
      <point x="20" y="918" type="line"/>
      <point x="20" y="850" type="line"/>
      <point x="415" y="454" type="line"/>
      <point x="489" y="523" type="line"/>
      <point x="168" y="839" type="line"/>
      <point x="357" y="839" type="line" smooth="yes"/>
      <point x="563" y="839"/>
      <point x="837" y="755"/>
      <point x="922" y="670" type="qcurve" smooth="yes"/>
      <point x="1080" y="507"/>
      <point x="1080" y="133" type="qcurve" smooth="yes"/>
      <point x="1080" y="101" type="line"/>
      <point x="1180" y="101" type="line"/>
      <point x="1180" y="133" type="line" smooth="yes"/>
      <point x="1180" y="338"/>
      <point x="1090" y="639"/>
      <point x="890" y="839"/>
      <point x="574" y="939"/>
      <point x="357" y="939" type="qcurve" smooth="yes"/>
      <point x="178" y="939" type="line"/>
    </contour>
  </outline>
</glyph>
<glyph name="organization" format="2">
  <advance width="1200"/>
  <unicode hex="EA7E"/>
  <note>
organization
</note>
  <outline>
    <contour>
      <point x="751" y="1025"/>
      <point x="777" y="1162"/>
      <point x="697" y="1273"/>
      <point x="565" y="1299"/>
      <point x="507" y="1264" type="qcurve" smooth="yes"/>
      <point x="472" y="1237"/>
      <point x="427" y="1158"/>
      <point x="436" y="1069"/>
      <point x="485" y="994"/>
      <point x="565" y="954"/>
      <point x="653" y="963"/>
      <point x="693" y="989" type="qcurve" smooth="yes"/>
    </contour>
    <contour>
      <point x="671" y="1175"/>
      <point x="684" y="1109"/>
      <point x="649" y="1056"/>
      <point x="582" y="1038"/>
      <point x="556" y="1056" type="qcurve" smooth="yes"/>
      <point x="534" y="1069"/>
      <point x="511" y="1109"/>
      <point x="516" y="1153"/>
      <point x="542" y="1193"/>
      <point x="582" y="1211"/>
      <point x="627" y="1206"/>
      <point x="644" y="1193" type="qcurve" smooth="yes"/>
    </contour>
    <contour>
      <point x="813" y="1158"/>
      <point x="804" y="1042"/>
      <point x="844" y="998" type="qcurve" smooth="yes"/>
      <point x="870" y="972"/>
      <point x="945" y="958"/>
      <point x="1007" y="985"/>
      <point x="1047" y="1034"/>
      <point x="1060" y="1096"/>
      <point x="1043" y="1153"/>
      <point x="1021" y="1175" type="qcurve" smooth="yes"/>
      <point x="990" y="1206"/>
      <point x="901" y="1215"/>
      <point x="861" y="1193" type="qcurve" smooth="yes"/>
    </contour>
    <contour>
      <point x="892" y="1069"/>
      <point x="892" y="1104"/>
      <point x="914" y="1131"/>
      <point x="950" y="1131"/>
      <point x="972" y="1104"/>
      <point x="972" y="1069"/>
      <point x="950" y="1047"/>
      <point x="914" y="1047"/>
      <point x="901" y="1060" type="qcurve" smooth="yes"/>
    </contour>
    <contour>
      <point x="193" y="338"/>
      <point x="184" y="347"/>
      <point x="184" y="356" type="qcurve" smooth="yes"/>
      <point x="184" y="591" type="line"/>
      <point x="100" y="591" type="line"/>
      <point x="100" y="777" type="line" smooth="yes"/>
      <point x="100" y="799"/>
      <point x="140" y="839"/>
      <point x="166" y="839" type="qcurve" smooth="yes"/>
      <point x="272" y="839" type="line"/>
      <point x="286" y="888"/>
      <point x="317" y="923" type="qcurve"/>
      <point x="166" y="923" type="line" smooth="yes"/>
      <point x="104" y="923"/>
      <point x="20" y="834"/>
      <point x="20" y="777" type="qcurve" smooth="yes"/>
      <point x="20" y="595" type="line" smooth="yes"/>
      <point x="20" y="560"/>
      <point x="69" y="507"/>
      <point x="100" y="507" type="qcurve"/>
      <point x="100" y="356" type="line" smooth="yes"/>
      <point x="100" y="312"/>
      <point x="162" y="254"/>
      <point x="202" y="254" type="qcurve" smooth="yes"/>
      <point x="352" y="254" type="line"/>
      <point x="352" y="338" type="line"/>
      <point x="202" y="338" type="line" smooth="yes"/>
    </contour>
    <contour>
      <point x="848" y="834"/>
      <point x="808" y="879" type="qcurve" smooth="yes"/>
      <point x="764" y="923"/>
      <point x="702" y="923" type="qcurve" smooth="yes"/>
      <point x="498" y="923" type="line" smooth="yes"/>
      <point x="436" y="923"/>
      <point x="352" y="834"/>
      <point x="352" y="772" type="qcurve" smooth="yes"/>
      <point x="352" y="511" type="line" smooth="yes"/>
      <point x="352" y="476"/>
      <point x="401" y="423"/>
      <point x="436" y="423" type="qcurve"/>
      <point x="436" y="228" type="line"/>
      <point x="432" y="188"/>
      <point x="463" y="157" type="qcurve" smooth="yes"/>
      <point x="485" y="135"/>
      <point x="516" y="130" type="qcurve"/>
      <point x="684" y="130" type="line"/>
      <point x="720" y="139"/>
      <point x="768" y="192"/>
      <point x="768" y="228" type="qcurve" smooth="yes"/>
      <point x="768" y="423" type="line"/>
      <point x="799" y="423"/>
      <point x="848" y="476"/>
      <point x="848" y="511" type="qcurve" smooth="yes"/>
      <point x="848" y="777" type="line" smooth="yes"/>
    </contour>
    <contour>
      <point x="768" y="777" type="qcurve" smooth="yes"/>
      <point x="768" y="507" type="line"/>
      <point x="684" y="507" type="line"/>
      <point x="684" y="228" type="line" smooth="yes"/>
      <point x="684" y="223"/>
      <point x="675" y="215"/>
      <point x="666" y="215" type="qcurve" smooth="yes"/>
      <point x="534" y="215" type="line" smooth="yes"/>
      <point x="525" y="215"/>
      <point x="516" y="223"/>
      <point x="516" y="228" type="qcurve" smooth="yes"/>
      <point x="516" y="507" type="line"/>
      <point x="436" y="507" type="line"/>
      <point x="436" y="777" type="line"/>
      <point x="432" y="799"/>
      <point x="472" y="839"/>
      <point x="498" y="839" type="qcurve" smooth="yes"/>
      <point x="702" y="839" type="line" smooth="yes"/>
      <point x="724" y="839"/>
      <point x="755" y="817"/>
      <point x="768" y="786"/>
    </contour>
    <contour>
      <point x="1038" y="254"/>
      <point x="1100" y="312"/>
      <point x="1100" y="356" type="qcurve" smooth="yes"/>
      <point x="1100" y="507" type="line"/>
      <point x="1131" y="507"/>
      <point x="1180" y="560"/>
      <point x="1180" y="595" type="qcurve" smooth="yes"/>
      <point x="1180" y="777" type="line" smooth="yes"/>
      <point x="1180" y="834"/>
      <point x="1096" y="923"/>
      <point x="1034" y="923" type="qcurve" smooth="yes"/>
      <point x="883" y="923" type="line"/>
      <point x="914" y="888"/>
      <point x="928" y="839" type="qcurve"/>
      <point x="1034" y="839" type="line" smooth="yes"/>
      <point x="1060" y="839"/>
      <point x="1100" y="799"/>
      <point x="1100" y="777" type="qcurve" smooth="yes"/>
      <point x="1100" y="591" type="line"/>
      <point x="1016" y="591" type="line"/>
      <point x="1016" y="356" type="line" smooth="yes"/>
      <point x="1016" y="347"/>
      <point x="1003" y="338"/>
      <point x="998" y="338" type="qcurve" smooth="yes"/>
      <point x="848" y="338" type="line"/>
      <point x="848" y="254" type="line"/>
      <point x="998" y="254" type="line" smooth="yes"/>
    </contour>
    <contour>
      <point x="321" y="1215"/>
      <point x="268" y="1215" type="qcurve" smooth="yes"/>
      <point x="228" y="1215"/>
      <point x="166" y="1171"/>
      <point x="140" y="1100"/>
      <point x="153" y="1025"/>
      <point x="206" y="972"/>
      <point x="281" y="958"/>
      <point x="352" y="985"/>
      <point x="392" y="1051"/>
      <point x="392" y="1087" type="qcurve" smooth="yes"/>
      <point x="392" y="1140"/>
    </contour>
    <contour>
      <point x="286" y="1047"/>
      <point x="268" y="1047" type="qcurve" smooth="yes"/>
      <point x="250" y="1047"/>
      <point x="228" y="1069"/>
      <point x="228" y="1104"/>
      <point x="250" y="1131"/>
      <point x="286" y="1131"/>
      <point x="308" y="1104"/>
      <point x="308" y="1069"/>
    </contour>
  </outline>
</glyph>
<glyph name="new-file" format="2">
  <advance width="1200"/>
  <unicode hex="EA7F"/>
  <note>
new-file
</note>
  <outline>
    <contour>
      <point x="618" y="1332" type="line"/>
      <point x="60" y="1332" type="line"/>
      <point x="20" y="1292" type="line"/>
      <point x="20" y="296" type="line"/>
      <point x="60" y="256" type="line"/>
      <point x="432" y="256" type="line"/>
      <point x="432" y="336" type="line"/>
      <point x="100" y="336" type="line"/>
      <point x="100" y="1252" type="line"/>
      <point x="516" y="1252" type="line"/>
      <point x="516" y="920" type="line"/>
      <point x="848" y="920" type="line"/>
      <point x="848" y="836" type="line"/>
      <point x="932" y="836" type="line"/>
      <point x="932" y="1000" type="line"/>
      <point x="923" y="1035" type="line"/>
      <point x="640" y="1323" type="line"/>
    </contour>
    <contour>
      <point x="839" y="1000" type="line"/>
      <point x="600" y="1000" type="line"/>
      <point x="600" y="1252" type="line"/>
    </contour>
    <contour>
      <point x="932" y="336" type="line"/>
      <point x="1180" y="336" type="line"/>
      <point x="1180" y="420" type="line"/>
      <point x="932" y="420" type="line"/>
      <point x="932" y="668" type="line"/>
      <point x="848" y="668" type="line"/>
      <point x="848" y="420" type="line"/>
      <point x="600" y="420" type="line"/>
      <point x="600" y="336" type="line"/>
      <point x="848" y="336" type="line"/>
      <point x="848" y="88" type="line"/>
      <point x="932" y="88" type="line"/>
    </contour>
  </outline>
</glyph>
<glyph name="new-folder" format="2">
  <advance width="1200"/>
  <unicode hex="EA80"/>
  <note>
new-folder
</note>
  <outline>
    <contour>
      <point x="1102" y="1174" type="line"/>
      <point x="1064" y="1216" type="line"/>
      <point x="540" y="1216" type="line"/>
      <point x="474" y="1278" type="line"/>
      <point x="445" y="1290" type="line"/>
      <point x="57" y="1290" type="line"/>
      <point x="20" y="1253" type="line"/>
      <point x="20" y="402" type="line"/>
      <point x="57" y="361" type="line"/>
      <point x="482" y="361" type="line"/>
      <point x="482" y="440" type="line"/>
      <point x="94" y="440" type="line"/>
      <point x="94" y="906" type="line"/>
      <point x="445" y="906" type="line"/>
      <point x="470" y="914" type="line"/>
      <point x="536" y="980" type="line"/>
      <point x="1027" y="980" type="line"/>
      <point x="1023" y="828" type="line"/>
      <point x="1102" y="828" type="line"/>
    </contour>
    <contour>
      <point x="1027" y="1137" type="line"/>
      <point x="1023" y="1059" type="line"/>
      <point x="520" y="1059" type="line"/>
      <point x="495" y="1046" type="line"/>
      <point x="429" y="980" type="line"/>
      <point x="98" y="980" type="line"/>
      <point x="98" y="1212" type="line"/>
      <point x="429" y="1212" type="line"/>
      <point x="495" y="1146" type="line"/>
      <point x="524" y="1137" type="line"/>
    </contour>
    <contour>
      <point x="949" y="361" type="line"/>
      <point x="1180" y="361" type="line"/>
      <point x="1180" y="440" type="line"/>
      <point x="949" y="440" type="line"/>
      <point x="949" y="671" type="line"/>
      <point x="870" y="671" type="line"/>
      <point x="870" y="440" type="line"/>
      <point x="639" y="440" type="line"/>
      <point x="639" y="361" type="line"/>
      <point x="870" y="361" type="line"/>
      <point x="870" y="130" type="line"/>
      <point x="949" y="130" type="line"/>
    </contour>
  </outline>
</glyph>
<glyph name="trash" format="2">
  <advance width="1200"/>
  <unicode hex="EA81"/>
  <note>
trash
</note>
  <outline>
    <contour>
      <point x="865" y="1293" type="line" smooth="yes"/>
      <point x="865" y="1332"/>
      <point x="803" y="1394"/>
      <point x="758" y="1394" type="qcurve" smooth="yes"/>
      <point x="442" y="1394" type="line" smooth="yes"/>
      <point x="397" y="1394"/>
      <point x="335" y="1332"/>
      <point x="335" y="1293" type="qcurve" smooth="yes"/>
      <point x="335" y="1186" type="line"/>
      <point x="20" y="1186" type="line"/>
      <point x="20" y="1079" type="line"/>
      <point x="121" y="1079" type="line"/>
      <point x="121" y="127" type="line"/>
      <point x="228" y="26" type="line"/>
      <point x="966" y="26" type="line"/>
      <point x="1073" y="127" type="line"/>
      <point x="1073" y="1079" type="line"/>
      <point x="1180" y="1079" type="line"/>
      <point x="1180" y="1186" type="line"/>
      <point x="865" y="1186" type="line"/>
    </contour>
    <contour>
      <point x="758" y="1186" type="line"/>
      <point x="442" y="1186" type="line"/>
      <point x="442" y="1293" type="line"/>
      <point x="758" y="1293" type="line"/>
    </contour>
    <contour>
      <point x="228" y="1079" type="line"/>
      <point x="966" y="1079" type="line"/>
      <point x="966" y="127" type="line"/>
      <point x="228" y="127" type="line"/>
    </contour>
    <contour>
      <point x="442" y="234" type="line"/>
      <point x="442" y="972" type="line"/>
      <point x="335" y="972" type="line"/>
      <point x="335" y="234" type="line"/>
    </contour>
    <contour>
      <point x="544" y="234" type="line"/>
      <point x="651" y="234" type="line"/>
      <point x="651" y="972" type="line"/>
      <point x="544" y="972" type="line"/>
    </contour>
    <contour>
      <point x="758" y="234" type="line"/>
      <point x="865" y="234" type="line"/>
      <point x="865" y="972" type="line"/>
      <point x="758" y="972" type="line"/>
    </contour>
  </outline>
</glyph>
<glyph name="history" format="2">
  <advance width="1200"/>
  <unicode hex="EA82"/>
  <note>
history
</note>
  <outline>
    <contour>
      <point x="968" y="237"/>
      <point x="1057" y="352" type="qcurve" smooth="yes"/>
      <point x="1136" y="454"/>
      <point x="1194" y="706"/>
      <point x="1141" y="959"/>
      <point x="1061" y="1061" type="qcurve" smooth="yes"/>
      <point x="977" y="1176"/>
      <point x="711" y="1300"/>
      <point x="423" y="1282"/>
      <point x="175" y="1136"/>
      <point x="104" y="1012" type="qcurve"/>
      <point x="104" y="1211" type="line"/>
      <point x="20" y="1211" type="line"/>
      <point x="20" y="919" type="line"/>
      <point x="60" y="879" type="line"/>
      <point x="352" y="879" type="line"/>
      <point x="352" y="959" type="line"/>
      <point x="171" y="959" type="line"/>
      <point x="255" y="1109"/>
      <point x="574" y="1238"/>
      <point x="901" y="1145"/>
      <point x="1105" y="870"/>
      <point x="1096" y="529"/>
      <point x="879" y="263"/>
      <point x="547" y="184"/>
      <point x="237" y="330"/>
      <point x="157" y="480" type="qcurve"/>
      <point x="86" y="440" type="line"/>
      <point x="153" y="312"/>
      <point x="401" y="144"/>
      <point x="693" y="117"/>
    </contour>
    <contour>
      <point x="529" y="680" type="line"/>
      <point x="777" y="432" type="line"/>
      <point x="839" y="489" type="line"/>
      <point x="600" y="728" type="line"/>
      <point x="600" y="1043" type="line"/>
      <point x="516" y="1043" type="line"/>
      <point x="516" y="711" type="line"/>
    </contour>
  </outline>
</glyph>
<glyph name="folder" format="2">
  <advance width="1200"/>
  <unicode hex="EA83"/>
  <note>
folder
</note>
  <outline>
    <contour>
      <point x="1180" y="1080" type="line"/>
      <point x="1140" y="1124" type="line"/>
      <point x="578" y="1124" type="line"/>
      <point x="507" y="1195" type="line"/>
      <point x="476" y="1208" type="line"/>
      <point x="60" y="1208" type="line"/>
      <point x="20" y="1164" type="line"/>
      <point x="20" y="252" type="line"/>
      <point x="60" y="212" type="line"/>
      <point x="1140" y="212" type="line"/>
      <point x="1180" y="252" type="line"/>
    </contour>
    <contour>
      <point x="1100" y="876" type="line"/>
      <point x="1096" y="420" type="line"/>
      <point x="1096" y="292" type="line"/>
      <point x="100" y="292" type="line"/>
      <point x="100" y="792" type="line"/>
      <point x="476" y="792" type="line"/>
      <point x="503" y="805" type="line"/>
      <point x="573" y="876" type="line"/>
    </contour>
    <contour>
      <point x="1100" y="1040" type="line"/>
      <point x="1096" y="956" type="line"/>
      <point x="556" y="956" type="line"/>
      <point x="529" y="942" type="line"/>
      <point x="458" y="872" type="line"/>
      <point x="104" y="872" type="line"/>
      <point x="104" y="1124" type="line"/>
      <point x="458" y="1124" type="line"/>
      <point x="529" y="1053" type="line"/>
      <point x="560" y="1040" type="line"/>
    </contour>
  </outline>
</glyph>
<glyph name="github" format="2">
  <advance width="1200"/>
  <unicode hex="EA84"/>
  <note>
github
</note>
  <outline>
    <contour>
      <point x="759" y="1290"/>
      <point x="600" y="1290" type="qcurve" smooth="yes"/>
      <point x="441" y="1290"/>
      <point x="175" y="1135"/>
      <point x="20" y="869"/>
      <point x="20" y="551"/>
      <point x="175" y="285"/>
      <point x="441" y="130"/>
      <point x="759" y="130"/>
      <point x="1025" y="285"/>
      <point x="1180" y="551"/>
      <point x="1180" y="869"/>
      <point x="1025" y="1135"/>
    </contour>
    <contour>
      <point x="755" y="238" type="qcurve"/>
      <point x="755" y="238" type="line"/>
      <point x="747" y="238" type="line" smooth="yes"/>
      <point x="739" y="238"/>
      <point x="724" y="250"/>
      <point x="724" y="261" type="qcurve" smooth="yes"/>
      <point x="724" y="397" type="line" smooth="yes"/>
      <point x="724" y="424"/>
      <point x="708" y="474"/>
      <point x="689" y="490" type="qcurve"/>
      <point x="739" y="493"/>
      <point x="828" y="528"/>
      <point x="890" y="590"/>
      <point x="902" y="633" type="qcurve" smooth="yes"/>
      <point x="917" y="683"/>
      <point x="917" y="737" type="qcurve" smooth="yes"/>
      <point x="917" y="772"/>
      <point x="890" y="841"/>
      <point x="867" y="869" type="qcurve"/>
      <point x="871" y="884"/>
      <point x="875" y="911"/>
      <point x="875" y="946"/>
      <point x="867" y="981"/>
      <point x="859" y="1000" type="qcurve"/>
      <point x="851" y="1000" type="line" smooth="yes"/>
      <point x="832" y="1000"/>
      <point x="801" y="992"/>
      <point x="786" y="985" type="qcurve" smooth="yes"/>
      <point x="751" y="965" type="line"/>
      <point x="724" y="950" type="line"/>
      <point x="600" y="985"/>
      <point x="476" y="950" type="qcurve"/>
      <point x="449" y="965" type="line"/>
      <point x="414" y="985" type="line" smooth="yes"/>
      <point x="399" y="992"/>
      <point x="364" y="1000"/>
      <point x="349" y="1000" type="qcurve" smooth="yes"/>
      <point x="337" y="1000" type="line"/>
      <point x="333" y="981"/>
      <point x="325" y="946"/>
      <point x="325" y="911"/>
      <point x="329" y="884"/>
      <point x="333" y="869" type="qcurve"/>
      <point x="310" y="841"/>
      <point x="283" y="772"/>
      <point x="283" y="737" type="qcurve" smooth="yes"/>
      <point x="283" y="683"/>
      <point x="298" y="633" type="qcurve" smooth="yes"/>
      <point x="310" y="590"/>
      <point x="372" y="528"/>
      <point x="457" y="493"/>
      <point x="507" y="490" type="qcurve"/>
      <point x="496" y="478"/>
      <point x="480" y="443"/>
      <point x="476" y="424" type="qcurve"/>
      <point x="449" y="412"/>
      <point x="391" y="408"/>
      <point x="349" y="439"/>
      <point x="333" y="466" type="qcurve"/>
      <point x="318" y="482" type="line"/>
      <point x="302" y="501" type="line"/>
      <point x="291" y="505"/>
      <point x="267" y="517"/>
      <point x="256" y="517" type="qcurve" smooth="yes"/>
      <point x="237" y="513" type="line"/>
      <point x="233" y="509"/>
      <point x="233" y="501"/>
      <point x="240" y="493" type="qcurve" smooth="yes"/>
      <point x="271" y="470" type="line" smooth="yes"/>
      <point x="279" y="463"/>
      <point x="287" y="455" type="qcurve"/>
      <point x="310" y="412" type="line"/>
      <point x="322" y="377"/>
      <point x="387" y="339"/>
      <point x="426" y="343" type="qcurve" smooth="yes"/>
      <point x="449" y="343" type="line"/>
      <point x="476" y="347" type="line"/>
      <point x="476" y="261" type="line" smooth="yes"/>
      <point x="476" y="250"/>
      <point x="461" y="238"/>
      <point x="449" y="238" type="qcurve" smooth="yes"/>
      <point x="445" y="238" type="line"/>
      <point x="333" y="273"/>
      <point x="163" y="443"/>
      <point x="90" y="667"/>
      <point x="128" y="907"/>
      <point x="267" y="1101"/>
      <point x="480" y="1209"/>
      <point x="720" y="1209"/>
      <point x="933" y="1101"/>
      <point x="1072" y="907"/>
      <point x="1110" y="667"/>
      <point x="1037" y="443"/>
      <point x="867" y="273"/>
    </contour>
  </outline>
</glyph>
<glyph name="terminal" format="2">
  <advance width="1200"/>
  <unicode hex="EA85"/>
  <note>
terminal
</note>
  <outline>
    <contour>
      <point x="1100" y="1290" type="line"/>
      <point x="104" y="1290" type="line"/>
      <point x="20" y="1210" type="line"/>
      <point x="20" y="214" type="line"/>
      <point x="104" y="130" type="line"/>
      <point x="1100" y="130" type="line"/>
      <point x="1180" y="214" type="line"/>
      <point x="1180" y="1210" type="line"/>
    </contour>
    <contour>
      <point x="1100" y="214" type="line"/>
      <point x="104" y="214" type="line"/>
      <point x="104" y="1210" type="line"/>
      <point x="1100" y="1210" type="line"/>
    </contour>
    <contour>
      <point x="671" y="688" type="line"/>
      <point x="414" y="435" type="line"/>
      <point x="472" y="374" type="line"/>
      <point x="764" y="666" type="line"/>
      <point x="764" y="714" type="line"/>
      <point x="472" y="1007" type="line"/>
      <point x="414" y="949" type="line"/>
    </contour>
  </outline>
</glyph>
<glyph name="symbol-event" format="2">
  <advance width="1200"/>
  <unicode hex="EA86"/>
  <note>
symbol-event
</note>
  <outline>
    <contour>
      <point x="156" y="656" type="line"/>
      <point x="248" y="509" type="line"/>
      <point x="372" y="509" type="line"/>
      <point x="156" y="119" type="line"/>
      <point x="318" y="0" type="line"/>
      <point x="1044" y="743" type="line"/>
      <point x="969" y="916" type="line"/>
      <point x="790" y="916" type="line"/>
      <point x="1012" y="1263" type="line"/>
      <point x="931" y="1420" type="line"/>
      <point x="595" y="1420" type="line"/>
      <point x="502" y="1366" type="line"/>
    </contour>
    <contour>
      <point x="248" y="607" type="line"/>
      <point x="595" y="1322" type="line"/>
      <point x="931" y="1322" type="line"/>
      <point x="595" y="813" type="line"/>
      <point x="969" y="813" type="line"/>
      <point x="248" y="70" type="line"/>
      <point x="540" y="607" type="line"/>
    </contour>
  </outline>
</glyph>
<glyph name="symbol-variable" format="2">
  <advance width="1200"/>
  <unicode hex="EA88"/>
  <note>
symbol-variable
</note>
  <outline>
    <contour>
      <point x="104" y="420" type="line"/>
      <point x="104" y="1000" type="line"/>
      <point x="268" y="1000" type="line"/>
      <point x="268" y="1084" type="line"/>
      <point x="60" y="1084" type="line"/>
      <point x="20" y="1044" type="line"/>
      <point x="20" y="380" type="line"/>
      <point x="60" y="336" type="line"/>
      <point x="268" y="336" type="line"/>
      <point x="268" y="420" type="line"/>
    </contour>
    <contour>
      <point x="1180" y="1044" type="line"/>
      <point x="1140" y="1084" type="line"/>
      <point x="932" y="1084" type="line"/>
      <point x="932" y="1000" type="line"/>
      <point x="1100" y="1000" type="line"/>
      <point x="1100" y="420" type="line"/>
      <point x="932" y="420" type="line"/>
      <point x="932" y="336" type="line"/>
      <point x="1140" y="336" type="line"/>
      <point x="1180" y="380" type="line"/>
    </contour>
    <contour>
      <point x="706" y="996" type="line"/>
      <point x="666" y="996" type="line"/>
      <point x="295" y="827" type="line"/>
      <point x="268" y="792" type="line"/>
      <point x="268" y="584" type="line"/>
      <point x="290" y="548" type="line"/>
      <point x="494" y="424" type="line"/>
      <point x="534" y="424" type="line"/>
      <point x="905" y="588" type="line"/>
      <point x="932" y="628" type="line"/>
      <point x="932" y="836" type="line"/>
      <point x="914" y="872" type="line"/>
    </contour>
    <contour>
      <point x="352" y="721" type="line"/>
      <point x="476" y="646" type="line"/>
      <point x="476" y="535" type="line"/>
      <point x="352" y="610" type="line"/>
    </contour>
    <contour>
      <point x="680" y="911" type="line"/>
      <point x="799" y="841" type="line"/>
      <point x="520" y="717" type="line"/>
      <point x="401" y="787" type="line"/>
    </contour>
    <contour>
      <point x="560" y="641" type="line"/>
      <point x="852" y="770" type="line"/>
      <point x="852" y="655" type="line"/>
      <point x="560" y="526" type="line"/>
    </contour>
  </outline>
</glyph>
<glyph name="symbol-array" format="2">
  <advance width="1200"/>
  <unicode hex="EA8A"/>
  <note>
symbol-array
</note>
  <outline>
    <contour>
      <point x="268" y="1208" type="line"/>
      <point x="60" y="1208" type="line"/>
      <point x="20" y="1164" type="line"/>
      <point x="20" y="252" type="line"/>
      <point x="60" y="212" type="line"/>
      <point x="268" y="212" type="line"/>
      <point x="268" y="292" type="line"/>
      <point x="104" y="292" type="line"/>
      <point x="104" y="1124" type="line"/>
      <point x="268" y="1124" type="line"/>
    </contour>
    <contour>
      <point x="932" y="212" type="line"/>
      <point x="1140" y="212" type="line"/>
      <point x="1180" y="252" type="line"/>
      <point x="1180" y="1164" type="line"/>
      <point x="1140" y="1208" type="line"/>
      <point x="932" y="1208" type="line"/>
      <point x="932" y="1124" type="line"/>
      <point x="1100" y="1124" type="line"/>
      <point x="1100" y="292" type="line"/>
      <point x="932" y="292" type="line"/>
    </contour>
  </outline>
</glyph>
<glyph name="symbol-namespace" format="2">
  <advance width="1200"/>
  <unicode hex="EA8B"/>
  <note>
symbol-namespace
</note>
  <outline>
    <contour>
      <point x="396" y="1195" type="qcurve" smooth="yes"/>
      <point x="407" y="1195" type="line"/>
      <point x="407" y="1293" type="line"/>
      <point x="396" y="1293" type="line" smooth="yes"/>
      <point x="350" y="1293"/>
      <point x="262" y="1256"/>
      <point x="200" y="1189"/>
      <point x="185" y="1148" type="qcurve"/>
      <point x="185" y="1148" type="line"/>
      <point x="170" y="1107"/>
      <point x="164" y="1066" type="qcurve"/>
      <point x="164" y="1066" type="line"/>
      <point x="159" y="1024"/>
      <point x="164" y="983" type="qcurve" smooth="yes"/>
      <point x="164" y="901" type="line" smooth="yes"/>
      <point x="164" y="870"/>
      <point x="154" y="844" type="qcurve"/>
      <point x="154" y="844" type="line"/>
      <point x="133" y="792"/>
      <point x="82" y="767" type="qcurve" smooth="yes"/>
      <point x="56" y="756"/>
      <point x="25" y="756" type="qcurve" smooth="yes"/>
      <point x="20" y="756" type="line"/>
      <point x="20" y="664" type="line"/>
      <point x="25" y="664" type="line" smooth="yes"/>
      <point x="56" y="664"/>
      <point x="82" y="653" type="qcurve"/>
      <point x="82" y="648" type="line"/>
      <point x="108" y="638"/>
      <point x="123" y="622" type="qcurve"/>
      <point x="123" y="617" type="line"/>
      <point x="144" y="602"/>
      <point x="154" y="576" type="qcurve"/>
      <point x="154" y="576" type="line"/>
      <point x="164" y="550"/>
      <point x="164" y="519" type="qcurve" smooth="yes"/>
      <point x="164" y="437" type="line" smooth="yes"/>
      <point x="159" y="396"/>
      <point x="164" y="354" type="qcurve" smooth="yes"/>
      <point x="164" y="349" type="line" smooth="yes"/>
      <point x="170" y="313"/>
      <point x="185" y="272" type="qcurve"/>
      <point x="185" y="272" type="line"/>
      <point x="200" y="231"/>
      <point x="267" y="164"/>
      <point x="350" y="133"/>
      <point x="396" y="127" type="qcurve" smooth="yes"/>
      <point x="407" y="127" type="line"/>
      <point x="407" y="225" type="line"/>
      <point x="396" y="225" type="line" smooth="yes"/>
      <point x="365" y="225"/>
      <point x="314" y="246"/>
      <point x="278" y="287"/>
      <point x="257" y="339"/>
      <point x="257" y="370" type="qcurve" smooth="yes"/>
      <point x="257" y="499" type="line" smooth="yes"/>
      <point x="257" y="530"/>
      <point x="247" y="591"/>
      <point x="237" y="617" type="qcurve" smooth="yes"/>
      <point x="211" y="674"/>
      <point x="164" y="710" type="qcurve"/>
      <point x="211" y="746"/>
      <point x="237" y="803" type="qcurve" smooth="yes"/>
      <point x="247" y="829"/>
      <point x="257" y="890"/>
      <point x="257" y="921" type="qcurve" smooth="yes"/>
      <point x="257" y="1050" type="line" smooth="yes"/>
      <point x="257" y="1097"/>
      <point x="304" y="1164"/>
      <point x="340" y="1184" type="qcurve" smooth="yes"/>
      <point x="365" y="1195"/>
    </contour>
    <contour>
      <point x="798" y="225" type="qcurve" smooth="yes"/>
      <point x="793" y="225" type="line"/>
      <point x="793" y="133" type="line"/>
      <point x="798" y="133" type="line" smooth="yes"/>
      <point x="845" y="133"/>
      <point x="927" y="164"/>
      <point x="994" y="231"/>
      <point x="1010" y="272" type="qcurve"/>
      <point x="1010" y="272" type="line"/>
      <point x="1025" y="308"/>
      <point x="1030" y="354" type="qcurve"/>
      <point x="1030" y="354" type="line"/>
      <point x="1036" y="396"/>
      <point x="1030" y="437" type="qcurve" smooth="yes"/>
      <point x="1030" y="519" type="line" smooth="yes"/>
      <point x="1030" y="550"/>
      <point x="1041" y="576" type="qcurve"/>
      <point x="1041" y="576" type="line"/>
      <point x="1061" y="628"/>
      <point x="1113" y="653" type="qcurve" smooth="yes"/>
      <point x="1139" y="664"/>
      <point x="1170" y="664" type="qcurve" smooth="yes"/>
      <point x="1180" y="664" type="line"/>
      <point x="1180" y="756" type="line"/>
      <point x="1170" y="756" type="line" smooth="yes"/>
      <point x="1139" y="756"/>
      <point x="1113" y="767" type="qcurve"/>
      <point x="1113" y="772" type="line"/>
      <point x="1087" y="782"/>
      <point x="1072" y="798" type="qcurve"/>
      <point x="1072" y="803" type="line"/>
      <point x="1051" y="818"/>
      <point x="1041" y="844" type="qcurve"/>
      <point x="1041" y="844" type="line"/>
      <point x="1030" y="870"/>
      <point x="1030" y="901" type="qcurve" smooth="yes"/>
      <point x="1030" y="983" type="line" smooth="yes"/>
      <point x="1036" y="1024"/>
      <point x="1030" y="1066" type="qcurve" smooth="yes"/>
      <point x="1030" y="1071" type="line" smooth="yes"/>
      <point x="1025" y="1107"/>
      <point x="1010" y="1148" type="qcurve"/>
      <point x="1010" y="1148" type="line"/>
      <point x="994" y="1189"/>
      <point x="933" y="1256"/>
      <point x="845" y="1293"/>
      <point x="798" y="1287" type="qcurve" smooth="yes"/>
      <point x="793" y="1287" type="line"/>
      <point x="793" y="1195" type="line"/>
      <point x="798" y="1195" type="line" smooth="yes"/>
      <point x="829" y="1195"/>
      <point x="881" y="1174"/>
      <point x="917" y="1133"/>
      <point x="938" y="1081"/>
      <point x="938" y="1050" type="qcurve" smooth="yes"/>
      <point x="938" y="921" type="line" smooth="yes"/>
      <point x="938" y="890"/>
      <point x="948" y="829"/>
      <point x="958" y="803" type="qcurve" smooth="yes"/>
      <point x="984" y="746"/>
      <point x="1030" y="710" type="qcurve"/>
      <point x="984" y="674"/>
      <point x="958" y="617" type="qcurve" smooth="yes"/>
      <point x="948" y="591"/>
      <point x="938" y="530"/>
      <point x="938" y="499" type="qcurve" smooth="yes"/>
      <point x="938" y="370" type="line" smooth="yes"/>
      <point x="938" y="308"/>
      <point x="896" y="267" type="qcurve" smooth="yes"/>
      <point x="881" y="246"/>
      <point x="829" y="225"/>
    </contour>
  </outline>
</glyph>
<glyph name="symbol-method" format="2">
  <advance width="1200"/>
  <unicode hex="EA8C"/>
  <note>
symbol-method
</note>
  <outline>
    <contour>
      <point x="1180" y="1001" type="line"/>
      <point x="1128" y="1084" type="line"/>
      <point x="649" y="1372" type="line"/>
      <point x="551" y="1372" type="line"/>
      <point x="66" y="1084" type="line"/>
      <point x="20" y="1001" type="line"/>
      <point x="20" y="419" type="line"/>
      <point x="66" y="336" type="line"/>
      <point x="551" y="48" type="line"/>
      <point x="649" y="48" type="line"/>
      <point x="1128" y="336" type="line"/>
      <point x="1180" y="419" type="line"/>
    </contour>
    <contour>
      <point x="551" y="682" type="line"/>
      <point x="551" y="161" type="line"/>
      <point x="113" y="419" type="line"/>
      <point x="113" y="919" type="line"/>
    </contour>
    <contour>
      <point x="597" y="764" type="line"/>
      <point x="139" y="1017" type="line"/>
      <point x="597" y="1290" type="line"/>
      <point x="1056" y="1017" type="line"/>
    </contour>
    <contour>
      <point x="1082" y="919" type="line"/>
      <point x="1082" y="419" type="line"/>
      <point x="649" y="161" type="line"/>
      <point x="649" y="682" type="line"/>
    </contour>
  </outline>
</glyph>
<glyph name="symbol-boolean" format="2">
  <advance width="1200"/>
  <unicode hex="EA8F"/>
  <note>
symbol-boolean
</note>
  <outline>
    <contour>
      <point x="20" y="338" type="line"/>
      <point x="60" y="294" type="line"/>
      <point x="1140" y="294" type="line"/>
      <point x="1180" y="338" type="line"/>
      <point x="1180" y="1082" type="line"/>
      <point x="1140" y="1126" type="line"/>
      <point x="60" y="1126" type="line"/>
      <point x="20" y="1082" type="line"/>
    </contour>
    <contour>
      <point x="1100" y="378" type="line"/>
      <point x="600" y="378" type="line"/>
      <point x="600" y="666" type="line"/>
      <point x="923" y="666" type="line"/>
      <point x="751" y="493" type="line"/>
      <point x="808" y="435" type="line"/>
      <point x="1052" y="679" type="line"/>
      <point x="1052" y="741" type="line"/>
      <point x="808" y="985" type="line"/>
      <point x="751" y="927" type="line"/>
      <point x="923" y="750" type="line"/>
      <point x="600" y="750" type="line"/>
      <point x="600" y="670" type="line"/>
      <point x="259" y="670" type="line"/>
      <point x="436" y="493" type="line"/>
      <point x="379" y="435" type="line"/>
      <point x="131" y="679" type="line"/>
      <point x="131" y="741" type="line"/>
      <point x="379" y="985" type="line"/>
      <point x="436" y="927" type="line"/>
      <point x="264" y="754" type="line"/>
      <point x="600" y="754" type="line"/>
      <point x="600" y="1042" type="line"/>
      <point x="1100" y="1042" type="line"/>
    </contour>
  </outline>
</glyph>
<glyph name="symbol-numeric" format="2">
  <advance width="1200"/>
  <unicode hex="EA90"/>
  <note>
symbol-numeric
</note>
  <outline>
    <contour>
      <point x="768" y="1290" type="line"/>
      <point x="768" y="958" type="line"/>
      <point x="436" y="958" type="line"/>
      <point x="436" y="1290" type="line"/>
      <point x="352" y="1290" type="line"/>
      <point x="352" y="958" type="line"/>
      <point x="20" y="958" type="line"/>
      <point x="20" y="878" type="line"/>
      <point x="352" y="878" type="line"/>
      <point x="352" y="546" type="line"/>
      <point x="20" y="546" type="line"/>
      <point x="20" y="462" type="line"/>
      <point x="352" y="462" type="line"/>
      <point x="352" y="130" type="line"/>
      <point x="436" y="130" type="line"/>
      <point x="436" y="462" type="line"/>
      <point x="768" y="462" type="line"/>
      <point x="768" y="130" type="line"/>
      <point x="848" y="130" type="line"/>
      <point x="848" y="462" type="line"/>
      <point x="1180" y="462" type="line"/>
      <point x="1180" y="546" type="line"/>
      <point x="848" y="546" type="line"/>
      <point x="848" y="878" type="line"/>
      <point x="1180" y="878" type="line"/>
      <point x="1180" y="958" type="line"/>
      <point x="848" y="958" type="line"/>
      <point x="848" y="1290" type="line"/>
    </contour>
    <contour>
      <point x="768" y="878" type="line"/>
      <point x="768" y="546" type="line"/>
      <point x="436" y="546" type="line"/>
      <point x="436" y="878" type="line"/>
    </contour>
  </outline>
</glyph>
<glyph name="symbol-structure" format="2">
  <advance width="1200"/>
  <unicode hex="EA91"/>
  <note>
symbol-structure
</note>
  <outline>
    <contour>
      <point x="1100" y="1208" type="line"/>
      <point x="104" y="1208" type="line"/>
      <point x="20" y="1124" type="line"/>
      <point x="20" y="876" type="line"/>
      <point x="104" y="792" type="line"/>
      <point x="1100" y="792" type="line"/>
      <point x="1180" y="876" type="line"/>
      <point x="1180" y="1124" type="line"/>
    </contour>
    <contour>
      <point x="104" y="876" type="line"/>
      <point x="104" y="1124" type="line"/>
      <point x="1100" y="1124" type="line"/>
      <point x="1100" y="876" type="line"/>
    </contour>
    <contour>
      <point x="20" y="292" type="line"/>
      <point x="104" y="212" type="line"/>
      <point x="352" y="212" type="line"/>
      <point x="436" y="292" type="line"/>
      <point x="436" y="544" type="line"/>
      <point x="352" y="624" type="line"/>
      <point x="104" y="624" type="line"/>
      <point x="20" y="544" type="line"/>
    </contour>
    <contour>
      <point x="352" y="544" type="line"/>
      <point x="352" y="292" type="line"/>
      <point x="104" y="292" type="line"/>
      <point x="104" y="544" type="line"/>
      <point x="184" y="544" type="line"/>
    </contour>
    <contour>
      <point x="768" y="292" type="line"/>
      <point x="848" y="212" type="line"/>
      <point x="1100" y="212" type="line"/>
      <point x="1180" y="292" type="line"/>
      <point x="1180" y="544" type="line"/>
      <point x="1100" y="624" type="line"/>
      <point x="848" y="624" type="line"/>
      <point x="768" y="544" type="line"/>
    </contour>
    <contour>
      <point x="1100" y="544" type="line"/>
      <point x="1100" y="292" type="line"/>
      <point x="848" y="292" type="line"/>
      <point x="848" y="544" type="line"/>
      <point x="932" y="544" type="line"/>
    </contour>
  </outline>
</glyph>
<glyph name="symbol-parameter" format="2">
  <advance width="1200"/>
  <unicode hex="EA92"/>
  <note>
symbol-parameter
</note>
  <outline>
    <contour>
      <point x="848" y="1042" type="line"/>
      <point x="352" y="1042" type="line"/>
      <point x="352" y="878" type="line"/>
      <point x="432" y="878" type="line"/>
      <point x="432" y="918" type="line"/>
      <point x="436" y="936"/>
      <point x="458" y="958"/>
      <point x="476" y="958" type="qcurve" smooth="yes"/>
      <point x="556" y="958" type="line"/>
      <point x="556" y="502" type="line" smooth="yes"/>
      <point x="556" y="484"/>
      <point x="534" y="462"/>
      <point x="516" y="462" type="qcurve" smooth="yes"/>
      <point x="472" y="462" type="line"/>
      <point x="472" y="378" type="line"/>
      <point x="724" y="378" type="line"/>
      <point x="724" y="462" type="line"/>
      <point x="680" y="462" type="line" smooth="yes"/>
      <point x="662" y="462"/>
      <point x="640" y="484"/>
      <point x="640" y="502" type="qcurve" smooth="yes"/>
      <point x="640" y="958" type="line"/>
      <point x="724" y="958" type="line" smooth="yes"/>
      <point x="742" y="958"/>
      <point x="768" y="936"/>
      <point x="768" y="918" type="qcurve" smooth="yes"/>
      <point x="768" y="878" type="line"/>
      <point x="848" y="878" type="line"/>
    </contour>
    <contour>
      <point x="972" y="590" type="line"/>
      <point x="1034" y="528" type="line"/>
      <point x="1180" y="675" type="line"/>
      <point x="1180" y="737" type="line"/>
      <point x="1029" y="887" type="line"/>
      <point x="967" y="830" type="line"/>
      <point x="1091" y="706" type="line"/>
    </contour>
    <contour>
      <point x="171" y="528" type="line"/>
      <point x="233" y="590" type="line"/>
      <point x="109" y="710" type="line"/>
      <point x="228" y="830" type="line"/>
      <point x="166" y="887" type="line"/>
      <point x="20" y="741" type="line"/>
      <point x="20" y="679" type="line"/>
    </contour>
  </outline>
</glyph>
<glyph name="symbol-key" format="2">
  <advance width="1200"/>
  <unicode hex="EA93"/>
  <note>
symbol-key
</note>
  <outline>
    <contour>
      <point x="516" y="426" type="line"/>
      <point x="534" y="412" type="line" smooth="yes"/>
      <point x="578" y="386"/>
      <point x="666" y="390"/>
      <point x="746" y="426"/>
      <point x="773" y="461" type="qcurve" smooth="yes"/>
      <point x="830" y="536"/>
      <point x="826" y="634" type="qcurve" smooth="yes"/>
      <point x="830" y="722"/>
      <point x="777" y="789" type="qcurve" smooth="yes"/>
      <point x="751" y="820"/>
      <point x="680" y="851"/>
      <point x="640" y="851" type="qcurve" smooth="yes"/>
      <point x="569" y="851"/>
      <point x="516" y="802" type="qcurve"/>
      <point x="516" y="1032" type="line"/>
      <point x="432" y="1032" type="line"/>
      <point x="432" y="399" type="line"/>
      <point x="516" y="399" type="line"/>
    </contour>
    <contour>
      <point x="565" y="753"/>
      <point x="587" y="762" type="qcurve" smooth="yes"/>
      <point x="609" y="775"/>
      <point x="635" y="771" type="qcurve"/>
      <point x="684" y="775"/>
      <point x="711" y="736" type="qcurve" smooth="yes"/>
      <point x="742" y="691"/>
      <point x="742" y="634" type="qcurve" smooth="yes"/>
      <point x="746" y="567"/>
      <point x="706" y="510" type="qcurve" smooth="yes"/>
      <point x="693" y="492"/>
      <point x="653" y="465"/>
      <point x="627" y="470" type="qcurve"/>
      <point x="578" y="465"/>
      <point x="511" y="541"/>
      <point x="516" y="589" type="qcurve" smooth="yes"/>
      <point x="516" y="638" type="line" smooth="yes"/>
      <point x="511" y="691"/>
      <point x="547" y="736" type="qcurve" smooth="yes"/>
    </contour>
    <contour>
      <point x="277" y="851"/>
      <point x="210" y="851" type="qcurve" smooth="yes"/>
      <point x="171" y="846"/>
      <point x="95" y="824"/>
      <point x="64" y="802" type="qcurve" smooth="yes"/>
      <point x="55" y="798" type="line"/>
      <point x="55" y="696" type="line"/>
      <point x="91" y="727" type="line" smooth="yes"/>
      <point x="140" y="771"/>
      <point x="206" y="775" type="qcurve" smooth="yes"/>
      <point x="237" y="775"/>
      <point x="277" y="722"/>
      <point x="277" y="687" type="qcurve"/>
      <point x="175" y="669" type="line" smooth="yes"/>
      <point x="113" y="665"/>
      <point x="20" y="585"/>
      <point x="20" y="470"/>
      <point x="104" y="390"/>
      <point x="166" y="390" type="qcurve" smooth="yes"/>
      <point x="215" y="390"/>
      <point x="255" y="417" type="qcurve" smooth="yes"/>
      <point x="281" y="439" type="line"/>
      <point x="281" y="399" type="line"/>
      <point x="356" y="399" type="line"/>
      <point x="356" y="678" type="line" smooth="yes"/>
      <point x="361" y="749"/>
    </contour>
    <contour>
      <point x="281" y="612" type="line"/>
      <point x="281" y="598" type="line" smooth="yes"/>
      <point x="281" y="541"/>
      <point x="215" y="465"/>
      <point x="166" y="465" type="qcurve" smooth="yes"/>
      <point x="140" y="465"/>
      <point x="100" y="501"/>
      <point x="100" y="554"/>
      <point x="117" y="572" type="qcurve"/>
      <point x="153" y="594"/>
      <point x="197" y="598" type="qcurve" smooth="yes"/>
    </contour>
    <contour>
      <point x="932" y="421"/>
      <point x="972" y="403" type="qcurve" smooth="yes"/>
      <point x="1007" y="386"/>
      <point x="1052" y="390" type="qcurve"/>
      <point x="1114" y="386"/>
      <point x="1167" y="421" type="qcurve"/>
      <point x="1180" y="426" type="line"/>
      <point x="1180" y="523" type="line"/>
      <point x="1140" y="496" type="line" smooth="yes"/>
      <point x="1100" y="465"/>
      <point x="998" y="465"/>
      <point x="928" y="554"/>
      <point x="928" y="678"/>
      <point x="1007" y="775"/>
      <point x="1065" y="771" type="qcurve" smooth="yes"/>
      <point x="1109" y="771"/>
      <point x="1145" y="749" type="qcurve" smooth="yes"/>
      <point x="1180" y="727" type="line"/>
      <point x="1180" y="824" type="line"/>
      <point x="1167" y="829" type="line" smooth="yes"/>
      <point x="1122" y="851"/>
      <point x="1025" y="851"/>
      <point x="941" y="815"/>
      <point x="910" y="784" type="qcurve" smooth="yes"/>
      <point x="844" y="709"/>
      <point x="844" y="523"/>
      <point x="905" y="452" type="qcurve" smooth="yes"/>
    </contour>
  </outline>
</glyph>
<glyph name="go-to-file" format="2">
  <advance width="1200"/>
  <unicode hex="EA94"/>
  <note>
go-to-file
</note>
  <outline>
    <contour>
      <point x="400" y="867" type="line"/>
      <point x="408" y="871" type="line"/>
      <point x="565" y="1032" type="line"/>
      <point x="565" y="1086" type="line"/>
      <point x="400" y="1251" type="line"/>
      <point x="346" y="1197" type="line"/>
      <point x="445" y="1098" type="line"/>
      <point x="214" y="1098" type="line" smooth="yes"/>
      <point x="131" y="1098"/>
      <point x="20" y="982"/>
      <point x="20" y="821"/>
      <point x="131" y="710"/>
      <point x="214" y="710" type="qcurve" smooth="yes"/>
      <point x="251" y="710" type="line"/>
      <point x="251" y="788" type="line"/>
      <point x="214" y="788" type="line" smooth="yes"/>
      <point x="164" y="788"/>
      <point x="98" y="854"/>
      <point x="94" y="954"/>
      <point x="164" y="1020"/>
      <point x="214" y="1020" type="qcurve" smooth="yes"/>
      <point x="445" y="1020" type="line"/>
      <point x="346" y="921" type="line"/>
    </contour>
    <contour>
      <point x="792" y="867" type="line"/>
      <point x="1102" y="867" type="line"/>
      <point x="1102" y="248" type="line"/>
      <point x="408" y="248" type="line"/>
      <point x="408" y="760" type="line"/>
      <point x="330" y="826" type="line"/>
      <point x="330" y="248" type="line"/>
      <point x="408" y="169" type="line"/>
      <point x="1102" y="169" type="line"/>
      <point x="1180" y="248" type="line"/>
      <point x="1180" y="941" type="line"/>
      <point x="1159" y="999" type="line"/>
      <point x="924" y="1230" type="line"/>
      <point x="870" y="1251" type="line"/>
      <point x="507" y="1251" type="line"/>
      <point x="586" y="1176" type="line"/>
      <point x="792" y="1176" type="line"/>
    </contour>
    <contour>
      <point x="1102" y="941" type="line"/>
      <point x="870" y="941" type="line"/>
      <point x="870" y="1176" type="line"/>
    </contour>
  </outline>
</glyph>
<glyph name="symbol-enum" format="2">
  <advance width="1200"/>
  <unicode hex="EA95"/>
  <note>
symbol-enum
</note>
  <outline>
    <contour>
      <point x="1180" y="1124" type="line"/>
      <point x="1100" y="1208" type="line"/>
      <point x="600" y="1208" type="line"/>
      <point x="516" y="1124" type="line"/>
      <point x="516" y="876" type="line"/>
      <point x="600" y="876" type="line"/>
      <point x="600" y="1124" type="line"/>
      <point x="1100" y="1124" type="line"/>
      <point x="1100" y="708" type="line"/>
      <point x="768" y="708" type="line"/>
      <point x="768" y="624" type="line"/>
      <point x="1100" y="624" type="line"/>
      <point x="1180" y="708" type="line"/>
    </contour>
    <contour>
      <point x="684" y="823" type="line"/>
      <point x="715" y="792" type="line"/>
      <point x="1016" y="792" type="line"/>
      <point x="1016" y="876" type="line"/>
      <point x="684" y="876" type="line"/>
    </contour>
    <contour>
      <point x="600" y="792" type="line"/>
      <point x="516" y="792" type="line"/>
      <point x="104" y="792" type="line"/>
      <point x="20" y="708" type="line"/>
      <point x="20" y="292" type="line"/>
      <point x="104" y="212" type="line"/>
      <point x="600" y="212" type="line"/>
      <point x="684" y="292" type="line"/>
      <point x="684" y="708" type="line"/>
    </contour>
    <contour>
      <point x="600" y="708" type="line"/>
      <point x="600" y="292" type="line"/>
      <point x="104" y="292" type="line"/>
      <point x="104" y="708" type="line"/>
    </contour>
    <contour>
      <point x="184" y="544" type="line"/>
      <point x="516" y="544" type="line"/>
      <point x="516" y="624" type="line"/>
      <point x="184" y="624" type="line"/>
    </contour>
    <contour>
      <point x="184" y="376" type="line"/>
      <point x="516" y="376" type="line"/>
      <point x="516" y="460" type="line"/>
      <point x="184" y="460" type="line"/>
    </contour>
    <contour>
      <point x="684" y="956" type="line"/>
      <point x="1016" y="956" type="line"/>
      <point x="1016" y="1040" type="line"/>
      <point x="684" y="1040" type="line"/>
    </contour>
  </outline>
</glyph>
<glyph name="symbol-ruler" format="2">
  <advance width="1200"/>
  <unicode hex="EA96"/>
  <note>
symbol-ruler
</note>
  <outline>
    <contour>
      <point x="1006" y="1420" type="line"/>
      <point x="194" y="1420" type="line"/>
      <point x="91" y="1322" type="line"/>
      <point x="91" y="103" type="line"/>
      <point x="194" y="0" type="line"/>
      <point x="1006" y="0" type="line"/>
      <point x="1109" y="103" type="line"/>
      <point x="1109" y="1322" type="line"/>
    </contour>
    <contour>
      <point x="600" y="1219" type="line"/>
      <point x="194" y="1219" type="line"/>
      <point x="194" y="1322" type="line"/>
      <point x="1006" y="1322" type="line"/>
      <point x="1006" y="103" type="line"/>
      <point x="194" y="103" type="line"/>
      <point x="194" y="201" type="line"/>
      <point x="399" y="201" type="line"/>
      <point x="399" y="304" type="line"/>
      <point x="194" y="304" type="line"/>
      <point x="194" y="509" type="line"/>
      <point x="600" y="509" type="line"/>
      <point x="600" y="607" type="line"/>
      <point x="194" y="607" type="line"/>
      <point x="194" y="813" type="line"/>
      <point x="399" y="813" type="line"/>
      <point x="399" y="916" type="line"/>
      <point x="194" y="916" type="line"/>
      <point x="194" y="1116" type="line"/>
      <point x="600" y="1116" type="line"/>
    </contour>
  </outline>
</glyph>
<glyph name="activate-breakpoints" format="2">
  <advance width="1200"/>
  <unicode hex="EA97"/>
  <note>
activate-breakpoints
</note>
  <outline>
    <contour>
      <point x="1180" y="993"/>
      <point x="1126" y="1130"/>
      <point x="1020" y="1237"/>
      <point x="883" y="1290"/>
      <point x="808" y="1290" type="qcurve" smooth="yes"/>
      <point x="715" y="1290"/>
      <point x="551" y="1201"/>
      <point x="445" y="1051"/>
      <point x="432" y="958" type="qcurve"/>
      <point x="476" y="958"/>
      <point x="516" y="945" type="qcurve"/>
      <point x="525" y="1020"/>
      <point x="609" y="1144"/>
      <point x="741" y="1210"/>
      <point x="896" y="1206"/>
      <point x="1025" y="1126"/>
      <point x="1096" y="993"/>
      <point x="1100" y="918" type="qcurve" smooth="yes"/>
      <point x="1096" y="803"/>
      <point x="945" y="639"/>
      <point x="834" y="626" type="qcurve"/>
      <point x="848" y="586"/>
      <point x="848" y="542" type="qcurve"/>
      <point x="945" y="551"/>
      <point x="1096" y="657"/>
      <point x="1184" y="821"/>
      <point x="1180" y="918" type="qcurve" smooth="yes"/>
    </contour>
    <contour>
      <point x="392" y="874" type="qcurve"/>
      <point x="392" y="878" type="line"/>
      <point x="290" y="878"/>
      <point x="117" y="776"/>
      <point x="20" y="604"/>
      <point x="20" y="400"/>
      <point x="117" y="228"/>
      <point x="290" y="130"/>
      <point x="494" y="130"/>
      <point x="666" y="228"/>
      <point x="768" y="400"/>
      <point x="768" y="604"/>
      <point x="666" y="776"/>
      <point x="494" y="874"/>
    </contour>
  </outline>
</glyph>
<glyph name="archive" format="2">
  <advance width="1200"/>
  <unicode hex="EA98"/>
  <note>
archive
</note>
  <outline>
    <contour>
      <point x="1180" y="1208" type="line"/>
      <point x="1140" y="1248" type="line"/>
      <point x="60" y="1248" type="line"/>
      <point x="20" y="1208" type="line"/>
      <point x="20" y="960" type="line"/>
      <point x="60" y="916" type="line"/>
      <point x="104" y="916" type="line"/>
      <point x="104" y="212" type="line"/>
      <point x="144" y="172" type="line"/>
      <point x="1056" y="172" type="line"/>
      <point x="1100" y="212" type="line"/>
      <point x="1100" y="916" type="line"/>
      <point x="1140" y="916" type="line"/>
      <point x="1180" y="960" type="line"/>
    </contour>
    <contour>
      <point x="1100" y="1000" type="line"/>
      <point x="1056" y="1000" type="line"/>
      <point x="104" y="1000" type="line"/>
      <point x="104" y="1168" type="line"/>
      <point x="1100" y="1168" type="line"/>
    </contour>
    <contour>
      <point x="1016" y="252" type="line"/>
      <point x="184" y="252" type="line"/>
      <point x="184" y="916" type="line"/>
      <point x="1016" y="916" type="line"/>
    </contour>
    <contour>
      <point x="848" y="668" type="line"/>
      <point x="848" y="752" type="line"/>
      <point x="352" y="752" type="line"/>
      <point x="352" y="668" type="line"/>
    </contour>
  </outline>
</glyph>
<glyph name="arrow-both" format="2">
  <advance width="1200"/>
  <unicode hex="EA99"/>
  <note>
arrow-both
</note>
  <outline>
    <contour>
      <point x="1043" y="663" type="line"/>
      <point x="855" y="474" type="line"/>
      <point x="916" y="413" type="line"/>
      <point x="1180" y="677" type="line"/>
      <point x="1180" y="738" type="line"/>
      <point x="916" y="1007" type="line"/>
      <point x="855" y="941" type="line"/>
      <point x="1043" y="752" type="line"/>
      <point x="157" y="752" type="line"/>
      <point x="345" y="941" type="line"/>
      <point x="284" y="1007" type="line"/>
      <point x="20" y="738" type="line"/>
      <point x="20" y="677" type="line"/>
      <point x="284" y="413" type="line"/>
      <point x="345" y="474" type="line"/>
      <point x="157" y="663" type="line"/>
    </contour>
  </outline>
</glyph>
<glyph name="arrow-down" format="2">
  <advance width="1200"/>
  <unicode hex="EA9A"/>
  <note>
arrow-down
</note>
  <outline>
    <contour>
      <point x="95" y="678" type="line"/>
      <point x="20" y="597" type="line"/>
      <point x="562" y="61" type="line"/>
      <point x="638" y="61" type="line"/>
      <point x="1180" y="597" type="line"/>
      <point x="1105" y="678" type="line"/>
      <point x="655" y="228" type="line"/>
      <point x="655" y="1359" type="line"/>
      <point x="545" y="1359" type="line"/>
      <point x="545" y="228" type="line"/>
    </contour>
  </outline>
</glyph>
<glyph name="arrow-left" format="2">
  <advance width="1200"/>
  <unicode hex="EA9B"/>
  <note>
arrow-left
</note>
  <outline>
    <contour>
      <point x="572" y="1161" type="line"/>
      <point x="499" y="1228" type="line"/>
      <point x="20" y="744" type="line"/>
      <point x="20" y="676" type="line"/>
      <point x="499" y="192" type="line"/>
      <point x="572" y="264" type="line"/>
      <point x="170" y="661" type="line"/>
      <point x="1180" y="661" type="line"/>
      <point x="1180" y="759" type="line"/>
      <point x="170" y="759" type="line"/>
    </contour>
  </outline>
</glyph>
<glyph name="arrow-right" format="2">
  <advance width="1200"/>
  <unicode hex="EA9C"/>
  <note>
arrow-right
</note>
  <outline>
    <contour>
      <point x="623" y="261" type="line"/>
      <point x="695" y="194" type="line"/>
      <point x="1180" y="674" type="line"/>
      <point x="1180" y="746" type="line"/>
      <point x="695" y="1226" type="line"/>
      <point x="623" y="1159" type="line"/>
      <point x="1025" y="756" type="line"/>
      <point x="20" y="756" type="line"/>
      <point x="20" y="664" type="line"/>
      <point x="1025" y="664" type="line"/>
    </contour>
  </outline>
</glyph>
<glyph name="arrow-small-down" format="2">
  <advance width="1200"/>
  <unicode hex="EA9D"/>
  <note>
arrow-small-down
</note>
  <outline>
    <contour>
      <point x="1029" y="646" type="line"/>
      <point x="701" y="318" type="line"/>
      <point x="701" y="1420" type="line"/>
      <point x="499" y="1420" type="line"/>
      <point x="499" y="318" type="line"/>
      <point x="171" y="636" type="line"/>
      <point x="33" y="498" type="line"/>
      <point x="531" y="0" type="line"/>
      <point x="669" y="0" type="line"/>
      <point x="1167" y="498" type="line"/>
    </contour>
  </outline>
</glyph>
<glyph name="arrow-small-left" format="2">
  <advance width="1200"/>
  <unicode hex="EA9E"/>
  <note>
arrow-small-left
</note>
  <outline>
    <contour>
      <point x="539" y="368" type="line"/>
      <point x="271" y="628" type="line"/>
      <point x="1180" y="628" type="line"/>
      <point x="1180" y="792" type="line"/>
      <point x="271" y="792" type="line"/>
      <point x="539" y="1061" type="line"/>
      <point x="427" y="1173" type="line"/>
      <point x="20" y="766" type="line"/>
      <point x="20" y="654" type="line"/>
      <point x="427" y="247" type="line"/>
    </contour>
  </outline>
</glyph>
<glyph name="arrow-small-right" format="2">
  <advance width="1200"/>
  <unicode hex="EA9F"/>
  <note>
arrow-small-right
</note>
  <outline>
    <contour>
      <point x="661" y="1061" type="line"/>
      <point x="920" y="792" type="line"/>
      <point x="20" y="792" type="line"/>
      <point x="20" y="628" type="line"/>
      <point x="920" y="628" type="line"/>
      <point x="661" y="368" type="line"/>
      <point x="773" y="247" type="line"/>
      <point x="1180" y="654" type="line"/>
      <point x="1180" y="766" type="line"/>
      <point x="773" y="1173" type="line"/>
    </contour>
  </outline>
</glyph>
<glyph name="arrow-small-up" format="2">
  <advance width="1200"/>
  <unicode hex="EAA0"/>
  <note>
arrow-small-up
</note>
  <outline>
    <contour>
      <point x="171" y="784" type="line"/>
      <point x="499" y="1113" type="line"/>
      <point x="499" y="0" type="line"/>
      <point x="701" y="0" type="line"/>
      <point x="701" y="1113" type="line"/>
      <point x="1029" y="784" type="line"/>
      <point x="1167" y="922" type="line"/>
      <point x="669" y="1420" type="line"/>
      <point x="531" y="1420" type="line"/>
      <point x="33" y="922" type="line"/>
    </contour>
  </outline>
</glyph>
<glyph name="arrow-up" format="2">
  <advance width="1200"/>
  <unicode hex="EAA1"/>
  <note>
arrow-up
</note>
  <outline>
    <contour>
      <point x="1099" y="736" type="line"/>
      <point x="1180" y="817" type="line"/>
      <point x="638" y="1359" type="line"/>
      <point x="562" y="1359" type="line"/>
      <point x="20" y="817" type="line"/>
      <point x="95" y="736" type="line"/>
      <point x="545" y="1186" type="line"/>
      <point x="545" y="61" type="line"/>
      <point x="655" y="61" type="line"/>
      <point x="655" y="1186" type="line"/>
    </contour>
  </outline>
</glyph>
<glyph name="bell" format="2">
  <advance width="1200"/>
  <unicode hex="EAA2"/>
  <note>
bell
</note>
  <outline>
    <contour>
      <point x="1180" y="289" type="line"/>
      <point x="1123" y="460" type="line" smooth="yes"/>
      <point x="1087" y="569"/>
      <point x="1087" y="688" type="qcurve" smooth="yes"/>
      <point x="1087" y="885" type="line" smooth="yes"/>
      <point x="1087" y="978"/>
      <point x="1025" y="1149"/>
      <point x="900" y="1289"/>
      <point x="740" y="1377"/>
      <point x="647" y="1387" type="qcurve" smooth="yes"/>
      <point x="543" y="1398"/>
      <point x="346" y="1330"/>
      <point x="196" y="1190"/>
      <point x="113" y="1004"/>
      <point x="113" y="900" type="qcurve" smooth="yes"/>
      <point x="113" y="688" type="line" smooth="yes"/>
      <point x="113" y="569"/>
      <point x="77" y="460" type="qcurve" smooth="yes"/>
      <point x="20" y="289" type="line"/>
      <point x="61" y="222" type="line"/>
      <point x="403" y="222" type="line"/>
      <point x="403" y="144"/>
      <point x="517" y="30"/>
      <point x="678" y="30"/>
      <point x="792" y="144"/>
      <point x="792" y="222" type="qcurve"/>
      <point x="1133" y="222" type="line"/>
    </contour>
    <contour>
      <point x="698" y="181"/>
      <point x="667" y="155" type="qcurve" smooth="yes"/>
      <point x="636" y="124"/>
      <point x="559" y="124"/>
      <point x="502" y="181"/>
      <point x="502" y="222" type="qcurve"/>
      <point x="693" y="222" type="line"/>
    </contour>
    <contour>
      <point x="1066" y="320" type="line"/>
      <point x="129" y="320" type="line"/>
      <point x="165" y="429" type="line" smooth="yes"/>
      <point x="212" y="553"/>
      <point x="212" y="688" type="qcurve" smooth="yes"/>
      <point x="212" y="900" type="line" smooth="yes"/>
      <point x="212" y="983"/>
      <point x="279" y="1139"/>
      <point x="398" y="1247"/>
      <point x="559" y="1299"/>
      <point x="636" y="1289" type="qcurve" smooth="yes"/>
      <point x="792" y="1268"/>
      <point x="890" y="1154" type="qcurve" smooth="yes"/>
      <point x="937" y="1097"/>
      <point x="988" y="957"/>
      <point x="988" y="885" type="qcurve" smooth="yes"/>
      <point x="988" y="688" type="line" smooth="yes"/>
      <point x="988" y="553"/>
      <point x="1030" y="424" type="qcurve" smooth="yes"/>
    </contour>
  </outline>
</glyph>
<glyph name="bold" format="2">
  <advance width="1200"/>
  <unicode hex="EAA3"/>
  <note>
bold
</note>
  <outline>
    <contour>
      <point x="611" y="0" type="line" smooth="yes"/>
      <point x="838" y="0"/>
      <point x="1095" y="219"/>
      <point x="1095" y="408" type="qcurve" smooth="yes"/>
      <point x="1095" y="536"/>
      <point x="959" y="718"/>
      <point x="838" y="748" type="qcurve"/>
      <point x="936" y="786"/>
      <point x="1057" y="944"/>
      <point x="1057" y="1042" type="qcurve" smooth="yes"/>
      <point x="1057" y="1224"/>
      <point x="815" y="1420"/>
      <point x="581" y="1420" type="qcurve" smooth="yes"/>
      <point x="105" y="1420" type="line"/>
      <point x="105" y="0" type="line"/>
    </contour>
    <contour>
      <point x="619" y="665" type="line" smooth="yes"/>
      <point x="898" y="665"/>
      <point x="898" y="408" type="qcurve" smooth="yes"/>
      <point x="898" y="287"/>
      <point x="747" y="151"/>
      <point x="611" y="151" type="qcurve" smooth="yes"/>
      <point x="294" y="151" type="line"/>
      <point x="294" y="665" type="line"/>
    </contour>
    <contour>
      <point x="294" y="1261" type="line"/>
      <point x="581" y="1261" type="line" smooth="yes"/>
      <point x="725" y="1261"/>
      <point x="861" y="1156"/>
      <point x="861" y="937"/>
      <point x="710" y="816"/>
      <point x="589" y="816" type="qcurve" smooth="yes"/>
      <point x="294" y="816" type="line"/>
    </contour>
  </outline>
</glyph>
<glyph name="book" format="2">
  <advance width="1200"/>
  <unicode hex="EAA4"/>
  <note>
book
</note>
  <outline>
    <contour>
      <point x="1180" y="1159" type="line"/>
      <point x="1140" y="1204" type="line"/>
      <point x="684" y="1204" type="line"/>
      <point x="653" y="1190" type="line"/>
      <point x="600" y="1137" type="line"/>
      <point x="547" y="1190" type="line"/>
      <point x="516" y="1204" type="line"/>
      <point x="60" y="1204" type="line"/>
      <point x="20" y="1159" type="line"/>
      <point x="20" y="331" type="line"/>
      <point x="60" y="287" type="line"/>
      <point x="498" y="287" type="line"/>
      <point x="569" y="216" type="line"/>
      <point x="631" y="216" type="line"/>
      <point x="702" y="287" type="line"/>
      <point x="1140" y="287" type="line"/>
      <point x="1180" y="331" type="line"/>
    </contour>
    <contour>
      <point x="560" y="1058" type="line"/>
      <point x="560" y="345" type="line"/>
      <point x="542" y="358" type="line"/>
      <point x="516" y="371" type="line"/>
      <point x="104" y="371" type="line"/>
      <point x="104" y="1120" type="line"/>
      <point x="498" y="1120" type="line"/>
    </contour>
    <contour>
      <point x="1100" y="1120" type="line"/>
      <point x="1100" y="371" type="line"/>
      <point x="684" y="371" type="line"/>
      <point x="653" y="358" type="line"/>
      <point x="644" y="349" type="line"/>
      <point x="644" y="1062" type="line"/>
      <point x="702" y="1120" type="line"/>
    </contour>
    <contour>
      <point x="436" y="872" type="line"/>
      <point x="436" y="951" type="line"/>
      <point x="184" y="951" type="line"/>
      <point x="184" y="872" type="line"/>
    </contour>
    <contour>
      <point x="436" y="540" type="line"/>
      <point x="436" y="619" type="line"/>
      <point x="184" y="619" type="line"/>
      <point x="184" y="540" type="line"/>
    </contour>
    <contour>
      <point x="184" y="703" type="line"/>
      <point x="436" y="703" type="line"/>
      <point x="436" y="787" type="line"/>
      <point x="184" y="787" type="line"/>
    </contour>
    <contour>
      <point x="1016" y="872" type="line"/>
      <point x="1016" y="951" type="line"/>
      <point x="768" y="951" type="line"/>
      <point x="768" y="872" type="line"/>
    </contour>
    <contour>
      <point x="768" y="703" type="line"/>
      <point x="1016" y="703" type="line"/>
      <point x="1016" y="787" type="line"/>
      <point x="768" y="787" type="line"/>
    </contour>
    <contour>
      <point x="768" y="540" type="line"/>
      <point x="1016" y="540" type="line"/>
      <point x="1016" y="619" type="line"/>
      <point x="768" y="619" type="line"/>
    </contour>
  </outline>
</glyph>
<glyph name="bookmark" format="2">
  <advance width="1200"/>
  <unicode hex="EAA5"/>
  <note>
bookmark
</note>
  <outline>
    <contour>
      <point x="1115" y="1371" type="line"/>
      <point x="1061" y="1420" type="line"/>
      <point x="139" y="1420" type="line"/>
      <point x="85" y="1371" type="line"/>
      <point x="85" y="33" type="line"/>
      <point x="178" y="0" type="line"/>
      <point x="600" y="472" type="line"/>
      <point x="1022" y="0" type="line"/>
      <point x="1115" y="33" type="line"/>
    </contour>
    <contour>
      <point x="1011" y="1321" type="line"/>
      <point x="1011" y="170" type="line"/>
      <point x="638" y="581" type="line"/>
      <point x="562" y="581" type="line"/>
      <point x="189" y="170" type="line"/>
      <point x="189" y="1321" type="line"/>
    </contour>
  </outline>
</glyph>
<glyph name="debug-breakpoint-conditional-unverified" format="2">
  <advance width="1200"/>
  <unicode hex="EAA6"/>
  <note>
debug-breakpoint-conditional-unverified
</note>
  <outline>
    <contour>
      <point x="149" y="1105"/>
      <point x="10" y="826"/>
      <point x="33" y="516"/>
      <point x="204" y="261"/>
      <point x="482" y="122"/>
      <point x="792" y="137"/>
      <point x="1048" y="315"/>
      <point x="1187" y="594"/>
      <point x="1171" y="904"/>
      <point x="993" y="1167"/>
      <point x="715" y="1298"/>
      <point x="405" y="1283"/>
      <point x="273" y="1190" type="qcurve" smooth="yes"/>
    </contour>
    <contour>
      <point x="242" y="470"/>
      <point x="180" y="795"/>
      <point x="366" y="1066"/>
      <point x="684" y="1128"/>
      <point x="823" y="1043" type="qcurve" smooth="yes"/>
      <point x="908" y="981"/>
      <point x="1009" y="787"/>
      <point x="993" y="571"/>
      <point x="877" y="393"/>
      <point x="684" y="300"/>
      <point x="467" y="315"/>
      <point x="374" y="377" type="qcurve" smooth="yes"/>
    </contour>
    <contour>
      <point x="815" y="780" type="line"/>
      <point x="815" y="927" type="line"/>
      <point x="382" y="927" type="line"/>
      <point x="382" y="780" type="line"/>
    </contour>
    <contour>
      <point x="815" y="493" type="line"/>
      <point x="815" y="640" type="line"/>
      <point x="382" y="640" type="line"/>
      <point x="382" y="493" type="line"/>
    </contour>
  </outline>
</glyph>
<glyph name="debug-breakpoint-conditional" format="2">
  <advance width="1200"/>
  <unicode hex="EAA7"/>
  <note>
debug-breakpoint-conditional
</note>
  <outline>
    <contour>
      <point x="755" y="1290"/>
      <point x="600" y="1290" type="qcurve" smooth="yes"/>
      <point x="445" y="1290"/>
      <point x="175" y="1135"/>
      <point x="20" y="865"/>
      <point x="20" y="555"/>
      <point x="175" y="285"/>
      <point x="445" y="130"/>
      <point x="755" y="130"/>
      <point x="1025" y="285"/>
      <point x="1180" y="555"/>
      <point x="1180" y="865"/>
      <point x="1025" y="1135"/>
    </contour>
    <contour>
      <point x="314" y="563" type="line"/>
      <point x="894" y="563" type="line"/>
      <point x="894" y="424" type="line"/>
      <point x="314" y="424" type="line"/>
    </contour>
    <contour>
      <point x="314" y="1004" type="line"/>
      <point x="894" y="1004" type="line"/>
      <point x="894" y="857" type="line"/>
      <point x="314" y="857" type="line"/>
    </contour>
  </outline>
</glyph>
<glyph name="debug-breakpoint-data-unverified" format="2">
  <advance width="1200"/>
  <unicode hex="EAA8"/>
  <note>
debug-breakpoint-data-unverified
</note>
  <outline>
    <contour>
      <point x="1180" y="710" type="line"/>
      <point x="887" y="1210" type="line"/>
      <point x="313" y="1210" type="line"/>
      <point x="20" y="710" type="line"/>
      <point x="313" y="210" type="line"/>
      <point x="887" y="210" type="line"/>
    </contour>
    <contour>
      <point x="987" y="710" type="line"/>
      <point x="793" y="370" type="line"/>
      <point x="407" y="370" type="line"/>
      <point x="207" y="710" type="line"/>
      <point x="407" y="1050" type="line"/>
      <point x="793" y="1050" type="line"/>
    </contour>
  </outline>
</glyph>
<glyph name="debug-breakpoint-data" format="2">
  <advance width="1200"/>
  <unicode hex="EAA9"/>
  <note>
debug-breakpoint-data
</note>
  <outline>
    <contour>
      <point x="892" y="1213" type="line"/>
      <point x="315" y="1213" type="line"/>
      <point x="20" y="710" type="line"/>
      <point x="315" y="207" type="line"/>
      <point x="892" y="207" type="line"/>
      <point x="1180" y="710" type="line"/>
    </contour>
  </outline>
</glyph>
<glyph name="debug-breakpoint-log-unverified" format="2">
  <advance width="1200"/>
  <unicode hex="EAAA"/>
  <note>
debug-breakpoint-log-unverified
</note>
  <outline>
    <contour>
      <point x="600" y="127" type="line"/>
      <point x="1180" y="707" type="line"/>
      <point x="600" y="1293" type="line"/>
      <point x="20" y="707" type="line"/>
    </contour>
    <contour>
      <point x="276" y="707" type="line"/>
      <point x="600" y="1037" type="line"/>
      <point x="924" y="707" type="line"/>
      <point x="600" y="383" type="line"/>
    </contour>
  </outline>
</glyph>
<glyph name="debug-breakpoint-log" format="2">
  <advance width="1200"/>
  <unicode hex="EAAB"/>
  <note>
debug-breakpoint-log
</note>
  <outline>
    <contour>
      <point x="20" y="710" type="line"/>
      <point x="600" y="130" type="line"/>
      <point x="1180" y="710" type="line"/>
      <point x="600" y="1290" type="line"/>
    </contour>
  </outline>
</glyph>
<glyph name="briefcase" format="2">
  <advance width="1200"/>
  <unicode hex="EAAC"/>
  <note>
briefcase
</note>
  <outline>
    <contour>
      <point x="1180" y="960" type="line"/>
      <point x="1140" y="1000" type="line"/>
      <point x="848" y="1000" type="line"/>
      <point x="848" y="1124" type="line"/>
      <point x="808" y="1168" type="line"/>
      <point x="392" y="1168" type="line"/>
      <point x="352" y="1124" type="line"/>
      <point x="352" y="1000" type="line"/>
      <point x="60" y="1000" type="line"/>
      <point x="20" y="960" type="line"/>
      <point x="20" y="296" type="line"/>
      <point x="60" y="252" type="line"/>
      <point x="1140" y="252" type="line"/>
      <point x="1180" y="296" type="line"/>
    </contour>
    <contour>
      <point x="436" y="1000" type="line"/>
      <point x="436" y="1084" type="line"/>
      <point x="768" y="1084" type="line"/>
      <point x="768" y="1000" type="line"/>
    </contour>
    <contour>
      <point x="104" y="916" type="line"/>
      <point x="1100" y="916" type="line"/>
      <point x="1100" y="854" type="line"/>
      <point x="768" y="668" type="line"/>
      <point x="768" y="708" type="line"/>
      <point x="724" y="752" type="line"/>
      <point x="476" y="752" type="line"/>
      <point x="436" y="708" type="line"/>
      <point x="436" y="668" type="line"/>
      <point x="104" y="858" type="line"/>
    </contour>
    <contour>
      <point x="516" y="668" type="line"/>
      <point x="684" y="668" type="line"/>
      <point x="684" y="584" type="line"/>
      <point x="516" y="584" type="line"/>
    </contour>
    <contour>
      <point x="1100" y="336" type="line"/>
      <point x="104" y="336" type="line"/>
      <point x="104" y="761" type="line"/>
      <point x="436" y="571" type="line"/>
      <point x="436" y="544" type="line"/>
      <point x="476" y="504" type="line"/>
      <point x="724" y="504" type="line"/>
      <point x="768" y="544" type="line"/>
      <point x="768" y="571" type="line"/>
      <point x="1100" y="756" type="line"/>
    </contour>
  </outline>
</glyph>
<glyph name="broadcast" format="2">
  <advance width="1200"/>
  <unicode hex="EAAD"/>
  <note>
broadcast
</note>
  <outline>
    <contour>
      <point x="143" y="1198"/>
      <point x="4" y="900"/>
      <point x="45" y="571"/>
      <point x="251" y="320"/>
      <point x="405" y="263" type="qcurve"/>
      <point x="405" y="268" type="line"/>
      <point x="358" y="309"/>
      <point x="358" y="371" type="qcurve" smooth="yes"/>
      <point x="358" y="387" type="line"/>
      <point x="230" y="458"/>
      <point x="97" y="731"/>
      <point x="143" y="1028"/>
      <point x="348" y="1249"/>
      <point x="641" y="1311"/>
      <point x="918" y="1203"/>
      <point x="1005" y="1075" type="qcurve" smooth="yes"/>
      <point x="1057" y="992"/>
      <point x="1093" y="792"/>
      <point x="1046" y="597"/>
      <point x="928" y="433"/>
      <point x="841" y="387" type="qcurve"/>
      <point x="841" y="371" type="line" smooth="yes"/>
      <point x="841" y="315"/>
      <point x="795" y="268" type="qcurve"/>
      <point x="795" y="268" type="line"/>
      <point x="795" y="263" type="line"/>
      <point x="964" y="325"/>
      <point x="1175" y="623"/>
      <point x="1180" y="808" type="qcurve" smooth="yes"/>
      <point x="1175" y="962"/>
      <point x="1021" y="1229"/>
      <point x="759" y="1383"/>
      <point x="600" y="1383" type="qcurve" smooth="yes"/>
      <point x="425" y="1383"/>
      <point x="281" y="1285" type="qcurve" smooth="yes"/>
    </contour>
    <contour>
      <point x="728" y="340" type="line"/>
      <point x="744" y="351"/>
      <point x="744" y="371" type="qcurve" smooth="yes"/>
      <point x="744" y="566" type="line" smooth="yes"/>
      <point x="744" y="607"/>
      <point x="687" y="664"/>
      <point x="646" y="664" type="qcurve" smooth="yes"/>
      <point x="554" y="664" type="line" smooth="yes"/>
      <point x="512" y="664"/>
      <point x="456" y="607"/>
      <point x="456" y="566" type="qcurve" smooth="yes"/>
      <point x="456" y="371" type="line" smooth="yes"/>
      <point x="456" y="351"/>
      <point x="482" y="325"/>
      <point x="502" y="325" type="qcurve"/>
      <point x="502" y="84" type="line" smooth="yes"/>
      <point x="502" y="63"/>
      <point x="523" y="42"/>
      <point x="543" y="37" type="qcurve"/>
      <point x="543" y="37" type="line"/>
      <point x="548" y="37"/>
      <point x="548" y="37" type="qcurve"/>
      <point x="651" y="37" type="line" smooth="yes"/>
      <point x="672" y="37"/>
      <point x="697" y="63"/>
      <point x="697" y="84" type="qcurve" smooth="yes"/>
      <point x="697" y="325" type="line"/>
      <point x="718" y="325"/>
      <point x="728" y="340" type="qcurve"/>
    </contour>
    <contour>
      <point x="851" y="808" type="qcurve"/>
      <point x="857" y="808" type="line"/>
      <point x="857" y="731"/>
      <point x="810" y="664" type="qcurve"/>
      <point x="841" y="618"/>
      <point x="841" y="566" type="qcurve" smooth="yes"/>
      <point x="841" y="556" type="line"/>
      <point x="887" y="602"/>
      <point x="944" y="731"/>
      <point x="949" y="874"/>
      <point x="892" y="1003"/>
      <point x="846" y="1049" type="qcurve" smooth="yes"/>
      <point x="779" y="1121"/>
      <point x="595" y="1172"/>
      <point x="415" y="1121"/>
      <point x="281" y="987"/>
      <point x="235" y="802"/>
      <point x="292" y="623"/>
      <point x="358" y="556" type="qcurve"/>
      <point x="358" y="566" type="line" smooth="yes"/>
      <point x="358" y="623"/>
      <point x="389" y="669" type="qcurve"/>
      <point x="343" y="736"/>
      <point x="348" y="895"/>
      <point x="451" y="1028"/>
      <point x="605" y="1075"/>
      <point x="759" y="1018"/>
      <point x="857" y="890"/>
    </contour>
    <contour>
      <point x="697" y="849"/>
      <point x="641" y="905"/>
      <point x="559" y="905"/>
      <point x="502" y="849"/>
      <point x="502" y="766"/>
      <point x="559" y="710"/>
      <point x="641" y="710"/>
      <point x="697" y="766"/>
      <point x="697" y="808" type="qcurve" smooth="yes"/>
    </contour>
  </outline>
</glyph>
<glyph name="browser" format="2">
  <advance width="1200"/>
  <unicode hex="EAAE"/>
  <note>
browser
</note>
  <outline>
    <contour>
      <point x="20" y="1208" type="line"/>
      <point x="20" y="212" type="line"/>
      <point x="60" y="172" type="line"/>
      <point x="1140" y="172" type="line"/>
      <point x="1180" y="212" type="line"/>
      <point x="1180" y="1208" type="line"/>
      <point x="1140" y="1248" type="line"/>
      <point x="60" y="1248" type="line"/>
    </contour>
    <contour>
      <point x="1100" y="916" type="line"/>
      <point x="1100" y="252" type="line"/>
      <point x="104" y="252" type="line"/>
      <point x="104" y="916" type="line"/>
    </contour>
    <contour>
      <point x="104" y="1168" type="line"/>
      <point x="1100" y="1168" type="line"/>
      <point x="1100" y="1000" type="line"/>
      <point x="104" y="1000" type="line"/>
    </contour>
  </outline>
</glyph>
<glyph name="bug" format="2">
  <advance width="1200"/>
  <unicode hex="EAAF"/>
  <note>
bug
</note>
  <outline>
    <contour>
      <point x="909" y="990" type="line"/>
      <point x="842" y="990" type="line"/>
      <point x="842" y="1039" type="line" smooth="yes"/>
      <point x="842" y="1137"/>
      <point x="700" y="1279"/>
      <point x="500" y="1279"/>
      <point x="358" y="1137"/>
      <point x="358" y="1039" type="qcurve" smooth="yes"/>
      <point x="358" y="990" type="line"/>
      <point x="287" y="990" type="line"/>
      <point x="149" y="1128" type="line"/>
      <point x="100" y="1079" type="line"/>
      <point x="233" y="946" type="line"/>
      <point x="229" y="941" type="line"/>
      <point x="189" y="826"/>
      <point x="189" y="706" type="qcurve" smooth="yes"/>
      <point x="189" y="652" type="line"/>
      <point x="20" y="652" type="line"/>
      <point x="20" y="581" type="line"/>
      <point x="198" y="581" type="line"/>
      <point x="202" y="581" type="line"/>
      <point x="220" y="461"/>
      <point x="278" y="368" type="qcurve"/>
      <point x="282" y="363" type="line"/>
      <point x="118" y="199" type="line"/>
      <point x="167" y="150" type="line"/>
      <point x="322" y="306" type="line"/>
      <point x="331" y="301" type="line"/>
      <point x="384" y="239"/>
      <point x="522" y="168"/>
      <point x="673" y="168"/>
      <point x="811" y="234"/>
      <point x="864" y="297" type="qcurve" smooth="yes"/>
      <point x="869" y="301" type="line"/>
      <point x="1029" y="141" type="line"/>
      <point x="1078" y="190" type="line"/>
      <point x="913" y="359" type="line"/>
      <point x="913" y="363" type="line"/>
      <point x="976" y="461"/>
      <point x="998" y="581" type="qcurve"/>
      <point x="998" y="581" type="line"/>
      <point x="1180" y="581" type="line"/>
      <point x="1180" y="652" type="line"/>
      <point x="1007" y="652" type="line"/>
      <point x="1007" y="706" type="line" smooth="yes"/>
      <point x="1011" y="826"/>
      <point x="967" y="941" type="qcurve"/>
      <point x="962" y="946" type="line"/>
      <point x="1096" y="1079" type="line"/>
      <point x="1047" y="1128" type="line"/>
    </contour>
    <contour>
      <point x="771" y="990" type="line"/>
      <point x="424" y="990" type="line"/>
      <point x="424" y="1039" type="line" smooth="yes"/>
      <point x="424" y="1110"/>
      <point x="527" y="1212"/>
      <point x="669" y="1212"/>
      <point x="771" y="1110"/>
      <point x="771" y="1039" type="qcurve" smooth="yes"/>
    </contour>
    <contour>
      <point x="296" y="919" type="line"/>
      <point x="900" y="919" type="line"/>
      <point x="900" y="914" type="line"/>
      <point x="940" y="817"/>
      <point x="940" y="706" type="qcurve" smooth="yes"/>
      <point x="940" y="603"/>
      <point x="882" y="430"/>
      <point x="784" y="306"/>
      <point x="664" y="239"/>
      <point x="536" y="239"/>
      <point x="411" y="306"/>
      <point x="313" y="430"/>
      <point x="260" y="603"/>
      <point x="260" y="706" type="qcurve" smooth="yes"/>
      <point x="260" y="817"/>
      <point x="296" y="914" type="qcurve"/>
    </contour>
  </outline>
</glyph>
<glyph name="calendar" format="2">
  <advance width="1200"/>
  <unicode hex="EAB0"/>
  <note>
calendar
</note>
  <outline>
    <contour>
      <point x="1180" y="1166" type="line"/>
      <point x="1140" y="1210" type="line"/>
      <point x="1016" y="1210" type="line"/>
      <point x="1016" y="1290" type="line"/>
      <point x="932" y="1290" type="line"/>
      <point x="932" y="1210" type="line"/>
      <point x="268" y="1210" type="line"/>
      <point x="268" y="1290" type="line"/>
      <point x="184" y="1290" type="line"/>
      <point x="184" y="1210" type="line"/>
      <point x="60" y="1210" type="line"/>
      <point x="20" y="1166" type="line"/>
      <point x="20" y="170" type="line"/>
      <point x="60" y="130" type="line"/>
      <point x="1140" y="130" type="line"/>
      <point x="1180" y="170" type="line"/>
    </contour>
    <contour>
      <point x="1100" y="958" type="line"/>
      <point x="1100" y="214" type="line"/>
      <point x="104" y="214" type="line"/>
      <point x="104" y="958" type="line"/>
    </contour>
    <contour>
      <point x="1100" y="1126" type="line"/>
      <point x="1100" y="1042" type="line"/>
      <point x="104" y="1042" type="line"/>
      <point x="104" y="1126" type="line"/>
    </contour>
    <contour>
      <point x="268" y="626" type="line"/>
      <point x="268" y="710" type="line"/>
      <point x="184" y="710" type="line"/>
      <point x="184" y="626" type="line"/>
    </contour>
    <contour>
      <point x="184" y="462" type="line"/>
      <point x="268" y="462" type="line"/>
      <point x="268" y="546" type="line"/>
      <point x="184" y="546" type="line"/>
    </contour>
    <contour>
      <point x="268" y="294" type="line"/>
      <point x="268" y="378" type="line"/>
      <point x="184" y="378" type="line"/>
      <point x="184" y="294" type="line"/>
    </contour>
    <contour>
      <point x="436" y="626" type="line"/>
      <point x="516" y="626" type="line"/>
      <point x="516" y="710" type="line"/>
      <point x="436" y="710" type="line"/>
    </contour>
    <contour>
      <point x="516" y="462" type="line"/>
      <point x="516" y="546" type="line"/>
      <point x="436" y="546" type="line"/>
      <point x="436" y="462" type="line"/>
    </contour>
    <contour>
      <point x="436" y="294" type="line"/>
      <point x="516" y="294" type="line"/>
      <point x="516" y="378" type="line"/>
      <point x="436" y="378" type="line"/>
    </contour>
    <contour>
      <point x="516" y="794" type="line"/>
      <point x="516" y="878" type="line"/>
      <point x="436" y="878" type="line"/>
      <point x="436" y="794" type="line"/>
    </contour>
    <contour>
      <point x="684" y="626" type="line"/>
      <point x="768" y="626" type="line"/>
      <point x="768" y="710" type="line"/>
      <point x="684" y="710" type="line"/>
    </contour>
    <contour>
      <point x="768" y="462" type="line"/>
      <point x="768" y="546" type="line"/>
      <point x="684" y="546" type="line"/>
      <point x="684" y="462" type="line"/>
    </contour>
    <contour>
      <point x="684" y="294" type="line"/>
      <point x="768" y="294" type="line"/>
      <point x="768" y="378" type="line"/>
      <point x="684" y="378" type="line"/>
    </contour>
    <contour>
      <point x="768" y="794" type="line"/>
      <point x="768" y="878" type="line"/>
      <point x="684" y="878" type="line"/>
      <point x="684" y="794" type="line"/>
    </contour>
    <contour>
      <point x="932" y="626" type="line"/>
      <point x="1016" y="626" type="line"/>
      <point x="1016" y="710" type="line"/>
      <point x="932" y="710" type="line"/>
    </contour>
    <contour>
      <point x="1016" y="462" type="line"/>
      <point x="1016" y="546" type="line"/>
      <point x="932" y="546" type="line"/>
      <point x="932" y="462" type="line"/>
    </contour>
    <contour>
      <point x="932" y="794" type="line"/>
      <point x="1016" y="794" type="line"/>
      <point x="1016" y="878" type="line"/>
      <point x="932" y="878" type="line"/>
    </contour>
  </outline>
</glyph>
<glyph name="case-sensitive" format="2">
  <advance width="1200"/>
  <unicode hex="EAB1"/>
  <note>
case-sensitive
</note>
  <outline>
    <contour>
      <point x="400" y="1098" type="line"/>
      <point x="310" y="1098" type="line"/>
      <point x="20" y="338" type="line"/>
      <point x="115" y="338" type="line"/>
      <point x="194" y="549" type="line"/>
      <point x="516" y="549" type="line"/>
      <point x="595" y="338" type="line"/>
      <point x="695" y="338" type="line"/>
    </contour>
    <contour>
      <point x="220" y="628" type="line"/>
      <point x="342" y="955" type="line" smooth="yes"/>
      <point x="347" y="971"/>
      <point x="352" y="1003" type="qcurve"/>
      <point x="357" y="1003" type="line"/>
      <point x="363" y="971"/>
      <point x="368" y="955" type="qcurve" smooth="yes"/>
      <point x="484" y="628" type="line"/>
    </contour>
    <contour>
      <point x="1180" y="692" type="line" smooth="yes"/>
      <point x="1180" y="892"/>
      <point x="990" y="892" type="qcurve" smooth="yes"/>
      <point x="885" y="892"/>
      <point x="806" y="839" type="qcurve"/>
      <point x="806" y="755" type="line"/>
      <point x="885" y="818"/>
      <point x="980" y="818" type="qcurve" smooth="yes"/>
      <point x="1090" y="818"/>
      <point x="1090" y="681" type="qcurve"/>
      <point x="927" y="660" type="line" smooth="yes"/>
      <point x="748" y="634"/>
      <point x="748" y="481" type="qcurve" smooth="yes"/>
      <point x="748" y="407"/>
      <point x="843" y="322"/>
      <point x="922" y="322" type="qcurve" smooth="yes"/>
      <point x="1032" y="322"/>
      <point x="1090" y="423" type="qcurve"/>
      <point x="1090" y="423" type="line"/>
      <point x="1090" y="338" type="line"/>
      <point x="1180" y="338" type="line"/>
    </contour>
    <contour>
      <point x="1090" y="554" type="line" smooth="yes"/>
      <point x="1090" y="486"/>
      <point x="1006" y="396"/>
      <point x="943" y="396" type="qcurve" smooth="yes"/>
      <point x="895" y="396"/>
      <point x="837" y="449"/>
      <point x="837" y="486" type="qcurve" smooth="yes"/>
      <point x="837" y="544"/>
      <point x="901" y="586"/>
      <point x="964" y="591" type="qcurve" smooth="yes"/>
      <point x="1090" y="612" type="line"/>
    </contour>
  </outline>
</glyph>
<glyph name="check" format="2">
  <advance width="1200"/>
  <unicode hex="EAB2"/>
  <note>
check
</note>
  <outline>
    <contour>
      <point x="1107" y="1199" type="line"/>
      <point x="368" y="328" type="line"/>
      <point x="93" y="715" type="line"/>
      <point x="20" y="661" type="line"/>
      <point x="328" y="225" type="line"/>
      <point x="402" y="221" type="line"/>
      <point x="1180" y="1141" type="line"/>
    </contour>
  </outline>
</glyph>
<glyph name="checklist" format="2">
  <advance width="1200"/>
  <unicode hex="EAB3"/>
  <note>
checklist
</note>
  <outline>
    <contour>
      <point x="335" y="1159" type="line"/>
      <point x="268" y="1226" type="line"/>
      <point x="144" y="1097" type="line"/>
      <point x="82" y="1159" type="line"/>
      <point x="20" y="1097" type="line"/>
      <point x="111" y="1001" type="line"/>
      <point x="173" y="1001" type="line"/>
    </contour>
    <contour>
      <point x="464" y="1044" type="line"/>
      <point x="1180" y="1044" type="line"/>
      <point x="1180" y="1135" type="line"/>
      <point x="464" y="1135" type="line"/>
    </contour>
    <contour>
      <point x="464" y="777" type="line"/>
      <point x="1180" y="777" type="line"/>
      <point x="1180" y="868" type="line"/>
      <point x="464" y="868" type="line"/>
    </contour>
    <contour>
      <point x="1180" y="510" type="line"/>
      <point x="1180" y="595" type="line"/>
      <point x="464" y="595" type="line"/>
      <point x="464" y="510" type="line"/>
    </contour>
    <contour>
      <point x="464" y="237" type="line"/>
      <point x="1180" y="237" type="line"/>
      <point x="1180" y="328" type="line"/>
      <point x="464" y="328" type="line"/>
    </contour>
    <contour>
      <point x="20" y="825" type="line"/>
      <point x="111" y="734" type="line"/>
      <point x="173" y="734" type="line"/>
      <point x="335" y="891" type="line"/>
      <point x="268" y="953" type="line"/>
      <point x="144" y="829" type="line"/>
      <point x="82" y="891" type="line"/>
    </contour>
    <contour>
      <point x="335" y="624" type="line"/>
      <point x="268" y="686" type="line"/>
      <point x="144" y="557" type="line"/>
      <point x="82" y="619" type="line"/>
      <point x="20" y="557" type="line"/>
      <point x="111" y="462" type="line"/>
      <point x="173" y="462" type="line"/>
    </contour>
    <contour>
      <point x="20" y="290" type="line"/>
      <point x="111" y="194" type="line"/>
      <point x="173" y="194" type="line"/>
      <point x="335" y="352" type="line"/>
      <point x="268" y="414" type="line"/>
      <point x="144" y="290" type="line"/>
      <point x="82" y="352" type="line"/>
    </contour>
  </outline>
</glyph>
<glyph name="chevron-down" format="2">
  <advance width="1200"/>
  <unicode hex="EAB4"/>
  <note>
chevron-down
</note>
  <outline>
    <contour>
      <point x="94" y="1017" type="line"/>
      <point x="20" y="943" type="line"/>
      <point x="566" y="403" type="line"/>
      <point x="634" y="403" type="line"/>
      <point x="1180" y="943" type="line"/>
      <point x="1106" y="1017" type="line"/>
      <point x="603" y="508" type="line"/>
    </contour>
  </outline>
</glyph>
<glyph name="chevron-left" format="2">
  <advance width="1200"/>
  <unicode hex="EAB5"/>
  <note>
chevron-left
</note>
  <outline>
    <contour>
      <point x="907" y="1216" type="line"/>
      <point x="833" y="1290" type="line"/>
      <point x="293" y="744" type="line"/>
      <point x="293" y="676" type="line"/>
      <point x="833" y="130" type="line"/>
      <point x="907" y="204" type="line"/>
      <point x="398" y="707" type="line"/>
    </contour>
  </outline>
</glyph>
<glyph name="chevron-right" format="2">
  <advance width="1200"/>
  <unicode hex="EAB6"/>
  <note>
chevron-right
</note>
  <outline>
    <contour>
      <point x="293" y="204" type="line"/>
      <point x="367" y="130" type="line"/>
      <point x="907" y="676" type="line"/>
      <point x="907" y="744" type="line"/>
      <point x="367" y="1290" type="line"/>
      <point x="293" y="1216" type="line"/>
      <point x="802" y="713" type="line"/>
    </contour>
  </outline>
</glyph>
<glyph name="chevron-up" format="2">
  <advance width="1200"/>
  <unicode hex="EAB7"/>
  <note>
chevron-up
</note>
  <outline>
    <contour>
      <point x="1106" y="403" type="line"/>
      <point x="1180" y="477" type="line"/>
      <point x="634" y="1017" type="line"/>
      <point x="566" y="1017" type="line"/>
      <point x="20" y="477" type="line"/>
      <point x="94" y="403" type="line"/>
      <point x="597" y="912" type="line"/>
    </contour>
  </outline>
</glyph>
<glyph name="chrome-close" format="2">
  <advance width="1200"/>
  <unicode hex="EAB8"/>
  <note>
chrome-close
</note>
  <outline>
    <contour>
      <point x="20" y="1193" type="line"/>
      <point x="503" y="710" type="line"/>
      <point x="20" y="227" type="line"/>
      <point x="117" y="130" type="line"/>
      <point x="600" y="613" type="line"/>
      <point x="1083" y="130" type="line"/>
      <point x="1180" y="227" type="line"/>
      <point x="697" y="710" type="line"/>
      <point x="1180" y="1193" type="line"/>
      <point x="1083" y="1290" type="line"/>
      <point x="600" y="807" type="line"/>
      <point x="117" y="1290" type="line"/>
    </contour>
  </outline>
</glyph>
<glyph name="chrome-maximize" format="2">
  <advance width="1200"/>
  <unicode hex="EAB9"/>
  <note>
chrome-maximize
</note>
  <outline>
    <contour>
      <point x="1180" y="1290" type="line"/>
      <point x="20" y="1290" type="line"/>
      <point x="20" y="130" type="line"/>
      <point x="1180" y="130" type="line"/>
    </contour>
    <contour>
      <point x="1063" y="1173" type="line"/>
      <point x="1063" y="247" type="line"/>
      <point x="137" y="247" type="line"/>
      <point x="137" y="1173" type="line"/>
    </contour>
  </outline>
</glyph>
<glyph name="chrome-minimize" format="2">
  <advance width="1200"/>
  <unicode hex="EABA"/>
  <note>
chrome-minimize
</note>
  <outline>
    <contour>
      <point x="20" y="763" type="line"/>
      <point x="20" y="657" type="line"/>
      <point x="1180" y="657" type="line"/>
      <point x="1180" y="763" type="line"/>
    </contour>
  </outline>
</glyph>
<glyph name="chrome-restore" format="2">
  <advance width="1200"/>
  <unicode hex="EABB"/>
  <note>
chrome-restore
</note>
  <outline>
    <contour>
      <point x="967" y="1074" type="line"/>
      <point x="20" y="1074" type="line"/>
      <point x="20" y="133" type="line"/>
      <point x="967" y="133" type="line"/>
    </contour>
    <contour>
      <point x="861" y="973" type="line"/>
      <point x="861" y="234" type="line"/>
      <point x="126" y="234" type="line"/>
      <point x="126" y="973" type="line"/>
    </contour>
    <contour>
      <point x="233" y="1287" type="line"/>
      <point x="233" y="1074" type="line"/>
      <point x="339" y="1074" type="line"/>
      <point x="339" y="1181" type="line"/>
      <point x="1074" y="1181" type="line"/>
      <point x="1074" y="447" type="line"/>
      <point x="967" y="447" type="line"/>
      <point x="967" y="340" type="line"/>
      <point x="1180" y="340" type="line"/>
      <point x="1180" y="1287" type="line"/>
    </contour>
  </outline>
</glyph>
<glyph name="circle-outline" format="2">
  <advance width="1200"/>
  <unicode hex="EABC"/>
  <note>
circle-outline
</note>
  <outline>
    <contour>
      <point x="445" y="130"/>
      <point x="600" y="130" type="qcurve" smooth="yes"/>
      <point x="755" y="130"/>
      <point x="1025" y="285"/>
      <point x="1180" y="555"/>
      <point x="1180" y="865"/>
      <point x="1025" y="1135"/>
      <point x="755" y="1290"/>
      <point x="445" y="1290"/>
      <point x="175" y="1135"/>
      <point x="20" y="865"/>
      <point x="20" y="555"/>
      <point x="175" y="285"/>
    </contour>
    <contour>
      <point x="979" y="865"/>
      <point x="979" y="710" type="qcurve" smooth="yes"/>
      <point x="979" y="555"/>
      <point x="755" y="331"/>
      <point x="445" y="331"/>
      <point x="221" y="555"/>
      <point x="221" y="865"/>
      <point x="445" y="1089"/>
      <point x="755" y="1089"/>
    </contour>
    <contour>
      <point x="600" y="1112" type="line"/>
      <point x="600" y="1112" type="line"/>
    </contour>
  </outline>
</glyph>
<glyph name="circle-slash" format="2">
  <advance width="1200"/>
  <unicode hex="EABD"/>
  <note>
circle-slash
</note>
  <outline>
    <contour>
      <point x="441" y="1290"/>
      <point x="175" y="1135"/>
      <point x="20" y="869"/>
      <point x="20" y="551"/>
      <point x="175" y="285"/>
      <point x="441" y="130"/>
      <point x="759" y="130"/>
      <point x="1025" y="285"/>
      <point x="1180" y="551"/>
      <point x="1180" y="869"/>
      <point x="1025" y="1135"/>
      <point x="759" y="1290"/>
      <point x="600" y="1290" type="qcurve" smooth="yes"/>
    </contour>
    <contour>
      <point x="100" y="710" type="line"/>
      <point x="100" y="856"/>
      <point x="259" y="1100"/>
      <point x="520" y="1224"/>
      <point x="813" y="1184"/>
      <point x="923" y="1091" type="qcurve"/>
      <point x="219" y="387" type="line"/>
      <point x="162" y="458"/>
      <point x="104" y="621"/>
      <point x="104" y="710" type="qcurve"/>
    </contour>
    <contour>
      <point x="1100" y="564"/>
      <point x="941" y="320"/>
      <point x="680" y="196"/>
      <point x="387" y="236"/>
      <point x="277" y="329" type="qcurve"/>
      <point x="981" y="1033" type="line"/>
      <point x="1038" y="962"/>
      <point x="1100" y="799"/>
      <point x="1100" y="710" type="qcurve" smooth="yes"/>
    </contour>
  </outline>
</glyph>
<glyph name="circuit-board" format="2">
  <advance width="1200"/>
  <unicode hex="EABE"/>
  <note>
circuit-board
</note>
  <outline>
    <contour>
      <point x="1180" y="1250" type="line"/>
      <point x="1140" y="1290" type="line"/>
      <point x="60" y="1290" type="line"/>
      <point x="20" y="1250" type="line"/>
      <point x="20" y="170" type="line"/>
      <point x="60" y="130" type="line"/>
      <point x="1140" y="130" type="line"/>
      <point x="1180" y="170" type="line"/>
    </contour>
    <contour>
      <point x="1100" y="1210" type="line"/>
      <point x="1100" y="214" type="line"/>
      <point x="352" y="214" type="line"/>
      <point x="352" y="378" type="line"/>
      <point x="542" y="378" type="line"/>
      <point x="560" y="343"/>
      <point x="640" y="294"/>
      <point x="684" y="294" type="qcurve" smooth="yes"/>
      <point x="751" y="294"/>
      <point x="848" y="391"/>
      <point x="848" y="528"/>
      <point x="751" y="626"/>
      <point x="613" y="626"/>
      <point x="516" y="528"/>
      <point x="516" y="462" type="qcurve"/>
      <point x="268" y="462" type="line"/>
      <point x="268" y="214" type="line"/>
      <point x="104" y="214" type="line"/>
      <point x="104" y="1210" type="line"/>
      <point x="268" y="1210" type="line"/>
      <point x="268" y="1015" type="line"/>
      <point x="233" y="998"/>
      <point x="184" y="918"/>
      <point x="184" y="878" type="qcurve" smooth="yes"/>
      <point x="184" y="807"/>
      <point x="281" y="710"/>
      <point x="418" y="710"/>
      <point x="516" y="807"/>
      <point x="516" y="878" type="qcurve"/>
      <point x="684" y="878" type="line"/>
      <point x="684" y="807"/>
      <point x="782" y="710"/>
      <point x="919" y="710"/>
      <point x="1016" y="807"/>
      <point x="1016" y="945"/>
      <point x="919" y="1042"/>
      <point x="848" y="1042" type="qcurve" smooth="yes"/>
      <point x="804" y="1042"/>
      <point x="728" y="998"/>
      <point x="706" y="958" type="qcurve"/>
      <point x="494" y="958" type="line"/>
      <point x="472" y="998"/>
      <point x="396" y="1042"/>
      <point x="352" y="1042" type="qcurve"/>
      <point x="352" y="1210" type="line"/>
    </contour>
    <contour>
      <point x="600" y="422"/>
      <point x="600" y="462" type="qcurve" smooth="yes"/>
      <point x="600" y="497"/>
      <point x="644" y="546"/>
      <point x="720" y="546"/>
      <point x="768" y="497"/>
      <point x="768" y="422"/>
      <point x="720" y="378"/>
      <point x="644" y="378"/>
    </contour>
    <contour>
      <point x="312" y="958"/>
      <point x="352" y="958" type="qcurve" smooth="yes"/>
      <point x="387" y="958"/>
      <point x="436" y="914"/>
      <point x="436" y="838"/>
      <point x="387" y="794"/>
      <point x="312" y="794"/>
      <point x="268" y="838"/>
      <point x="268" y="914"/>
    </contour>
    <contour>
      <point x="813" y="958"/>
      <point x="848" y="958" type="qcurve" smooth="yes"/>
      <point x="888" y="958"/>
      <point x="932" y="914"/>
      <point x="932" y="838"/>
      <point x="888" y="794"/>
      <point x="813" y="794"/>
      <point x="768" y="838"/>
      <point x="768" y="914"/>
    </contour>
  </outline>
</glyph>
<glyph name="clear-all" format="2">
  <advance width="1200"/>
  <unicode hex="EABF"/>
  <note>
clear-all
</note>
  <outline>
    <contour>
      <point x="901" y="473" type="line"/>
      <point x="768" y="340" type="line"/>
      <point x="826" y="283" type="line"/>
      <point x="959" y="416" type="line"/>
      <point x="1091" y="283" type="line"/>
      <point x="1158" y="340" type="line"/>
      <point x="1016" y="473" type="line"/>
      <point x="1158" y="606" type="line"/>
      <point x="1091" y="672" type="line"/>
      <point x="959" y="531" type="line"/>
      <point x="826" y="672" type="line"/>
      <point x="768" y="606" type="line"/>
    </contour>
    <contour>
      <point x="20" y="1137" type="line"/>
      <point x="20" y="1053" type="line"/>
      <point x="1180" y="1053" type="line"/>
      <point x="1180" y="1137" type="line"/>
    </contour>
    <contour>
      <point x="20" y="889" type="line"/>
      <point x="20" y="805" type="line"/>
      <point x="1180" y="805" type="line"/>
      <point x="1180" y="889" type="line"/>
    </contour>
    <contour>
      <point x="684" y="557" type="line"/>
      <point x="684" y="597" type="line"/>
      <point x="684" y="637" type="line"/>
      <point x="20" y="637" type="line"/>
      <point x="20" y="557" type="line"/>
    </contour>
    <contour>
      <point x="20" y="305" type="line"/>
      <point x="684" y="305" type="line"/>
      <point x="684" y="389" type="line"/>
      <point x="20" y="389" type="line"/>
    </contour>
  </outline>
</glyph>
<glyph name="clippy" format="2">
  <advance width="1200"/>
  <unicode hex="EAC0"/>
  <note>
clippy
</note>
  <outline>
    <contour>
      <point x="414" y="22" type="line"/>
      <point x="414" y="122" type="line"/>
      <point x="120" y="122" type="line"/>
      <point x="120" y="1004" type="line"/>
      <point x="907" y="1004" type="line"/>
      <point x="907" y="810" type="line"/>
      <point x="1007" y="810" type="line"/>
      <point x="1007" y="1056" type="line"/>
      <point x="954" y="1104" type="line"/>
      <point x="807" y="1104" type="line"/>
      <point x="807" y="1203" type="line"/>
      <point x="713" y="1203" type="line"/>
      <point x="713" y="1282"/>
      <point x="597" y="1398"/>
      <point x="429" y="1398"/>
      <point x="319" y="1282"/>
      <point x="319" y="1203" type="qcurve"/>
      <point x="214" y="1203" type="line"/>
      <point x="214" y="1104" type="line"/>
      <point x="72" y="1104" type="line"/>
      <point x="20" y="1056" type="line"/>
      <point x="20" y="70" type="line"/>
      <point x="72" y="22" type="line"/>
    </contour>
    <contour>
      <point x="408" y="1193"/>
      <point x="414" y="1224" type="qcurve" smooth="yes"/>
      <point x="419" y="1251"/>
      <point x="466" y="1298"/>
      <point x="524" y="1308"/>
      <point x="576" y="1287"/>
      <point x="613" y="1235"/>
      <point x="613" y="1182"/>
      <point x="587" y="1130"/>
      <point x="534" y="1104"/>
      <point x="477" y="1109"/>
      <point x="435" y="1140"/>
    </contour>
    <contour>
      <point x="1180" y="222" type="line"/>
      <point x="1112" y="290" type="line"/>
      <point x="1007" y="185" type="line"/>
      <point x="1007" y="710" type="line"/>
      <point x="907" y="710" type="line"/>
      <point x="907" y="185" type="line"/>
      <point x="802" y="290" type="line"/>
      <point x="729" y="222" type="line"/>
      <point x="923" y="33" type="line"/>
      <point x="991" y="33" type="line"/>
    </contour>
    <contour>
      <point x="340" y="511" type="line"/>
      <point x="408" y="442" type="line"/>
      <point x="513" y="547" type="line"/>
      <point x="513" y="22" type="line"/>
      <point x="613" y="22" type="line"/>
      <point x="613" y="547" type="line"/>
      <point x="718" y="442" type="line"/>
      <point x="792" y="511" type="line"/>
      <point x="597" y="700" type="line"/>
      <point x="529" y="700" type="line"/>
    </contour>
  </outline>
</glyph>
<glyph name="close-all" format="2">
  <advance width="1200"/>
  <unicode hex="EAC1"/>
  <note>
close-all
</note>
  <outline>
    <contour>
      <point x="520" y="563" type="line"/>
      <point x="659" y="697" type="line"/>
      <point x="587" y="769" type="line"/>
      <point x="453" y="630" type="line"/>
      <point x="314" y="769" type="line"/>
      <point x="247" y="697" type="line"/>
      <point x="386" y="563" type="line"/>
      <point x="247" y="424" type="line"/>
      <point x="314" y="357" type="line"/>
      <point x="453" y="496" type="line"/>
      <point x="587" y="357" type="line"/>
      <point x="659" y="424" type="line"/>
    </contour>
    <contour>
      <point x="309" y="996" type="line"/>
      <point x="113" y="996" type="line"/>
      <point x="20" y="903" type="line"/>
      <point x="20" y="223" type="line"/>
      <point x="113" y="130" type="line"/>
      <point x="793" y="130" type="line"/>
      <point x="886" y="223" type="line"/>
      <point x="886" y="419" type="line"/>
      <point x="1082" y="419" type="line"/>
      <point x="1180" y="517" type="line"/>
      <point x="1180" y="1192" type="line"/>
      <point x="1082" y="1290" type="line"/>
      <point x="407" y="1290" type="line"/>
      <point x="309" y="1192" type="line"/>
    </contour>
    <contour>
      <point x="407" y="1192" type="line"/>
      <point x="1082" y="1192" type="line"/>
      <point x="1082" y="517" type="line"/>
      <point x="886" y="517" type="line"/>
      <point x="886" y="903" type="line"/>
      <point x="793" y="996" type="line"/>
      <point x="407" y="996" type="line"/>
    </contour>
    <contour>
      <point x="793" y="223" type="line"/>
      <point x="113" y="223" type="line"/>
      <point x="113" y="903" type="line"/>
      <point x="793" y="903" type="line"/>
    </contour>
  </outline>
</glyph>
<glyph name="cloud-download" format="2">
  <advance width="1200"/>
  <unicode hex="EAC2"/>
  <note>
cloud-download
</note>
  <outline>
    <contour>
      <point x="914" y="1012"/>
      <point x="777" y="1149"/>
      <point x="586" y="1176"/>
      <point x="418" y="1078"/>
      <point x="378" y="990" type="qcurve"/>
      <point x="316" y="1008"/>
      <point x="254" y="994" type="qcurve" smooth="yes"/>
      <point x="179" y="981"/>
      <point x="59" y="879"/>
      <point x="11" y="729"/>
      <point x="42" y="573"/>
      <point x="95" y="516" type="qcurve" smooth="yes"/>
      <point x="135" y="467"/>
      <point x="250" y="418"/>
      <point x="312" y="418" type="qcurve" smooth="yes"/>
      <point x="352" y="418" type="line"/>
      <point x="352" y="503" type="line"/>
      <point x="312" y="503" type="line" smooth="yes"/>
      <point x="250" y="503"/>
      <point x="143" y="573"/>
      <point x="95" y="689"/>
      <point x="121" y="813"/>
      <point x="166" y="857" type="qcurve" smooth="yes"/>
      <point x="223" y="919"/>
      <point x="312" y="919" type="qcurve"/>
      <point x="334" y="915"/>
      <point x="356" y="910" type="qcurve" smooth="yes"/>
      <point x="427" y="897" type="line"/>
      <point x="454" y="959" type="line" smooth="yes"/>
      <point x="480" y="1021"/>
      <point x="600" y="1092"/>
      <point x="737" y="1070"/>
      <point x="839" y="972"/>
      <point x="848" y="906" type="qcurve" smooth="yes"/>
      <point x="857" y="835" type="line"/>
      <point x="932" y="835" type="line" smooth="yes"/>
      <point x="998" y="830"/>
      <point x="1091" y="733"/>
      <point x="1091" y="600"/>
      <point x="998" y="503"/>
      <point x="932" y="503" type="qcurve"/>
      <point x="932" y="418" type="line"/>
      <point x="1034" y="418"/>
      <point x="1180" y="565"/>
      <point x="1180" y="773"/>
      <point x="1034" y="915"/>
      <point x="932" y="919" type="qcurve" smooth="yes"/>
      <point x="927" y="919" type="line"/>
    </contour>
    <contour>
      <point x="436" y="432" type="line"/>
      <point x="613" y="255" type="line"/>
      <point x="671" y="255" type="line"/>
      <point x="848" y="432" type="line"/>
      <point x="790" y="489" type="line"/>
      <point x="684" y="387" type="line"/>
      <point x="684" y="835" type="line"/>
      <point x="600" y="835" type="line"/>
      <point x="600" y="383" type="line"/>
      <point x="493" y="489" type="line"/>
    </contour>
  </outline>
</glyph>
<glyph name="cloud-upload" format="2">
  <advance width="1200"/>
  <unicode hex="EAC3"/>
  <note>
cloud-upload
</note>
  <outline>
    <contour>
      <point x="928" y="914" type="line" smooth="yes"/>
      <point x="915" y="1012"/>
      <point x="778" y="1149"/>
      <point x="587" y="1175"/>
      <point x="419" y="1078"/>
      <point x="380" y="989" type="qcurve"/>
      <point x="318" y="1007"/>
      <point x="194" y="985"/>
      <point x="92" y="910"/>
      <point x="61" y="857" type="qcurve" smooth="yes"/>
      <point x="13" y="777"/>
      <point x="30" y="587"/>
      <point x="97" y="516" type="qcurve" smooth="yes"/>
      <point x="136" y="468"/>
      <point x="251" y="419"/>
      <point x="313" y="419" type="qcurve" smooth="yes"/>
      <point x="521" y="419" type="line"/>
      <point x="521" y="503" type="line"/>
      <point x="313" y="503" type="line" smooth="yes"/>
      <point x="251" y="503"/>
      <point x="145" y="574"/>
      <point x="97" y="689"/>
      <point x="123" y="813"/>
      <point x="167" y="857" type="qcurve" smooth="yes"/>
      <point x="225" y="914"/>
      <point x="313" y="919" type="qcurve"/>
      <point x="335" y="914"/>
      <point x="357" y="910" type="qcurve" smooth="yes"/>
      <point x="428" y="897" type="line"/>
      <point x="455" y="958" type="line" smooth="yes"/>
      <point x="481" y="1020"/>
      <point x="601" y="1091"/>
      <point x="738" y="1069"/>
      <point x="839" y="972"/>
      <point x="848" y="905" type="qcurve" smooth="yes"/>
      <point x="857" y="835" type="line"/>
      <point x="932" y="835" type="line" smooth="yes"/>
      <point x="999" y="830"/>
      <point x="1092" y="733"/>
      <point x="1092" y="600"/>
      <point x="999" y="503"/>
      <point x="932" y="503" type="qcurve" smooth="yes"/>
      <point x="769" y="503" type="line"/>
      <point x="769" y="419" type="line"/>
      <point x="932" y="419" type="line" smooth="yes"/>
      <point x="1034" y="419"/>
      <point x="1180" y="565"/>
      <point x="1180" y="773"/>
      <point x="1034" y="914"/>
      <point x="932" y="919" type="qcurve" smooth="yes"/>
      <point x="928" y="919" type="line"/>
    </contour>
    <contour>
      <point x="848" y="658" type="line"/>
      <point x="671" y="835" type="line"/>
      <point x="614" y="835" type="line"/>
      <point x="437" y="658" type="line"/>
      <point x="495" y="596" type="line"/>
      <point x="601" y="702" type="line"/>
      <point x="601" y="255" type="line"/>
      <point x="680" y="255" type="line"/>
      <point x="680" y="706" type="line"/>
      <point x="791" y="596" type="line"/>
    </contour>
  </outline>
</glyph>
<glyph name="code" format="2">
  <advance width="1200"/>
  <unicode hex="EAC4"/>
  <note>
code
</note>
  <outline>
    <contour>
      <point x="273" y="994" type="line"/>
      <point x="20" y="737" type="line"/>
      <point x="20" y="678" type="line"/>
      <point x="273" y="426" type="line"/>
      <point x="331" y="484" type="line"/>
      <point x="110" y="710" type="line"/>
      <point x="331" y="931" type="line"/>
    </contour>
    <contour>
      <point x="1180" y="737" type="line"/>
      <point x="927" y="994" type="line"/>
      <point x="864" y="931" type="line"/>
      <point x="1090" y="710" type="line"/>
      <point x="864" y="484" type="line"/>
      <point x="927" y="426" type="line"/>
      <point x="1180" y="678" type="line"/>
    </contour>
    <contour>
      <point x="774" y="1152" type="line"/>
      <point x="349" y="304" type="line"/>
      <point x="426" y="268" type="line"/>
      <point x="851" y="1112" type="line"/>
    </contour>
  </outline>
</glyph>
<glyph name="color-mode" format="2">
  <advance width="1200"/>
  <unicode hex="EAC6"/>
  <note>
color-mode
</note>
  <outline>
    <contour>
      <point x="759" y="1290"/>
      <point x="600" y="1290" type="qcurve" smooth="yes"/>
      <point x="441" y="1290"/>
      <point x="175" y="1135"/>
      <point x="20" y="869"/>
      <point x="20" y="551"/>
      <point x="175" y="285"/>
      <point x="441" y="130"/>
      <point x="759" y="130"/>
      <point x="1025" y="285"/>
      <point x="1180" y="551"/>
      <point x="1180" y="869"/>
      <point x="1025" y="1135"/>
    </contour>
    <contour>
      <point x="737" y="214"/>
      <point x="600" y="214" type="qcurve"/>
      <point x="600" y="1210" type="line"/>
      <point x="737" y="1210"/>
      <point x="963" y="1073"/>
      <point x="1100" y="847"/>
      <point x="1100" y="573"/>
      <point x="963" y="347"/>
    </contour>
  </outline>
</glyph>
<glyph name="comment-discussion" format="2">
  <advance width="1200"/>
  <unicode hex="EAC7"/>
  <note>
comment-discussion
</note>
  <outline>
    <contour>
      <point x="268" y="579" type="line"/>
      <point x="228" y="619" type="line"/>
      <point x="104" y="619" type="line"/>
      <point x="104" y="1204" type="line"/>
      <point x="1016" y="1204" type="line"/>
      <point x="1016" y="872" type="line"/>
      <point x="1100" y="872" type="line"/>
      <point x="1100" y="1244" type="line"/>
      <point x="1056" y="1283" type="line"/>
      <point x="60" y="1283" type="line"/>
      <point x="20" y="1244" type="line"/>
      <point x="20" y="579" type="line"/>
      <point x="60" y="540" type="line"/>
      <point x="184" y="540" type="line"/>
      <point x="184" y="331" type="line"/>
      <point x="255" y="300" type="line"/>
      <point x="352" y="393" type="line"/>
      <point x="352" y="513" type="line"/>
      <point x="268" y="429" type="line"/>
    </contour>
    <contour>
      <point x="476" y="287" type="line"/>
      <point x="790" y="287" type="line"/>
      <point x="945" y="137" type="line"/>
      <point x="1016" y="163" type="line"/>
      <point x="1016" y="287" type="line"/>
      <point x="1140" y="287" type="line"/>
      <point x="1180" y="331" type="line"/>
      <point x="1180" y="743" type="line"/>
      <point x="1140" y="787" type="line"/>
      <point x="476" y="787" type="line"/>
      <point x="436" y="743" type="line"/>
      <point x="436" y="331" type="line"/>
    </contour>
    <contour>
      <point x="835" y="358" type="line"/>
      <point x="808" y="371" type="line"/>
      <point x="516" y="371" type="line"/>
      <point x="516" y="703" type="line"/>
      <point x="1100" y="703" type="line"/>
      <point x="1100" y="371" type="line"/>
      <point x="972" y="371" type="line"/>
      <point x="932" y="331" type="line"/>
      <point x="932" y="265" type="line"/>
    </contour>
  </outline>
</glyph>
<glyph name="credit-card" format="2">
  <advance width="1200"/>
  <unicode hex="EAC9"/>
  <note>
credit-card
</note>
  <outline>
    <contour>
      <point x="104" y="1000" type="line"/>
      <point x="1100" y="1000" type="line"/>
      <point x="1100" y="920" type="line"/>
      <point x="104" y="920" type="line"/>
    </contour>
    <contour>
      <point x="104" y="420" type="line"/>
      <point x="104" y="836" type="line"/>
      <point x="1100" y="836" type="line"/>
      <point x="1100" y="420" type="line"/>
    </contour>
    <contour>
      <point x="1131" y="1084"/>
      <point x="1100" y="1084" type="qcurve" smooth="yes"/>
      <point x="104" y="1084" type="line" smooth="yes"/>
      <point x="69" y="1084"/>
      <point x="20" y="1035"/>
      <point x="20" y="1000" type="qcurve" smooth="yes"/>
      <point x="20" y="420" type="line" smooth="yes"/>
      <point x="20" y="385"/>
      <point x="69" y="336"/>
      <point x="104" y="336" type="qcurve" smooth="yes"/>
      <point x="1100" y="336" type="line" smooth="yes"/>
      <point x="1131" y="336"/>
      <point x="1180" y="385"/>
      <point x="1180" y="420" type="qcurve" smooth="yes"/>
      <point x="1180" y="1000" type="line" smooth="yes"/>
      <point x="1180" y="1035"/>
    </contour>
    <contour>
      <point x="848" y="504" type="line"/>
      <point x="1016" y="504" type="line"/>
      <point x="1016" y="588" type="line"/>
      <point x="848" y="588" type="line"/>
    </contour>
  </outline>
</glyph>
<glyph name="dash" format="2">
  <advance width="1200"/>
  <unicode hex="EACC"/>
  <note>
dash
</note>
  <outline>
    <contour>
      <point x="20" y="612" type="line"/>
      <point x="1180" y="612" type="line"/>
      <point x="1180" y="808" type="line"/>
      <point x="20" y="808" type="line"/>
    </contour>
  </outline>
</glyph>
<glyph name="dashboard" format="2">
  <advance width="1200"/>
  <unicode hex="EACD"/>
  <note>
dashboard
</note>
  <outline>
    <contour>
      <point x="145" y="1103"/>
      <point x="12" y="827"/>
      <point x="31" y="517"/>
      <point x="207" y="255"/>
      <point x="483" y="122"/>
      <point x="793" y="141"/>
      <point x="1050" y="312"/>
      <point x="1188" y="593"/>
      <point x="1169" y="903"/>
      <point x="998" y="1160"/>
      <point x="717" y="1298"/>
      <point x="407" y="1279"/>
      <point x="278" y="1194" type="qcurve" smooth="yes"/>
    </contour>
    <contour>
      <point x="231" y="365"/>
      <point x="116" y="565"/>
      <point x="102" y="789"/>
      <point x="193" y="1003"/>
      <point x="364" y="1155"/>
      <point x="583" y="1213"/>
      <point x="812" y="1170"/>
      <point x="988" y="1027"/>
      <point x="1093" y="827"/>
      <point x="1093" y="708" type="qcurve" smooth="yes"/>
      <point x="1093" y="574"/>
      <point x="960" y="350"/>
      <point x="736" y="217"/>
      <point x="602" y="217" type="qcurve" smooth="yes"/>
      <point x="450" y="217"/>
      <point x="326" y="303" type="qcurve" smooth="yes"/>
    </contour>
    <contour>
      <point x="660" y="832" type="line"/>
      <point x="612" y="851"/>
      <point x="517" y="827"/>
      <point x="459" y="746"/>
      <point x="469" y="646"/>
      <point x="540" y="579"/>
      <point x="636" y="569"/>
      <point x="717" y="627"/>
      <point x="741" y="722"/>
      <point x="722" y="765" type="qcurve"/>
      <point x="912" y="960" type="line"/>
      <point x="850" y="1022" type="line"/>
    </contour>
    <contour>
      <point x="560" y="684"/>
      <point x="555" y="717"/>
      <point x="574" y="751"/>
      <point x="612" y="755"/>
      <point x="645" y="731"/>
      <point x="645" y="679"/>
      <point x="598" y="660"/>
      <point x="574" y="674" type="qcurve" smooth="yes"/>
    </contour>
    <contour>
      <point x="960" y="889" type="line"/>
      <point x="1007" y="793"/>
      <point x="993" y="574"/>
      <point x="936" y="484" type="qcurve"/>
      <point x="869" y="550" type="line"/>
      <point x="912" y="622"/>
      <point x="912" y="708" type="qcurve" smooth="yes"/>
      <point x="912" y="770"/>
      <point x="888" y="822" type="qcurve"/>
      <point x="960" y="889" type="line"/>
    </contour>
    <contour>
      <point x="779" y="1070" type="qcurve"/>
      <point x="712" y="998" type="line"/>
      <point x="660" y="1022"/>
      <point x="602" y="1022" type="qcurve" smooth="yes"/>
      <point x="517" y="1022"/>
      <point x="374" y="936"/>
      <point x="288" y="793"/>
      <point x="288" y="622"/>
      <point x="331" y="550" type="qcurve"/>
      <point x="269" y="484" type="line"/>
      <point x="193" y="598"/>
      <point x="207" y="870"/>
      <point x="388" y="1074"/>
      <point x="655" y="1132"/>
    </contour>
  </outline>
</glyph>
<glyph name="database" format="2">
  <advance width="1200"/>
  <unicode hex="EACE"/>
  <note>
database
</note>
  <outline>
    <contour>
      <point x="1104" y="1154" type="line"/>
      <point x="1109" y="1165" type="line"/>
      <point x="1109" y="1236"/>
      <point x="974" y="1355"/>
      <point x="735" y="1420"/>
      <point x="465" y="1420"/>
      <point x="226" y="1355"/>
      <point x="91" y="1236"/>
      <point x="91" y="1165" type="qcurve"/>
      <point x="96" y="1154" type="line"/>
      <point x="91" y="1154" type="line"/>
      <point x="91" y="255" type="line"/>
      <point x="96" y="217" type="line" smooth="yes"/>
      <point x="118" y="125"/>
      <point x="405" y="0"/>
      <point x="795" y="0"/>
      <point x="1082" y="125"/>
      <point x="1104" y="217" type="qcurve" smooth="yes"/>
      <point x="1109" y="255" type="line"/>
      <point x="1109" y="1154" type="line"/>
    </contour>
    <contour>
      <point x="486" y="1317"/>
      <point x="600" y="1317" type="qcurve" smooth="yes"/>
      <point x="714" y="1317"/>
      <point x="817" y="1290" type="qcurve" smooth="yes"/>
      <point x="904" y="1268"/>
      <point x="1006" y="1192"/>
      <point x="1006" y="1138"/>
      <point x="904" y="1068"/>
      <point x="817" y="1046" type="qcurve" smooth="yes"/>
      <point x="714" y="1019"/>
      <point x="486" y="1019"/>
      <point x="383" y="1046" type="qcurve" smooth="yes"/>
      <point x="296" y="1068"/>
      <point x="194" y="1138"/>
      <point x="194" y="1192"/>
      <point x="296" y="1268"/>
      <point x="383" y="1290" type="qcurve" smooth="yes"/>
    </contour>
    <contour>
      <point x="1006" y="1019" type="qcurve"/>
      <point x="1006" y="255" type="line"/>
      <point x="1001" y="238" type="line" smooth="yes"/>
      <point x="996" y="211"/>
      <point x="893" y="146"/>
      <point x="811" y="125" type="qcurve" smooth="yes"/>
      <point x="714" y="98"/>
      <point x="486" y="98"/>
      <point x="389" y="125" type="qcurve" smooth="yes"/>
      <point x="307" y="146"/>
      <point x="204" y="211"/>
      <point x="199" y="238" type="qcurve" smooth="yes"/>
      <point x="194" y="255" type="line"/>
      <point x="194" y="1014" type="line"/>
      <point x="383" y="905"/>
      <point x="600" y="911" type="qcurve" smooth="yes"/>
      <point x="817" y="905"/>
    </contour>
  </outline>
</glyph>
<glyph name="debug-continue" format="2">
  <advance width="1200"/>
  <unicode hex="EACF"/>
  <note>
debug-continue
</note>
  <outline>
    <contour>
      <point x="20" y="127" type="line"/>
      <point x="165" y="127" type="line"/>
      <point x="165" y="1293" type="line"/>
      <point x="20" y="1293" type="line"/>
    </contour>
    <contour>
      <point x="1180" y="764" type="line"/>
      <point x="496" y="1251" type="line"/>
      <point x="383" y="1194" type="line"/>
      <point x="383" y="221" type="line"/>
      <point x="496" y="164" type="line"/>
      <point x="1180" y="650" type="line"/>
    </contour>
    <contour>
      <point x="528" y="1049" type="line"/>
      <point x="1009" y="707" type="line"/>
      <point x="528" y="366" type="line"/>
    </contour>
  </outline>
</glyph>
<glyph name="debug-disconnect" format="2">
  <advance width="1200"/>
  <unicode hex="EAD0"/>
  <note>
debug-disconnect
</note>
  <outline>
    <contour>
      <point x="1134" y="953"/>
      <point x="1102" y="1045" type="qcurve" smooth="yes"/>
      <point x="1088" y="1086"/>
      <point x="1065" y="1118" type="qcurve"/>
      <point x="1180" y="1237" type="line"/>
      <point x="1130" y="1288" type="line"/>
      <point x="1010" y="1173" type="line"/>
      <point x="978" y="1201"/>
      <point x="937" y="1210" type="qcurve" smooth="yes"/>
      <point x="845" y="1242"/>
      <point x="754" y="1205" type="qcurve" smooth="yes"/>
      <point x="703" y="1187"/>
      <point x="666" y="1146" type="qcurve" smooth="yes"/>
      <point x="534" y="1013" type="line"/>
      <point x="905" y="641" type="line"/>
      <point x="1038" y="774" type="line" smooth="yes"/>
      <point x="1079" y="811"/>
      <point x="1097" y="861" type="qcurve" smooth="yes"/>
    </contour>
    <contour>
      <point x="1056" y="962"/>
      <point x="1029" y="889" type="qcurve" smooth="yes"/>
      <point x="1015" y="857"/>
      <point x="987" y="829" type="qcurve" smooth="yes"/>
      <point x="905" y="747" type="line"/>
      <point x="639" y="1013" type="line"/>
      <point x="722" y="1095" type="line" smooth="yes"/>
      <point x="749" y="1123"/>
      <point x="781" y="1136" type="qcurve" smooth="yes"/>
      <point x="854" y="1164"/>
      <point x="928" y="1136" type="qcurve"/>
      <point x="960" y="1118"/>
      <point x="1010" y="1068"/>
      <point x="1029" y="1036" type="qcurve"/>
    </contour>
    <contour>
      <point x="666" y="407" type="line"/>
      <point x="611" y="458" type="line"/>
      <point x="740" y="591" type="line"/>
      <point x="685" y="646" type="line"/>
      <point x="561" y="513" type="line"/>
      <point x="401" y="673" type="line"/>
      <point x="529" y="806" type="line"/>
      <point x="474" y="861" type="line"/>
      <point x="346" y="728" type="line"/>
      <point x="295" y="779" type="line"/>
      <point x="162" y="646" type="line" smooth="yes"/>
      <point x="121" y="609"/>
      <point x="84" y="513"/>
      <point x="84" y="417"/>
      <point x="107" y="339"/>
      <point x="135" y="302" type="qcurve"/>
      <point x="20" y="187" type="line"/>
      <point x="70" y="132" type="line"/>
      <point x="190" y="247" type="line"/>
      <point x="222" y="224"/>
      <point x="304" y="196"/>
      <point x="401" y="196"/>
      <point x="497" y="238"/>
      <point x="534" y="274" type="qcurve" smooth="yes"/>
    </contour>
    <contour>
      <point x="451" y="302"/>
      <point x="419" y="288" type="qcurve" smooth="yes"/>
      <point x="382" y="270"/>
      <point x="309" y="270"/>
      <point x="240" y="302"/>
      <point x="185" y="352"/>
      <point x="158" y="421"/>
      <point x="158" y="458" type="qcurve" smooth="yes"/>
      <point x="158" y="536"/>
      <point x="213" y="591" type="qcurve" smooth="yes"/>
      <point x="295" y="673" type="line"/>
      <point x="561" y="407" type="line"/>
      <point x="478" y="325" type="line" smooth="yes"/>
    </contour>
  </outline>
</glyph>
<glyph name="debug-pause" format="2">
  <advance width="1200"/>
  <unicode hex="EAD1"/>
  <note>
debug-pause
</note>
  <outline>
    <contour>
      <point x="101" y="0" type="line"/>
      <point x="321" y="0" type="line"/>
      <point x="321" y="1420" type="line"/>
      <point x="101" y="1420" type="line"/>
    </contour>
    <contour>
      <point x="887" y="1420" type="line"/>
      <point x="887" y="0" type="line"/>
      <point x="1099" y="0" type="line"/>
      <point x="1099" y="1420" type="line"/>
    </contour>
  </outline>
</glyph>
<glyph name="debug-restart" format="2">
  <advance width="1200"/>
  <unicode hex="EAD2"/>
  <note>
debug-restart
</note>
  <outline>
    <contour>
      <point x="1038" y="856"/>
      <point x="1038" y="709" type="qcurve" smooth="yes"/>
      <point x="1038" y="557"/>
      <point x="846" y="324"/>
      <point x="552" y="258"/>
      <point x="283" y="395"/>
      <point x="223" y="537" type="qcurve"/>
      <point x="91" y="481" type="line"/>
      <point x="142" y="360"/>
      <point x="344" y="192"/>
      <point x="597" y="127"/>
      <point x="856" y="177"/>
      <point x="1063" y="339"/>
      <point x="1180" y="577"/>
      <point x="1180" y="709" type="qcurve" smooth="yes"/>
      <point x="1180" y="892"/>
      <point x="967" y="1190"/>
      <point x="623" y="1307"/>
      <point x="273" y="1200"/>
      <point x="162" y="1059" type="qcurve"/>
      <point x="162" y="1231" type="line"/>
      <point x="20" y="1231" type="line"/>
      <point x="20" y="851" type="line"/>
      <point x="91" y="780" type="line"/>
      <point x="420" y="780" type="line"/>
      <point x="420" y="922" type="line"/>
      <point x="243" y="922" type="line"/>
      <point x="314" y="1049"/>
      <point x="582" y="1160"/>
      <point x="861" y="1084"/>
    </contour>
  </outline>
</glyph>
<glyph name="debug-start" format="2">
  <advance width="1200"/>
  <unicode hex="EAD3"/>
  <note>
debug-start
</note>
  <outline>
    <contour>
      <point x="52" y="76" type="line"/>
      <point x="192" y="0" type="line"/>
      <point x="1148" y="637" type="line"/>
      <point x="1148" y="783" type="line"/>
      <point x="192" y="1420" type="line"/>
      <point x="52" y="1350" type="line"/>
    </contour>
    <contour>
      <point x="931" y="713" type="line"/>
      <point x="231" y="242" type="line"/>
      <point x="231" y="1178" type="line"/>
    </contour>
  </outline>
</glyph>
<glyph name="debug-step-into" format="2">
  <advance width="1200"/>
  <unicode hex="EAD4"/>
  <note>
debug-step-into
</note>
  <outline>
    <contour>
      <point x="546" y="553" type="line"/>
      <point x="600" y="553" type="line"/>
      <point x="654" y="553" type="line"/>
      <point x="1050" y="948" type="line"/>
      <point x="941" y="1057" type="line"/>
      <point x="676" y="791" type="line"/>
      <point x="676" y="1420" type="line"/>
      <point x="524" y="1420" type="line"/>
      <point x="524" y="791" type="line"/>
      <point x="259" y="1057" type="line"/>
      <point x="150" y="948" type="line"/>
    </contour>
    <contour>
      <point x="801" y="287"/>
      <point x="681" y="406"/>
      <point x="513" y="406"/>
      <point x="394" y="287"/>
      <point x="394" y="114"/>
      <point x="513" y="0"/>
      <point x="681" y="0"/>
      <point x="801" y="114"/>
      <point x="801" y="201" type="qcurve" smooth="yes"/>
    </contour>
  </outline>
</glyph>
<glyph name="debug-step-out" format="2">
  <advance width="1200"/>
  <unicode hex="EAD5"/>
  <note>
debug-step-out
</note>
  <outline>
    <contour>
      <point x="654" y="1420" type="line"/>
      <point x="600" y="1420" type="line"/>
      <point x="546" y="1420" type="line"/>
      <point x="150" y="1024" type="line"/>
      <point x="259" y="916" type="line"/>
      <point x="524" y="1182" type="line"/>
      <point x="524" y="553" type="line"/>
      <point x="676" y="553" type="line"/>
      <point x="676" y="1182" type="line"/>
      <point x="941" y="916" type="line"/>
      <point x="1050" y="1024" type="line"/>
    </contour>
    <contour>
      <point x="801" y="287"/>
      <point x="681" y="406"/>
      <point x="513" y="406"/>
      <point x="394" y="287"/>
      <point x="394" y="114"/>
      <point x="513" y="0"/>
      <point x="681" y="0"/>
      <point x="801" y="114"/>
      <point x="801" y="201" type="qcurve" smooth="yes"/>
    </contour>
  </outline>
</glyph>
<glyph name="debug-step-over" format="2">
  <advance width="1200"/>
  <unicode hex="EAD6"/>
  <note>
debug-step-over
</note>
  <outline>
    <contour>
      <point x="1180" y="858" type="line"/>
      <point x="1180" y="907" type="line"/>
      <point x="1180" y="1278" type="line"/>
      <point x="1042" y="1278" type="line"/>
      <point x="1042" y="1046" type="line"/>
      <point x="963" y="1139"/>
      <point x="726" y="1248"/>
      <point x="593" y="1248" type="qcurve" smooth="yes"/>
      <point x="449" y="1248"/>
      <point x="193" y="1115"/>
      <point x="35" y="888"/>
      <point x="25" y="749" type="qcurve" smooth="yes"/>
      <point x="20" y="725" type="line"/>
      <point x="163" y="725" type="line"/>
      <point x="163" y="745" type="line" smooth="yes"/>
      <point x="173" y="843"/>
      <point x="291" y="1011"/>
      <point x="484" y="1110"/>
      <point x="711" y="1110"/>
      <point x="913" y="1001"/>
      <point x="968" y="907" type="qcurve"/>
      <point x="706" y="907" type="line"/>
      <point x="706" y="769" type="line"/>
      <point x="1091" y="769" type="line"/>
    </contour>
    <contour>
      <point x="602" y="142" type="qcurve"/>
      <point x="602" y="147" type="line"/>
      <point x="681" y="147"/>
      <point x="790" y="251"/>
      <point x="790" y="409"/>
      <point x="681" y="513"/>
      <point x="523" y="517"/>
      <point x="420" y="409"/>
      <point x="420" y="251"/>
      <point x="523" y="142"/>
    </contour>
  </outline>
</glyph>
<glyph name="debug-stop" format="2">
  <advance width="1200"/>
  <unicode hex="EAD7"/>
  <note>
debug-stop
</note>
  <outline>
    <contour>
      <point x="1180" y="1290" type="line"/>
      <point x="20" y="1290" type="line"/>
      <point x="20" y="130" type="line"/>
      <point x="1180" y="130" type="line"/>
    </contour>
    <contour>
      <point x="1056" y="1166" type="line"/>
      <point x="1056" y="249" type="line"/>
      <point x="139" y="249" type="line"/>
      <point x="139" y="1166" type="line"/>
    </contour>
  </outline>
</glyph>
<glyph name="debug" format="2">
  <advance width="1200"/>
  <unicode hex="EAD8"/>
  <note>
debug
</note>
  <outline>
    <contour>
      <point x="187" y="656" type="line"/>
      <point x="187" y="652" type="line"/>
    </contour>
    <contour>
      <point x="394" y="473" type="line"/>
      <point x="444" y="422" type="line"/>
      <point x="596" y="578" type="line"/>
      <point x="752" y="418" type="line"/>
      <point x="802" y="469" type="line"/>
      <point x="654" y="617" type="line"/>
      <point x="802" y="764" type="line"/>
      <point x="752" y="815" type="line"/>
      <point x="600" y="659" type="line"/>
      <point x="444" y="815" type="line"/>
      <point x="394" y="768" type="line"/>
      <point x="542" y="620" type="line"/>
    </contour>
    <contour>
      <point x="845" y="1099"/>
      <point x="779" y="1212"/>
      <point x="666" y="1278"/>
      <point x="534" y="1278"/>
      <point x="421" y="1212"/>
      <point x="359" y="1099"/>
      <point x="359" y="1033" type="qcurve" smooth="yes"/>
      <point x="359" y="986" type="line"/>
      <point x="289" y="986" type="line"/>
      <point x="148" y="1127" type="line"/>
      <point x="98" y="1076" type="line"/>
      <point x="234" y="940" type="line"/>
      <point x="234" y="936" type="line"/>
      <point x="191" y="827"/>
      <point x="191" y="702" type="qcurve" smooth="yes"/>
      <point x="191" y="648" type="line"/>
      <point x="20" y="648" type="line"/>
      <point x="20" y="578" type="line"/>
      <point x="199" y="578" type="line"/>
      <point x="203" y="578" type="line"/>
      <point x="222" y="461"/>
      <point x="281" y="364" type="qcurve"/>
      <point x="285" y="360" type="line"/>
      <point x="121" y="196" type="line"/>
      <point x="168" y="149" type="line"/>
      <point x="328" y="305" type="line"/>
      <point x="331" y="297" type="line"/>
      <point x="386" y="235"/>
      <point x="526" y="165"/>
      <point x="674" y="165"/>
      <point x="814" y="235"/>
      <point x="869" y="293" type="qcurve"/>
      <point x="872" y="301" type="line"/>
      <point x="1032" y="142" type="line"/>
      <point x="1083" y="188" type="line"/>
      <point x="915" y="356" type="line"/>
      <point x="919" y="360" type="line"/>
      <point x="978" y="457"/>
      <point x="1001" y="578" type="qcurve"/>
      <point x="1001" y="578" type="line"/>
      <point x="1180" y="578" type="line"/>
      <point x="1180" y="648" type="line"/>
      <point x="1009" y="648" type="line"/>
      <point x="1013" y="702" type="line" smooth="yes"/>
      <point x="1013" y="823"/>
      <point x="966" y="940" type="qcurve"/>
      <point x="966" y="944" type="line"/>
      <point x="1098" y="1076" type="line"/>
      <point x="1048" y="1127" type="line"/>
      <point x="908" y="986" type="line"/>
      <point x="845" y="986" type="line"/>
      <point x="845" y="1033" type="line" smooth="yes"/>
    </contour>
    <contour>
      <point x="429" y="1107"/>
      <point x="530" y="1208"/>
      <point x="674" y="1208"/>
      <point x="775" y="1107"/>
      <point x="775" y="1033" type="qcurve" smooth="yes"/>
      <point x="775" y="986" type="line"/>
      <point x="429" y="986" type="line"/>
      <point x="429" y="1033" type="line" smooth="yes"/>
    </contour>
    <contour>
      <point x="943" y="815"/>
      <point x="943" y="702" type="qcurve" smooth="yes"/>
      <point x="943" y="605"/>
      <point x="884" y="430"/>
      <point x="787" y="301"/>
      <point x="666" y="235"/>
      <point x="534" y="235"/>
      <point x="413" y="301"/>
      <point x="316" y="430"/>
      <point x="261" y="605"/>
      <point x="261" y="702" type="qcurve" smooth="yes"/>
      <point x="261" y="811"/>
      <point x="296" y="912" type="qcurve"/>
      <point x="300" y="916" type="line"/>
      <point x="904" y="916" type="line"/>
      <point x="904" y="912" type="line"/>
    </contour>
  </outline>
</glyph>
<glyph name="device-camera-video" format="2">
  <advance width="1200"/>
  <unicode hex="EAD9"/>
  <note>
device-camera-video
</note>
  <outline>
    <contour>
      <point x="1180" y="945" type="line"/>
      <point x="1118" y="980" type="line"/>
      <point x="848" y="825" type="line"/>
      <point x="848" y="1002" type="line"/>
      <point x="808" y="1042" type="line"/>
      <point x="60" y="1042" type="line"/>
      <point x="20" y="1002" type="line"/>
      <point x="20" y="418" type="line"/>
      <point x="60" y="378" type="line"/>
      <point x="808" y="378" type="line"/>
      <point x="848" y="418" type="line"/>
      <point x="848" y="586" type="line"/>
      <point x="1118" y="431" type="line"/>
      <point x="1180" y="471" type="line"/>
    </contour>
    <contour>
      <point x="768" y="958" type="line"/>
      <point x="768" y="462" type="line"/>
      <point x="104" y="462" type="line"/>
      <point x="104" y="958" type="line"/>
    </contour>
    <contour>
      <point x="1100" y="878" type="line"/>
      <point x="1100" y="546" type="line"/>
      <point x="848" y="683" type="line"/>
      <point x="848" y="728" type="line"/>
    </contour>
  </outline>
</glyph>
<glyph name="device-camera" format="2">
  <advance width="1200"/>
  <unicode hex="EADA"/>
  <note>
device-camera
</note>
  <outline>
    <contour>
      <point x="755" y="1155" type="line"/>
      <point x="724" y="1168" type="line"/>
      <point x="476" y="1168" type="line"/>
      <point x="445" y="1155" type="line"/>
      <point x="374" y="1084" type="line"/>
      <point x="60" y="1084" type="line"/>
      <point x="20" y="1040" type="line"/>
      <point x="20" y="296" type="line"/>
      <point x="60" y="252" type="line"/>
      <point x="1140" y="252" type="line"/>
      <point x="1180" y="296" type="line"/>
      <point x="1180" y="1040" type="line"/>
      <point x="1140" y="1084" type="line"/>
      <point x="826" y="1084" type="line"/>
    </contour>
    <contour>
      <point x="104" y="1000" type="line"/>
      <point x="392" y="1000" type="line"/>
      <point x="423" y="1013" type="line"/>
      <point x="494" y="1084" type="line"/>
      <point x="706" y="1084" type="line"/>
      <point x="777" y="1013" type="line"/>
      <point x="808" y="1000" type="line"/>
      <point x="1100" y="1000" type="line"/>
      <point x="1100" y="336" type="line"/>
      <point x="104" y="336" type="line"/>
    </contour>
    <contour>
      <point x="246" y="916"/>
      <point x="228" y="916" type="qcurve" smooth="yes"/>
      <point x="210" y="916"/>
      <point x="184" y="894"/>
      <point x="184" y="858"/>
      <point x="210" y="832"/>
      <point x="246" y="836"/>
      <point x="268" y="858"/>
      <point x="268" y="894"/>
    </contour>
    <contour>
      <point x="529" y="836"/>
      <point x="436" y="739"/>
      <point x="436" y="597"/>
      <point x="529" y="504"/>
      <point x="671" y="500"/>
      <point x="768" y="597"/>
      <point x="768" y="739"/>
      <point x="671" y="836"/>
      <point x="600" y="836" type="qcurve" smooth="yes"/>
    </contour>
    <contour>
      <point x="702" y="916"/>
      <point x="600" y="916" type="qcurve" smooth="yes"/>
      <point x="498" y="916"/>
      <point x="352" y="770"/>
      <point x="352" y="566"/>
      <point x="498" y="420"/>
      <point x="702" y="420"/>
      <point x="848" y="566"/>
      <point x="848" y="770"/>
    </contour>
  </outline>
</glyph>
<glyph name="device-mobile" format="2">
  <advance width="1200"/>
  <unicode hex="EADB"/>
  <note>
device-mobile
</note>
  <outline>
    <contour>
      <point x="142" y="1371" type="line"/>
      <point x="142" y="49" type="line"/>
      <point x="191" y="0" type="line"/>
      <point x="1004" y="0" type="line"/>
      <point x="1058" y="49" type="line"/>
      <point x="1058" y="1371" type="line"/>
      <point x="1004" y="1420" type="line"/>
      <point x="191" y="1420" type="line"/>
    </contour>
    <contour>
      <point x="245" y="1322" type="line"/>
      <point x="955" y="1322" type="line"/>
      <point x="955" y="103" type="line"/>
      <point x="245" y="103" type="line"/>
    </contour>
    <contour>
      <point x="500" y="201" type="line"/>
      <point x="700" y="201" type="line"/>
      <point x="700" y="304" type="line"/>
      <point x="500" y="304" type="line"/>
    </contour>
  </outline>
</glyph>
<glyph name="diff-added" format="2">
  <advance width="1200"/>
  <unicode hex="EADC"/>
  <note>
diff-added
</note>
  <outline>
    <contour>
      <point x="20" y="1245" type="line"/>
      <point x="20" y="175" type="line"/>
      <point x="63" y="132" type="line"/>
      <point x="1132" y="132" type="line"/>
      <point x="1180" y="175" type="line"/>
      <point x="1180" y="1245" type="line"/>
      <point x="1132" y="1288" type="line"/>
      <point x="63" y="1288" type="line"/>
    </contour>
    <contour>
      <point x="110" y="1202" type="line"/>
      <point x="1090" y="1202" type="line"/>
      <point x="1090" y="218" type="line"/>
      <point x="110" y="218" type="line"/>
    </contour>
    <contour>
      <point x="643" y="755" type="line"/>
      <point x="643" y="1021" type="line"/>
      <point x="552" y="1021" type="line"/>
      <point x="552" y="755" type="line"/>
      <point x="286" y="755" type="line"/>
      <point x="286" y="665" type="line"/>
      <point x="552" y="665" type="line"/>
      <point x="552" y="399" type="line"/>
      <point x="643" y="399" type="line"/>
      <point x="643" y="665" type="line"/>
      <point x="909" y="665" type="line"/>
      <point x="909" y="755" type="line"/>
    </contour>
  </outline>
</glyph>
<glyph name="diff-ignored" format="2">
  <advance width="1200"/>
  <unicode hex="EADD"/>
  <note>
diff-ignored
</note>
  <outline>
    <contour>
      <point x="20" y="1250" type="line"/>
      <point x="20" y="170" type="line"/>
      <point x="60" y="130" type="line"/>
      <point x="1140" y="130" type="line"/>
      <point x="1180" y="170" type="line"/>
      <point x="1180" y="1250" type="line"/>
      <point x="1140" y="1290" type="line"/>
      <point x="60" y="1290" type="line"/>
    </contour>
    <contour>
      <point x="104" y="1210" type="line"/>
      <point x="1100" y="1210" type="line"/>
      <point x="1100" y="214" type="line"/>
      <point x="104" y="214" type="line"/>
    </contour>
    <contour>
      <point x="268" y="546" type="line"/>
      <point x="268" y="378" type="line"/>
      <point x="436" y="378" type="line"/>
      <point x="932" y="878" type="line"/>
      <point x="932" y="1042" type="line"/>
      <point x="768" y="1042" type="line"/>
    </contour>
  </outline>
</glyph>
<glyph name="diff-modified" format="2">
  <advance width="1200"/>
  <unicode hex="EADE"/>
  <note>
diff-modified
</note>
  <outline>
    <contour>
      <point x="20" y="1250" type="line"/>
      <point x="20" y="170" type="line"/>
      <point x="60" y="130" type="line"/>
      <point x="1140" y="130" type="line"/>
      <point x="1180" y="170" type="line"/>
      <point x="1180" y="1250" type="line"/>
      <point x="1140" y="1290" type="line"/>
      <point x="60" y="1290" type="line"/>
    </contour>
    <contour>
      <point x="1100" y="1210" type="line"/>
      <point x="1100" y="214" type="line"/>
      <point x="104" y="214" type="line"/>
      <point x="104" y="1210" type="line"/>
    </contour>
    <contour>
      <point x="498" y="462"/>
      <point x="600" y="462" type="qcurve" smooth="yes"/>
      <point x="702" y="462"/>
      <point x="848" y="608"/>
      <point x="848" y="812"/>
      <point x="702" y="958"/>
      <point x="498" y="958"/>
      <point x="352" y="812"/>
      <point x="352" y="608"/>
    </contour>
  </outline>
</glyph>
<glyph name="diff-removed" format="2">
  <advance width="1200"/>
  <unicode hex="EADF"/>
  <note>
diff-removed
</note>
  <outline>
    <contour>
      <point x="377" y="755" type="line"/>
      <point x="377" y="665" type="line"/>
      <point x="823" y="665" type="line"/>
      <point x="823" y="755" type="line"/>
    </contour>
    <contour>
      <point x="20" y="1245" type="line"/>
      <point x="20" y="175" type="line"/>
      <point x="63" y="132" type="line"/>
      <point x="1132" y="132" type="line"/>
      <point x="1180" y="175" type="line"/>
      <point x="1180" y="1245" type="line"/>
      <point x="1132" y="1288" type="line"/>
      <point x="63" y="1288" type="line"/>
    </contour>
    <contour>
      <point x="110" y="1202" type="line"/>
      <point x="1090" y="1202" type="line"/>
      <point x="1090" y="218" type="line"/>
      <point x="110" y="218" type="line"/>
    </contour>
  </outline>
</glyph>
